<?xml version="1.0" encoding="UTF-8" standalone="no"?>
<svg
   xmlns:dc="http://purl.org/dc/elements/1.1/"
   xmlns:cc="http://creativecommons.org/ns#"
   xmlns:rdf="http://www.w3.org/1999/02/22-rdf-syntax-ns#"
   xmlns:svg="http://www.w3.org/2000/svg"
   xmlns="http://www.w3.org/2000/svg"
   xmlns:sodipodi="http://sodipodi.sourceforge.net/DTD/sodipodi-0.dtd"
   xmlns:inkscape="http://www.inkscape.org/namespaces/inkscape"
   inkscape:version="1.0 (4035a4fb49, 2020-05-01)"
   sodipodi:docname="acute.svg"
   id="svg2175"
   viewBox="0 0 1104 1024"
   height="1024"
   width="1104"
   version="1.1">
  <metadata
     id="metadata2181">
    <rdf:RDF>
      <cc:Work
         rdf:about="">
        <dc:format>image/svg+xml</dc:format>
        <dc:type
           rdf:resource="http://purl.org/dc/dcmitype/StillImage" />
      </cc:Work>
    </rdf:RDF>
  </metadata>
  <defs
     id="defs2179" />
  <sodipodi:namedview
     inkscape:current-layer="svg2175"
     inkscape:window-maximized="1"
     inkscape:window-y="-11"
     inkscape:window-x="-11"
     inkscape:cy="618.94517"
     inkscape:cx="552"
     inkscape:zoom="0.74804688"
     showgrid="false"
     id="namedview2177"
     inkscape:window-height="986"
     inkscape:window-width="1920"
     inkscape:pageshadow="2"
     inkscape:pageopacity="0"
     guidetolerance="10"
     gridtolerance="10"
     objecttolerance="10"
     borderopacity="1"
     bordercolor="#666666"
     pagecolor="#ffffff" />
  <title
     id="title2170">florin</title>
  <g
     id="icomoon-ignore" />
  <path
     style="fill:#ffffff"
     id="path2173"
     d="M697.344 247.811l-1.024-1.024-6.144 1.024h-1.024v2.048zM801.792 440.323l-46.080-59.392-1.024 1.024 46.080 59.392zM752.64 394.243l-3.072-9.216-1.024 1.024 3.072 8.192h1.024zM809.984 452.611l-5.12-10.24h-2.048l6.144 10.24h1.024zM828.416 471.043l-2.048-7.168h-2.048l2.048 7.168h2.048zM820.224 463.875l-5.12-9.216-1.024 1.024 5.12 9.216zM679.936 319.491l-9.216-5.12-1.024 2.048 9.216 4.096zM760.832 406.531l-3.072-9.216-1.024 1.024 3.072 9.216zM835.584 481.283v-2.048h-1.024v2.048h1.024zM765.952 412.675v-3.072h-2.048v3.072h2.048zM863.232 510.979l-6.144-9.216h-1.024l5.12 9.216h2.048zM845.824 493.571l-5.12-9.216-1.024 1.024 5.12 9.216zM880.64 529.411l-12.288-15.36-2.048 1.024 13.312 15.36zM1051.648 700.419l-12.288-15.36-1.024 1.024 12.288 15.36zM897.024 546.819l-12.288-15.36h-1.024l12.288 16.384zM977.92 623.619l-25.6-20.48-1.024 1.024 25.6 20.48zM1034.24 684.035l-14.336-15.36-1.024 1.024 14.336 15.36zM932.864 578.563h-2.048l-3.072 4.096 2.048 1.024zM949.248 598.019l-15.36-14.336-1.024 1.024 15.36 14.336zM922.624 571.395l-23.552-21.504-1.024 1.024 23.552 21.504zM1015.808 666.627l-35.84-37.888-1.024 1.024 35.84 37.888zM783.36 440.323l-16.384-23.552-2.048 1.024 17.408 23.552zM792.576 447.491l-3.072-5.12-1.024 1.024 2.048 4.096h2.048zM802.816 461.827l-2.048-5.12-2.048 1.024 3.072 5.12zM664.576 316.419l-17.408-4.096-1.024 2.048 18.432 4.096v-2.048zM809.984 474.115v-3.072h-1.024v3.072h1.024zM830.464 495.619l-2.048-5.12-2.048 1.024 2.048 4.096 1.024 1.024zM690.176 357.379v-1.024l-5.12 2.048v1.024zM843.776 523.267l-9.216-23.552h-2.048l10.24 23.552h1.024zM851.968 535.555l-3.072-10.24h-1.024l3.072 11.264zM873.472 557.059l-8.192-7.168-1.024 1.024 8.192 7.168zM861.184 548.867l-5.12-11.264h-2.048l6.144 11.264h1.024zM916.48 616.451l-39.936-55.296h-1.024l38.912 56.32zM1052.672 745.475l-7.168-7.168-1.024 1.024 7.168 7.168zM931.84 634.883l-14.336-19.456-1.024 1.024 14.336 19.456zM941.056 645.123l-5.12-10.24-1.024 1.024 5.12 10.24zM966.656 675.843l-20.48-28.672-1.024 1.024 20.48 28.672zM762.88 466.947l-16.384-12.288-1.024 1.024 16.384 12.288zM742.4 449.539l-10.24-9.216-1.024 1.024 10.24 9.216zM992.256 706.563l-20.48-29.696-1.024 1.024 20.48 29.696zM638.976 313.347l-90.112-10.24v1.024l90.112 11.264v-2.048zM1002.496 717.827l-7.168-9.216-2.048 1.024 8.192 9.216zM545.792 301.059v-2.048h-21.504v2.048h21.504zM813.056 588.803l-2.048-5.12-1.024 1.024 2.048 4.096v1.024zM822.272 604.163l-5.12-9.216h-1.024l5.12 9.216h1.024zM837.632 628.739l-12.288-21.504-1.024 1.024 12.288 21.504zM669.696 452.611l-1.024-1.024-7.168 6.144 1.024 1.024zM848.896 638.979l-8.192-10.24h-1.024l8.192 11.264zM882.688 685.059l-33.792-41.984-1.024 1.024 33.792 41.984zM901.12 708.611l-16.384-20.48-1.024 1.024 16.384 20.48zM908.288 720.899l-2.048-7.168h-1.024l2.048 6.144v1.024h1.024zM659.456 464.899l-2.048-1.024q0 1.024-2.56 3.584t-2.56 3.584l2.048 1.024zM914.432 728.067v-3.072h-2.048v3.072h2.048zM488.448 319.491v-3.072h-2.048v3.072h2.048zM771.072 618.499l-2.048-7.168-2.048 1.024 2.048 6.144 1.024 1.024zM449.536 305.155l-1.024-2.048-15.36 8.192 1.024 2.048zM909.312 778.243l-2.048-1.024-4.096 9.216 1.024 1.024zM419.84 275.459q-15.36-17.408-35.84-17.408-6.144 0-13.824 3.072t-7.68 11.264q0 7.168 5.12 14.336-1.024-4.096-0.512-9.216t3.584-8.192l14.336-5.12q4.096 9.216 14.336 9.216h10.24q5.12 0 10.24 2.048zM419.84 317.443l-1.024-1.024-7.168 3.072v2.048zM900.096 789.507v-2.048q-8.192 8.192-13.312 18.432t-12.288 19.456q4.096-2.048 6.656-4.608t7.68-3.584q4.096-7.168 7.68-13.312t3.584-14.336zM599.040 527.363v-3.072h-2.048v3.072h2.048zM612.352 537.603l-9.216-7.168-1.024 2.048 9.216 6.144zM589.824 521.219l-12.288-13.312-1.024 1.024 12.288 13.312zM570.368 504.835v-3.072h-1.024v3.072h1.024zM917.504 845.827l-1.024-1.024-10.24 11.264 1.024 1.024zM864.256 829.443v-3.072h-1.024v3.072h1.024zM903.168 863.235l-1.024-1.024-14.336 13.312 1.024 1.024zM366.592 338.947l-1.024-2.048-11.264 8.192 1.024 1.024zM430.080 408.579l-1.024-1.024-4.096 1.024h-1.024l1.024 2.048zM732.16 723.971v-3.072h-2.048v3.072h2.048zM849.92 834.563l-1.024-2.048-14.336 6.144 1.024 2.048zM421.888 412.675l-1.024-1.024-23.552 6.144 1.024 1.024zM748.544 797.699q-2.048-17.408-6.144-33.792t-6.144-33.792h-2.048l-1.024 33.792q6.144 8.192 8.704 16.896t4.608 17.92zM347.136 349.187v-1.024l-31.744 12.288v1.024zM392.192 418.819v-3.072h-2.048v3.072h2.048zM384 423.939v-7.168h-2.048v7.168h2.048zM663.552 697.347h-2.048l-3.072 6.144 1.024 1.024zM374.784 423.939v-2.048l-18.432 4.096v1.024zM656.384 713.731v-2.048l-7.168 3.072h-1.024l1.024 2.048zM1072.128 711.683q-5.12-2.048-9.216-4.608t-9.216-2.56l-3.072 1.024q4.096 6.144 1.536 11.264t-8.192 9.216-12.8 6.656-11.264 4.608q-3.072-5.12-9.216-9.728t-12.288-4.608h-2.048l-179.2-156.672q-5.12-1.024-13.312-3.072 9.216 11.264 28.672 33.792t39.936 48.128 36.352 49.152 17.92 34.816l-5.12 5.12 6.144 8.192-1.024 16.384 10.24 4.096t8.192 5.12l-8.192 6.144q-6.144 0-8.704-7.168t-3.584-12.288l-9.216 5.12q-8.192 0-15.872-6.144t-13.824-11.264q1.024 8.192 5.632 11.776t9.216 6.144 8.192 5.632 3.584 9.216l-1.024 5.12q2.048-2.048 5.12-4.608t6.144-2.56l15.36 15.36q-13.312 8.192-25.6 14.336t-21.504 20.48l-13.312 7.168q0-2.048-1.536-5.12l-2.56-5.12q-5.12 12.288-14.848 22.528t-24.064 10.24q-8.192 0-15.36-3.072 5.12-4.096 11.264-5.12v-2.048q-18.432 3.072-36.864 3.072-3.072-4.096-9.728-9.216t-12.8-9.728-11.264-8.704-5.12-8.192l1.024-4.096q-3.072 5.12-4.096 10.24t-1.536 10.752-2.56 10.24-7.168 7.68q-5.12 0-8.704-2.048t-7.68-4.096v-129.024l8.192 10.24q1.024-4.096 1.024-7.168v-17.408q9.216-1.024 19.456-9.728t13.312-16.896q30.72 21.504 60.928 42.496t62.976 38.4q-24.576-23.552-52.224-42.496t-55.296-39.424q10.24-6.144 18.944-14.848t13.824-19.968h-14.336q-6.144 0-13.312-2.048l-5.12 3.072q-3.072-4.096-5.632-7.68t-7.68-5.632l3.072 15.36q-9.216-2.048-15.872-1.536t-15.872 3.584l-6.144-6.144t-7.168-6.144l11.264-5.12 3.072-9.216-6.144-3.072q-2.048-4.096-5.12-3.072t-5.12-3.072q2.048-1.024 6.656-2.56t6.656-1.536q14.336 0 21.504 13.312l11.264-5.12q6.144 0 12.288 9.728t10.24 14.848q1.024-7.168 2.048-18.432t2.56-22.528 4.608-20.992 9.216-14.848q-8.192-9.216-11.776-24.064t-5.632-26.112q5.12-2.048 9.728-4.096t8.704-6.144q-10.24-2.048-18.944-5.632t-16.896-6.656q-3.072 5.12-10.24 6.656t-15.36 2.048-16.896 0-12.8 0.512q-2.048-2.048-5.12-2.048-2.048 0-5.12-1.024 6.144-3.072 6.144-11.264 0-4.096-3.072-9.216v-9.216q4.096 5.12 10.752 14.848t12.8 9.728q2.048 0 6.144-2.048-7.168-12.288-17.92-21.504t-16.896-22.528l9.216 6.144q-1.024-3.072-1.024-11.264l3.072 4.096 7.168 3.072-8.192-10.24t-9.216-10.24l7.168-11.264q-4.096-3.072-10.24-11.264 11.264-6.144 23.040-11.264t24.064-7.168l-2.048-10.24q-29.696-23.552-43.008-46.592t-12.288-61.952v-5.12l-13.312 7.168q7.168 12.288 7.168 24.576 0 21.504-7.168 36.864l5.12 2.048q3.072 3.072 3.072 4.096 0 4.096-2.048 6.144-6.144-2.048-6.144 5.12 0 5.12 3.072 10.24t3.072 10.24-5.12 5.12q-10.24 0-17.408-1.024t-17.408 3.072q14.336 14.336 26.112 31.232t4.608 37.376q3.072 3.072 3.072 10.24 0 8.192-4.096 15.872t-4.096 15.872q0 4.096 2.048 10.24-8.192 3.072-17.408 6.656t-18.432 3.584q-8.192 0-15.36-1.024t-15.36 1.024q11.264 10.24 14.336 32.256t3.072 35.328q0 17.408-3.584 38.912t-16.896 34.816q4.096 3.072 13.824 9.216t19.456 12.8 16.896 13.824 7.168 13.312l-1.024 4.096 10.24 4.096t7.168 7.168q0 3.072-3.584 11.776t-8.192 18.944-8.192 22.016-4.608 20.992q2.048 0 4.096 1.024t2.048 3.072q-4.096 2.048-8.192 4.608t-7.168 6.656l-9.216-9.216q3.072 8.192 7.68 14.336t9.728 13.312l-8.192-4.096q-6.144 16.384-9.216 29.696-14.336-2.048-24.576-1.536t-24.576 4.608q-3.072-5.12-6.656-9.728t-5.632-9.728q-5.12 0-9.728 4.096t-6.656 8.192q-4.096 0-8.192-2.048 2.048-5.12 4.096-9.216t6.144-6.144q0-7.168 0.512-19.456t2.048-25.6 4.096-24.576 6.656-17.408l12.288 3.072q-3.072-2.048-6.656-5.632t-4.608-7.68q2.048-18.432 1.536-37.376t-0.512-38.4l7.168-12.288h6.144l10.24-3.072q-9.216-2.048-22.016-3.584t-26.624-3.072-25.6-4.608-18.944-8.192l4.096-8.192t4.096-9.216q-5.12 0-10.752-0.512t-4.608-7.68v-3.072q13.312 2.048 22.528 4.608t16.896 7.168 13.824 12.8 12.288 20.48q0-11.264 3.584-20.48t3.584-18.432q0-8.192-6.144-14.336l6.144-7.168q-3.072-1.024-5.12-6.144t-3.072-10.752-1.024-10.752v-8.192q0-3.072 0.512-12.8t2.048-20.48 4.096-18.944 5.632-9.216v-2.048q-13.312 0-26.112 1.536t-26.112 0.512q-5.12-5.12-9.728-11.776t-11.776-9.728q-5.12-17.408-11.776-35.84t-9.728-36.864q11.264-12.288 25.088-20.992t24.064-23.040q-12.288 0-24.576 2.048t-19.456-12.288q1.024 3.072 0.512 7.168t-2.56 7.168l-8.192-12.288q4.096-8.192 11.264-8.192l-10.24-2.048q8.192 3.072 9.216-3.072t1.024-11.264q6.144 2.048 12.288 1.536t12.288 0.512v-1.024q-21.504 3.072-28.672-4.096t-7.168-27.648q0-13.312 0.512-27.648t-4.608-26.624l-3.072 9.216t-1.024 8.192q-20.48 0-34.304 12.288t-12.8 33.792q8.192-8.192 15.36-18.432t21.504-10.24l10.24 1.024v35.84q-5.12 5.12-8.704 12.288t-4.608 14.336q5.12-9.216 14.336-9.216-3.072 8.192-1.024 19.456-2.048 4.096-4.096 7.68t-3.072 8.704q-4.096-6.144-7.168-7.168-4.096 6.144-12.8 8.192t-14.848 2.048q8.192 8.192 19.968 16.896t11.776 22.016q0 6.144-2.048 8.192l2.048 1.024 5.12-14.336 7.168 2.048q-2.048 11.264-5.12 15.872t-8.192 7.168-11.264 4.096-13.312 6.656l1.024 1.024q5.12-3.072 14.848 0t14.848 5.12q-4.096 7.168-10.24 14.336t-6.144 15.36l1.024 3.072q6.144-6.144 8.192-10.24v38.912q3.072-13.312 4.096-30.208t8.192-27.136q-1.024 14.336-1.536 27.648t-2.56 27.648l-17.408 1.024-8.192-3.072q2.048-4.096 5.12-7.68t3.072-8.704q0-4.096-1.024-7.168-6.144 17.408-12.8 23.552t-14.848 8.192-18.432 1.536-23.552 2.56q11.264 5.12 19.456 10.24-2.048 11.264 4.608 21.504t11.776 20.48l2.048 25.6q0 10.24-1.024 21.504t-4.608 21.504-10.752 18.944-17.408 12.8q16.384 11.264 23.040 29.696t6.656 37.888q0 29.696-11.264 58.368l-10.24-6.144q-7.168-11.264-13.824-24.576t-18.944-19.456q2.048-5.12 0-9.216t-8.192-4.096l1.024-6.144q-12.288-16.384-23.040-32.256t-20.992-34.304l7.168-4.096q5.12-8.192 9.216-15.872t9.216-15.872q-9.216-12.288-9.216-28.672 0-19.456 11.264-35.328t25.6-27.136q-14.336 1.024-27.648 0.512t-26.624-3.584q5.12-5.12 4.608-8.704t-2.56-8.704l4.096-10.24 7.168 33.792v-20.48t2.048-20.48h12.288q-13.312-4.096-13.312-18.432 0-8.192-0.512-15.36t-5.632-13.312q8.192-8.192 13.824-19.456t8.704-22.528h-23.552q0-14.336-2.048-27.648t-2.048-27.648v-10.24t2.048-10.24l-14.336 2.048q5.12 20.48 2.048 35.328t-4.096 35.328q5.12 0 8.192-3.072l-1.024 10.24q-7.168-1.024-16.896 2.048t-14.848 10.24q10.24 1.024 13.312 4.608t3.584 9.216 0 11.776 2.56 12.288q-10.24 8.192-9.728 25.088t0.512 28.16q3.072-10.24 4.608-19.968t3.584-19.968l1.024 10.24q1.024 8.192 0 14.848t-2.048 14.848q5.12-3.072 5.632-8.192t2.56-10.24q2.048 8.192 3.584 15.36t1.536 15.36q0 12.288-10.24 12.288h-3.072v-14.336q-8.192 6.144-15.36 12.8t-15.36 11.776q5.12 1.024 8.192 5.12t5.12 8.192q0 6.144-4.608 9.728t-9.728 4.608q9.216 0 13.312 5.12l-6.144 10.24q0 3.072 2.56 5.632t2.56 5.632v2.048l-5.12-1.024q-2.048-5.12-4.608-10.752t-6.656-8.704q5.12-5.12 7.168-5.632l2.048-0.512-1.024-2.048q-6.144 4.096-11.264 0.512t-10.24-10.24-8.704-13.824-6.656-11.264q0 8.192 2.048 15.872t2.048 15.872q-10.24 1.024-20.48 1.024t-20.48 2.048q4.096 8.192-1.536 14.848t-10.752 11.776l-2.048 8.192 14.336 1.024q14.336 0 23.552-4.096 1.024 2.048 1.024 8.192 0 14.336-8.192 37.888t-19.968 48.128-25.6 45.568-25.088 30.208l-2.048-4.096q0-5.12 4.096-6.656t6.144-5.632l-3.072-17.408h-2.048l-1.024 5.12h-3.072q-8.192 1.024-12.8-6.144t-4.608-14.336l1.024-5.12q4.096 4.096 6.656 9.216t4.608 10.24l1.024-6.144q0-7.168-5.632-18.432t-12.8-24.576-12.288-27.648-5.12-27.648v-1.024q-8.192 0-18.432 4.096l5.12 14.336q-10.24 11.264-20.992 14.848t-22.016 11.776v60.416q15.36-8.192 31.744-15.872t30.72-17.92q7.168 14.336 7.68 31.232t1.536 33.28l14.336 2.048q-3.072 9.216-8.192 17.92t-5.12 18.944q0 6.144 4.096 14.336l-7.168 7.168v3.072q4.096 11.264 3.584 17.92t-11.776 14.848q11.264 4.096 14.336 13.312-2.048 3.072-5.12 11.264t-3.072 10.24q0 8.192 8.704 12.8t13.824 6.656q1.024 7.168 3.584 13.312t5.632 12.288q3.072 0 8.704-0.512t11.776-0.512q7.168 0 12.288 1.024t7.168 3.072q-8.192 4.096-15.872 7.68t-15.872 7.68q0 7.168-0.512 13.824t-0.512 13.824q0 21.504 13.312 43.008h-107.52l-1.024 10.24 1.024 6.144q26.624 0 54.272 1.536t54.272 1.536h144.384q5.12-5.12 12.8-6.144t13.824-1.024q161.792 0 322.048 2.048t322.048 3.072q4.096 0 10.752-6.656l8.704-8.704h-246.784q5.12-4.096 16.384-15.36t24.064-23.040 24.064-20.48 16.384-8.704h3.072l4.096-13.312 11.264 2.048q1.024-7.168 8.192-12.8t16.384-11.264 17.92-10.752 11.776-13.312l-10.24 4.096q-1.024-3.072-2.048-6.656t-1.024-6.656q0-14.336 10.752-23.552t18.944-17.408q4.096 3.072 8.192-0.512t8.192-8.704 8.704-9.728 9.728-4.608l7.168 1.024q-3.072 2.048-4.608 6.144t-3.584 6.144l-4.096-7.168-11.264 8.192 4.096 2.048t4.096 0q-4.096 5.12-8.192 9.216t-9.216 7.168l1.024 2.048q14.336-7.168 25.6-16.896t25.6-17.92q3.072 5.12 6.656 10.752t6.656 10.752q-6.144 3.072-19.968 11.264t-29.184 17.408-27.648 17.408-14.336 11.264q30.72-10.24 51.712-22.016t36.864-27.648 29.696-35.328 30.208-45.056l-2.048-1.024q-11.264 14.336-25.088 30.208t-20.992 34.304q-5.12-5.12-9.728-12.288t-4.608-15.36q0-3.072 2.048-7.168t6.144-4.096q3.072 0 6.144 1.024l6.144 2.048q8.192-20.48 30.208-40.448t40.448-30.208zM352.256 430.083v-2.048h-8.192v2.048h8.192zM340.992 432.131v-2.048l-16.384 6.144v2.048zM646.144 726.019l-1.024-6.144q-5.12 7.168-8.704 12.8t-6.656 13.824l-9.216 6.144-7.168 1.024q-7.168 0-11.264-2.048 4.096 5.12 7.68 8.704t6.656 8.704q-4.096 5.12-7.168 9.728t-4.096 10.752q6.144-9.216 17.408-15.36 2.048 2.048 4.608 3.072t4.608 2.048q-2.048-3.072-4.608-6.144t-3.584-7.168q5.12-9.216 13.824-18.944t8.704-20.992zM395.264 526.339l-21.504-20.48-1.024 1.024 21.504 20.48zM346.112 478.211l-6.144-6.144-1.024 1.024q2.048 2.048 3.072 4.096t3.072 2.048zM350.208 484.355v-2.048h-1.024v2.048h1.024zM367.616 499.715l-10.24-9.216-1.024 1.024 10.24 9.216zM334.848 473.091v-7.168h-1.024v7.168h1.024zM589.824 734.211v-2.048h-1.024v2.048h1.024zM603.136 747.523l-11.264-9.216-1.024 1.024 11.264 9.216zM612.352 768.003l-1.024-1.024-7.168 6.144 1.024 1.024zM604.16 789.507l-1.024-1.024-7.168 6.144 1.024 1.024zM588.8 791.555l-1.024-1.024-5.12 4.096 1.024 1.024zM277.504 488.451v-3.072h-1.024v3.072h1.024zM584.704 811.011v-3.072h-1.024v3.072h1.024zM328.704 634.883l-11.264-12.288-2.048 1.024 12.288 12.288zM356.352 663.555l-22.528-22.528-1.024 1.024 22.528 22.528zM390.144 698.371l-5.12-6.144-1.024 1.024q2.048 2.048 2.56 4.096t2.56 2.048zM372.736 684.035l-6.144-9.216-2.048 1.024 6.144 9.216zM726.016 362.499h-20.48l-2.048-6.144q2.048-2.048 2.56-6.144t0.512-6.144l-5.12-11.264q10.24 3.072 14.848 12.288t9.728 17.408zM1014.784 743.427q-3.072 2.048-9.216 4.096t-12.288 5.12-10.24 6.656-4.096 7.68q-6.144-1.024-12.288-1.536t-11.264 0.512l-2.048 3.072q-2.048-5.12-5.632-10.24t-6.656-10.24q8.192-8.192 20.992-10.24t23.040-2.048q7.168 0 15.36 1.024t14.336 6.144zM697.344 487.427l-12.288 4.096q1.024-9.216 0-18.432l8.192-10.24q2.048 6.144 2.56 12.288t1.536 12.288zM694.272 635.907h-3.072q-8.192 0-11.264-2.048l9.216-6.144zM693.248 603.139q-10.24 5.12-19.456 5.12h-2.048q0 2.048-1.024 4.608t-1.024 4.608l15.36 4.096-13.312 16.384q-7.168-4.096-13.312-3.584t-13.312-0.512q5.12-13.312 17.92-20.992t24.064-15.872zM514.048 466.947q-5.12 2.048-11.776 3.072t-12.8 1.024l-1.024-12.288-6.144-7.168v-20.48q12.288 4.096 18.432 15.36t13.312 20.48zM707.584 824.323q-2.048 5.12-4.096 8.704t-4.096 7.68q-4.096-4.096-12.8-10.752t-8.704-12.8q0-3.072 2.048-7.168l10.24-1.024q-4.096 6.144-8.192 7.168 1.024 8.192 7.168 13.312 2.048-1.024 5.12-16.384t5.632-33.792 5.12-34.816 2.56-20.48h-3.072zM493.568 585.731l-9.216 1.024 4.096-9.216 3.072 2.048zM521.216 624.643q-7.168 1.024-13.824 2.048t-13.824 1.024l-2.048-10.24q7.168-1.024 15.872 1.024t13.824 6.144zM663.552 830.467l-14.336-2.048v-9.216l14.336 1.024v10.24zM455.68 610.307q-5.12 2.048-13.824 7.68t-9.728 11.776l-21.504-2.048q4.096-5.12 8.704-12.288t12.8-7.168l5.12 1.024 2.048-8.192zM296.96 570.371l-8.192 11.264-14.336 5.12q-1.024-1.024-1.024-6.144 0-9.216 1.536-18.432t3.584-18.432q11.264 6.144 17.408 18.432l-8.192 4.096zM544.768 788.483q0 14.336-12.8 27.648t-27.136 14.336v-17.408q9.216 4.096 20.48 7.168-8.192-5.12-16.384-14.336t-7.168-20.48l1.024-7.168q11.264 2.048 20.992 5.12t20.992 5.12zM497.664 826.371l-10.24 2.048v-16.384t-2.048-16.384q8.192 5.12 9.216 13.824t3.072 16.896zM467.968 795.651q0 5.12-1.024 10.24t-5.12 8.192q2.048 3.072 3.072 6.656t3.072 7.68h-22.528v-37.888l4.096-5.12 1.024-2.048 1.024 3.072v6.144l1.024 1.024q7.168 0 8.192-7.168t1.024-11.264q4.096 4.096 5.12 9.728t1.024 10.752zM434.176 791.555l-1.024 3.072-5.12 4.096-2.048-6.144-6.144-4.096zM393.216 765.955q-2.048 4.096-6.656 10.752t-10.752 12.8-12.288 10.24-11.264 4.096l-2.048-1.024q-3.072-5.12-10.752-10.24t-13.824-5.12h-2.048l-13.312-7.168q0-29.696-1.024-59.904t-1.024-59.904q16.384 14.336 31.232 35.328t29.184 38.4q-5.12 11.264 5.12 17.408t14.336 13.312zM408.576 815.107l-14.336 11.264q0-4.096-2.048-8.192l-6.144 6.144q-8.192-4.096-21.504-2.048l-8.192-12.288q13.312-5.12 26.624-8.192t25.6-10.24v23.552zM292.864 778.243v4.096q-12.288-3.072-19.456-8.192l6.144-8.192q4.096 2.048 9.216 4.096t4.096 8.192zM194.56 742.403l-8.192 10.24-16.384-4.096h17.408l-7.168-7.168zM197.632 954.371l-6.144-7.168 5.12-5.12zM450.56 819.203v-3.072h-2.048v3.072h2.048zM368.64 757.763l-1.024-1.024-7.168 6.144 1.024 1.024zM397.312 816.131l-1.024-1.024 1.024-16.384-1.024-1.024h-1.024v18.432h2.048zM360.448 766.979l-14.336-3.072-4.096 19.456q5.12-4.096 9.728-8.192t8.704-8.192zM324.608 768.003l-2.048-1.024-2.048 4.096 1.024 1.024zM329.728 779.267v-3.072h-2.048v3.072h2.048z" />
</svg>
