<!-- Generated by IcoMoon.io -->
<svg version="1.1" xmlns="http://www.w3.org/2000/svg" width="1008" height="1024" viewBox="0 0 1008 1024">
<title></title>
<g id="icomoon-ignore">
</g>
<path d="M641.038 289.91l-0.97-0.97-5.809 0.97h-0.97v1.939zM739.838 472.009l-43.586-56.184-0.97 0.97 43.586 56.184zM693.343 428.424l-2.909-8.719-0.97 0.97 2.909 7.749h0.97zM747.587 483.632l-4.839-9.689h-1.939l5.809 9.689h0.97zM765.024 501.069l-1.939-6.78h-1.939l1.939 6.78h1.939zM757.273 494.287l-4.839-8.719-0.97 0.97 4.839 8.719zM624.571 357.711l-8.719-4.839-0.97 1.939 8.719 3.874zM701.092 440.045l-2.909-8.719-0.97 0.97 2.909 8.719zM771.804 510.756v-1.939h-0.97v1.939h0.97zM705.939 445.855v-2.909h-1.939v2.909h1.939zM797.96 538.845l-5.809-8.719h-0.97l4.839 8.719h1.939zM781.493 522.376l-4.839-8.719-0.97 0.97 4.839 8.719zM814.427 556.281l-11.623-14.528-1.939 0.97 12.589 14.528zM976.187 718.043l-11.623-14.528-0.97 0.97 11.623 14.528zM829.925 572.748l-11.623-14.528h-0.97l11.623 15.498zM906.447 645.393l-24.217-19.371-0.97 0.97 24.217 19.371zM959.723 702.544l-13.559-14.528-0.97 0.97 13.559 14.528zM863.824 602.776h-1.939l-2.909 3.874 1.939 0.97zM879.322 621.18l-14.528-13.559-0.97 0.97 14.528 13.559zM854.138 595.996l-22.278-20.338-0.97 0.97 22.278 20.338zM942.284 686.077l-33.905-35.836-0.97 0.97 33.905 35.836zM722.407 472.009l-15.498-22.278-1.939 0.97 16.469 22.278zM731.12 478.791l-2.909-4.839-0.97 0.97 1.939 3.874h1.939zM740.808 492.35l-1.939-4.839-1.939 0.97 2.909 4.839zM610.042 354.804l-16.469-3.874-0.97 1.939 17.438 3.874v-1.939zM747.587 503.976v-2.909h-0.97v2.909h0.97zM766.963 524.316l-1.939-4.839-1.939 0.97 1.939 3.874 0.97 0.97zM634.257 393.55v-0.97l-4.839 1.939v0.97zM779.553 550.471l-8.719-22.278h-1.939l9.689 22.278h0.97zM787.302 562.092l-2.909-9.689h-0.97l2.909 10.659zM807.645 582.437l-7.749-6.78-0.97 0.97 7.749 6.78zM796.021 574.688l-4.839-10.659h-1.939l5.809 10.659h0.97zM848.326 638.614l-37.776-52.304h-0.97l36.806 53.275zM977.154 760.661l-6.78-6.78-0.97 0.97 6.78 6.78zM862.855 656.049l-13.559-18.408-0.97 0.97 13.559 18.408zM871.572 665.738l-4.839-9.689-0.97 0.97 4.839 9.689zM895.789 694.796l-19.371-27.119-0.97 0.97 19.371 27.119zM703.030 497.197l-15.498-11.623-0.97 0.97 15.498 11.623zM683.661 480.728l-9.689-8.719-0.97 0.97 9.689 8.719zM920.007 723.852l-19.371-28.087-0.97 0.97 19.371 28.087zM585.824 351.902l-85.24-9.689v0.97l85.24 10.659v-1.939zM929.693 734.511l-6.78-8.719-1.939 0.97 7.749 8.719zM497.682 340.276v-1.939h-20.338v1.939h20.338zM750.495 612.465l-1.939-4.839-0.97 0.97 1.939 3.874v0.97zM759.214 626.993l-4.839-8.719h-0.97l4.839 8.719h0.97zM773.743 650.24l-11.623-20.338-0.97 0.97 11.623 20.338zM614.889 483.632l-0.97-0.97-6.78 5.809 0.97 0.97zM784.398 659.922l-7.749-9.689h-0.97l7.749 10.659zM816.36 703.514l-31.967-39.716-0.97 0.97 31.967 39.716zM833.797 725.792l-15.498-19.371-0.97 0.97 15.498 19.371zM840.577 737.413l-1.939-6.78h-0.97l1.939 5.809v0.97h0.97zM605.2 495.257l-1.939-0.97q0 0.97-2.424 3.393t-2.424 3.393l1.939 0.97zM846.388 744.195v-2.909h-1.939v2.909h1.939zM443.438 357.711v-2.909h-1.939v2.909h1.939zM710.779 640.551l-1.939-6.78-1.939 0.97 1.939 5.809 0.97 0.97zM406.632 344.153l-0.97-1.939-14.528 7.749 0.97 1.939zM841.546 791.658l-1.939-0.97-3.874 8.719 0.97 0.97zM378.537 316.059q-14.528-16.469-33.905-16.469-5.809 0-13.074 2.909t-7.265 10.659q0 6.78 4.839 13.559-0.97-3.874-0.485-8.719t3.393-7.749l13.559-4.839q3.874 8.719 13.559 8.719h9.689q4.839 0 9.689 1.939zM378.537 355.774l-0.97-0.97-6.78 2.909v1.939zM832.828 802.315v-1.939q-7.749 7.749-12.589 17.438t-11.623 18.408q3.874-1.939 6.294-4.355t7.265-3.393q3.874-6.78 7.265-12.589t3.393-13.559zM548.049 554.342v-2.909h-1.939v2.909h1.939zM560.644 564.029l-8.719-6.78-0.97 1.939 8.719 5.809zM539.329 548.531l-11.623-12.589-0.97 0.97 11.623 12.589zM520.929 533.032v-2.909h-0.97v2.909h0.97zM849.294 855.588l-0.97-0.97-9.689 10.659 0.97 0.97zM798.929 840.090v-2.909h-0.97v2.909h0.97zM835.736 872.057l-0.97-0.97-13.559 12.589 0.97 0.97zM328.171 376.115l-0.97-1.939-10.659 7.749 0.97 0.97zM388.226 441.983l-0.97-0.97-3.874 0.97h-0.97l0.97 1.939zM673.973 740.32v-2.909h-1.939v2.909h1.939zM785.364 844.932l-0.97-1.939-13.559 5.809 0.97 1.939zM380.477 445.855l-0.97-0.97-22.278 5.809 0.97 0.97zM689.471 810.064q-1.939-16.469-5.809-31.967t-5.809-31.967h-1.939l-0.97 31.967q5.809 7.749 8.234 15.983t4.355 16.953zM309.764 385.801v-0.97l-30.027 11.623v0.97zM352.387 451.672v-2.909h-1.939v2.909h1.939zM344.639 456.511v-6.78h-1.939v6.78h1.939zM609.072 715.135h-1.939l-2.909 5.809 0.97 0.97zM335.92 456.511v-1.939l-17.438 3.874v0.97zM602.293 730.633v-1.939l-6.78 2.909h-0.97l0.97 1.939zM995.559 728.697q-4.839-1.939-8.719-4.355t-8.719-2.424l-2.909 0.97q3.874 5.809 1.455 10.659t-7.749 8.719-12.104 6.294-10.659 4.355q-2.909-4.839-8.719-9.204t-11.623-4.355h-1.939l-169.512-148.204q-4.839-0.97-12.589-2.909 8.719 10.659 27.119 31.967t37.776 45.525 34.386 46.495 16.953 32.936l-4.839 4.839 5.809 7.749-0.97 15.498 9.689 3.874t7.749 4.839l-7.749 5.809q-5.809 0-8.234-6.78t-3.393-11.623l-8.719 4.839q-7.749 0-15.013-5.809t-13.074-10.659q0.97 7.749 5.324 11.141t8.719 5.809 7.749 5.324 3.393 8.719l-0.97 4.839q1.939-1.939 4.839-4.355t5.809-2.424l14.528 14.528q-12.589 7.749-24.217 13.559t-20.338 19.371l-12.589 6.78q0-1.939-1.455-4.839l-2.424-4.839q-4.839 11.623-14.043 21.308t-22.763 9.689q-7.749 0-14.528-2.909 4.839-3.874 10.659-4.839v-1.939q-17.438 2.909-34.868 2.909-2.909-3.874-9.204-8.719t-12.104-9.204-10.659-8.234-4.839-7.749l0.97-3.874q-2.909 4.839-3.874 9.689t-1.455 10.174-2.424 9.689-6.78 7.265q-4.839 0-8.234-1.939t-7.265-3.874v-122.047l7.749 9.689q0.97-3.874 0.97-6.78v-16.469q8.719-0.97 18.408-9.204t12.589-15.983q29.057 20.338 57.632 40.201t59.569 36.321q-23.247-22.278-49.402-40.201t-52.304-37.291q9.689-5.809 17.923-14.043t13.074-18.89h-13.559q-5.809 0-12.589-1.939l-4.839 2.909q-2.909-3.874-5.324-7.265t-7.265-5.324l2.909 14.528q-8.719-1.939-15.013-1.455t-15.013 3.393l-5.809-5.809t-6.78-5.809l10.659-4.839 2.909-8.719-5.809-2.909q-1.939-3.874-4.839-2.909t-4.839-2.909q1.939-0.97 6.294-2.424t6.294-1.455q13.559 0 20.338 12.589l10.659-4.839q5.809 0 11.623 9.204t9.689 14.043q0.97-6.78 1.939-17.438t2.424-21.308 4.355-19.854 8.719-14.043q-7.749-8.719-11.141-22.763t-5.324-24.702q4.839-1.939 9.204-3.874t8.234-5.809q-9.689-1.939-17.923-5.324t-15.983-6.294q-2.909 4.839-9.689 6.294t-14.528 1.939-15.983 0-12.104 0.485q-1.939-1.939-4.839-1.939-1.939 0-4.839-0.97 5.809-2.909 5.809-10.659 0-3.874-2.909-8.719v-8.719q3.874 4.839 10.174 14.043t12.104 9.204q1.939 0 5.809-1.939-6.78-11.623-16.953-20.338t-15.983-21.308l8.719 5.809q-0.97-2.909-0.97-10.659l2.909 3.874 6.78 2.909-7.749-9.689t-8.719-9.689l6.78-10.659q-3.874-2.909-9.689-10.659 10.659-5.809 21.793-10.659t22.763-6.78l-1.939-9.689q-28.087-22.278-40.686-44.071t-11.623-58.599v-4.839l-12.589 6.78q6.78 11.623 6.78 23.247 0 20.338-6.78 34.868l4.839 1.939q2.909 2.909 2.909 3.874 0 3.874-1.939 5.809-5.809-1.939-5.809 4.839 0 4.839 2.909 9.689t2.909 9.689-4.839 4.839q-9.689 0-16.469-0.97t-16.469 2.909q13.559 13.559 24.702 29.541t4.355 35.351q2.909 2.909 2.909 9.689 0 7.749-3.874 15.013t-3.874 15.013q0 3.874 1.939 9.689-7.749 2.909-16.469 6.294t-17.438 3.393q-7.749 0-14.528-0.97t-14.528 0.97q10.659 9.689 13.559 30.512t2.909 33.421q0 16.469-3.393 36.806t-15.983 32.936q3.874 2.909 13.074 8.719t18.408 12.104 15.983 13.074 6.78 12.589l-0.97 3.874 9.689 3.874t6.78 6.78q0 2.909-3.393 11.141t-7.749 17.923-7.749 20.823-4.355 19.854q1.939 0 3.874 0.97t1.939 2.909q-3.874 1.939-7.749 4.355t-6.78 6.294l-8.719-8.719q2.909 7.749 7.265 13.559t9.204 12.589l-7.749-3.874q-5.809 15.498-8.719 28.087-13.559-1.939-23.247-1.455t-23.247 4.355q-2.909-4.839-6.294-9.204t-5.324-9.204q-4.839 0-9.204 3.874t-6.294 7.749q-3.874 0-7.749-1.939 1.939-4.839 3.874-8.719t5.809-5.809q0-6.78 0.485-18.408t1.939-24.217 3.874-23.247 6.294-16.469l11.623 2.909q-2.909-1.939-6.294-5.324t-4.355-7.265q1.939-17.438 1.455-35.351t-0.485-36.321l6.78-11.623h5.809l9.689-2.909q-8.719-1.939-20.823-3.393t-25.187-2.909-24.217-4.355-17.923-7.749l3.874-7.749t3.874-8.719q-4.839 0-10.174-0.485t-4.355-7.265v-2.909q12.589 1.939 21.308 4.355t15.983 6.78 13.074 12.104 11.623 19.371q0-10.659 3.393-19.371t3.393-17.438q0-7.749-5.809-13.559l5.809-6.78q-2.909-0.97-4.839-5.809t-2.909-10.174-0.97-10.174v-7.749q0-2.909 0.485-12.104t1.939-19.371 3.874-17.923 5.324-8.719v-1.939q-12.589 0-24.702 1.455t-24.702 0.485q-4.839-4.839-9.204-11.141t-11.141-9.204q-4.839-16.469-11.141-33.905t-9.204-34.868q10.659-11.623 23.732-19.854t22.763-21.793q-11.623 0-23.247 1.939t-18.408-11.623q0.97 2.909 0.485 6.78t-2.424 6.78l-7.749-11.623q3.874-7.749 10.659-7.749l-9.689-1.939q7.749 2.909 8.719-2.909t0.97-10.659q5.809 1.939 11.623 1.455t11.623 0.485v-0.97q-20.338 2.909-27.119-3.874t-6.78-26.156q0-12.589 0.485-26.156t-4.355-25.187l-2.909 8.719t-0.97 7.749q-19.371 0-32.451 11.623t-12.104 31.967q7.749-7.749 14.528-17.438t20.338-9.689l9.689 0.97v33.905q-4.839 4.839-8.234 11.623t-4.355 13.559q4.839-8.719 13.559-8.719-2.909 7.749-0.97 18.408-1.939 3.874-3.874 7.265t-2.909 8.234q-3.874-5.809-6.78-6.78-3.874 5.809-12.104 7.749t-14.043 1.939q7.749 7.749 18.89 15.983t11.141 20.823q0 5.809-1.939 7.749l1.939 0.97 4.839-13.559 6.78 1.939q-1.939 10.659-4.839 15.013t-7.749 6.78-10.659 3.874-12.589 6.294l0.97 0.97q4.839-2.909 14.043 0t14.043 4.839q-3.874 6.78-9.689 13.559t-5.809 14.528l0.97 2.909q5.809-5.809 7.749-9.689v36.806q2.909-12.589 3.874-28.572t7.749-25.672q-0.97 13.559-1.455 26.156t-2.424 26.156l-16.469 0.97-7.749-2.909q1.939-3.874 4.839-7.265t2.909-8.234q0-3.874-0.97-6.78-5.809 16.469-12.104 22.278t-14.043 7.749-17.438 1.455-22.278 2.424q10.659 4.839 18.408 9.689-1.939 10.659 4.355 20.338t11.141 19.371l1.939 24.217q0 9.689-0.97 20.338t-4.355 20.338-10.174 17.923-16.469 12.104q15.498 10.659 21.793 28.087t6.294 35.836q0 28.087-10.659 55.214l-9.689-5.809q-6.78-10.659-13.074-23.247t-17.923-18.408q1.939-4.839 0-8.719t-7.749-3.874l0.97-5.809q-11.623-15.498-21.793-30.512t-19.854-32.451l6.78-3.874q4.839-7.749 8.719-15.013t8.719-15.013q-8.719-11.623-8.719-27.119 0-18.408 10.659-33.421t24.217-25.672q-13.559 0.97-26.156 0.485t-25.187-3.393q4.839-4.839 4.355-8.234t-2.424-8.234l3.874-9.689 6.78 31.967v-19.371t1.939-19.371h11.623q-12.589-3.874-12.589-17.438 0-7.749-0.485-14.528t-5.324-12.589q7.749-7.749 13.074-18.408t8.234-21.308h-22.278q0-13.559-1.939-26.156t-1.939-26.156v-9.689t1.939-9.689l-13.559 1.939q4.839 19.371 1.939 33.421t-3.874 33.421q4.839 0 7.749-2.909l-0.97 9.689q-6.78-0.97-15.983 1.939t-14.043 9.689q9.689 0.97 12.589 4.355t3.393 8.719 0 11.141 2.424 11.623q-9.689 7.749-9.204 23.732t0.485 26.638q2.909-9.689 4.355-18.89t3.393-18.89l0.97 9.689q0.97 7.749 0 14.043t-1.939 14.043q4.839-2.909 5.324-7.749t2.424-9.689q1.939 7.749 3.393 14.528t1.455 14.528q0 11.623-9.689 11.623h-2.909v-13.559q-7.749 5.809-14.528 12.104t-14.528 11.141q4.839 0.97 7.749 4.839t4.839 7.749q0 5.809-4.355 9.204t-9.204 4.355q8.719 0 12.589 4.839l-5.809 9.689q0 2.909 2.424 5.324t2.424 5.324v1.939l-4.839-0.97q-1.939-4.839-4.355-10.174t-6.294-8.234q4.839-4.839 6.78-5.324l1.939-0.485-0.97-1.939q-5.809 3.874-10.659 0.485t-9.689-9.689-8.234-13.074-6.294-10.659q0 7.749 1.939 15.013t1.939 15.013q-9.689 0.97-19.371 0.97t-19.371 1.939q3.874 7.749-1.455 14.043t-10.174 11.141l-1.939 7.749 13.559 0.97q13.559 0 22.278-3.874 0.97 1.939 0.97 7.749 0 13.559-7.749 35.836t-18.89 45.525-24.217 43.101-23.732 28.572l-1.939-3.874q0-4.839 3.874-6.294t5.809-5.324l-2.909-16.469h-1.939l-0.97 4.839h-2.909q-7.749 0.97-12.104-5.809t-4.355-13.559l0.97-4.839q3.874 3.874 6.294 8.719t4.355 9.689l0.97-5.809q0-6.78-5.324-17.438t-12.104-23.247-11.623-26.156-4.839-26.156v-0.97q-7.749 0-17.438 3.874l4.839 13.559q-9.689 10.659-19.854 14.043t-20.823 11.141v57.15q14.528-7.749 30.027-15.013t29.057-16.953q6.78 13.559 7.265 29.541t1.455 31.482l13.559 1.939q-2.909 8.719-7.749 16.953t-4.839 17.923q0 5.809 3.874 13.559l-6.78 6.78v2.909q3.874 10.659 3.393 16.953t-11.141 14.043q10.659 3.874 13.559 12.589-1.939 2.909-4.839 10.659t-2.909 9.689q0 7.749 8.234 12.104t13.074 6.294q0.97 6.78 3.393 12.589t5.324 11.623q2.909 0 8.234-0.485t11.141-0.485q6.78 0 11.623 0.97t6.78 2.909q-7.749 3.874-15.013 7.265t-15.013 7.265q0 6.78-0.485 13.074t-0.485 13.074q0 20.338 12.589 40.686h-101.709l-0.97 9.689 0.97 5.809q25.187 0 51.334 1.455t51.334 1.455h136.576q4.839-4.839 12.104-5.809t13.074-0.97q153.043 0 304.633 1.939t304.633 2.909q3.874 0 10.174-6.294l8.234-8.234h-233.441q4.839-3.874 15.498-14.528t22.763-21.793 22.763-19.371 15.498-8.234h2.909l3.874-12.589 10.659 1.939q0.97-6.78 7.749-12.104t15.498-10.659 16.953-10.174 11.141-12.589l-9.689 3.874q-0.97-2.909-1.939-6.294t-0.97-6.294q0-13.559 10.174-22.278t17.923-16.469q3.874 2.909 7.749-0.485t7.749-8.234 8.234-9.204 9.204-4.355l6.78 0.97q-2.909 1.939-4.355 5.809t-3.393 5.809l-3.874-6.78-10.659 7.749 3.874 1.939t3.874 0q-3.874 4.839-7.749 8.719t-8.719 6.78l0.97 1.939q13.559-6.78 24.217-15.983t24.217-16.953q2.909 4.839 6.294 10.174t6.294 10.174q-5.809 2.909-18.89 10.659t-27.602 16.469-26.156 16.469-13.559 10.659q29.057-9.689 48.919-20.823t34.868-26.156 28.087-33.421 28.572-42.616l-1.939-0.97q-10.659 13.559-23.732 28.572t-19.854 32.451q-4.839-4.839-9.204-11.623t-4.355-14.528q0-2.909 1.939-6.78t5.809-3.874q2.909 0 5.809 0.97l5.809 1.939q7.749-19.371 28.572-38.261t38.261-28.572zM314.612 462.322v-1.939h-7.749v1.939h7.749zM303.955 464.261v-1.939l-15.498 5.809v1.939zM592.606 742.26l-0.97-5.809q-4.839 6.78-8.234 12.104t-6.294 13.074l-8.719 5.809-6.78 0.97q-6.78 0-10.659-1.939 3.874 4.839 7.265 8.234t6.294 8.234q-3.874 4.839-6.78 9.204t-3.874 10.174q5.809-8.719 16.469-14.528 1.939 1.939 4.355 2.909t4.355 1.939q-1.939-2.909-4.355-5.809t-3.393-6.78q4.839-8.719 13.074-17.923t8.234-19.854zM355.29 553.373l-20.338-19.371-0.97 0.97 20.338 19.371zM308.799 507.848l-5.809-5.809-0.97 0.97q1.939 1.939 2.909 3.874t2.909 1.939zM312.674 513.663v-1.939h-0.97v1.939h0.97zM329.14 528.193l-9.689-8.719-0.97 0.97 9.689 8.719zM298.144 503.006v-6.78h-0.97v6.78h0.97zM539.329 750.009v-1.939h-0.97v1.939h0.97zM551.926 762.599l-10.659-8.719-0.97 0.97 10.659 8.719zM560.644 781.975l-0.97-0.97-6.78 5.809 0.97 0.97zM552.896 802.315l-0.97-0.97-6.78 5.809 0.97 0.97zM538.367 804.254l-0.97-0.97-4.839 3.874 0.97 0.97zM243.9 517.534v-2.909h-0.97v2.909h0.97zM534.49 822.654v-2.909h-0.97v2.909h0.97zM292.334 656.049l-10.659-11.623-1.939 0.97 11.623 11.623zM318.483 683.169l-21.308-21.308-0.97 0.97 21.308 21.308zM350.45 716.104l-4.839-5.809-0.97 0.97q1.939 1.939 2.424 3.874t2.424 1.939zM333.982 702.544l-5.809-8.719-1.939 0.97 5.809 8.719zM668.163 398.397h-19.371l-1.939-5.809q1.939-1.939 2.424-5.809t0.485-5.809l-4.839-10.659q9.689 2.909 14.043 11.623t9.204 16.469zM941.315 758.728q-2.909 1.939-8.719 3.874t-11.623 4.839-9.689 6.294-3.874 7.265q-5.809-0.97-11.623-1.455t-10.659 0.485l-1.939 2.909q-1.939-4.839-5.324-9.689t-6.294-9.689q7.749-7.749 19.854-9.689t21.793-1.939q6.78 0 14.528 0.97t13.559 5.809zM641.038 516.567l-11.623 3.874q0.97-8.719 0-17.438l7.749-9.689q1.939 5.809 2.424 11.623t1.455 11.623zM638.135 657.019h-2.909q-7.749 0-10.659-1.939l8.719-5.809zM637.167 626.023q-9.689 4.839-18.408 4.839h-1.939q0 1.939-0.97 4.355t-0.97 4.355l14.528 3.874-12.589 15.498q-6.78-3.874-12.589-3.393t-12.589-0.485q4.839-12.589 16.953-19.854t22.763-15.013zM467.655 497.197q-4.839 1.939-11.141 2.909t-12.104 0.97l-0.97-11.623-5.809-6.78v-19.371q11.623 3.874 17.438 14.528t12.589 19.371zM650.725 835.251q-1.939 4.839-3.874 8.234t-3.874 7.265q-3.874-3.874-12.104-10.174t-8.234-12.104q0-2.909 1.939-6.78l9.689-0.97q-3.874 5.809-7.749 6.78 0.97 7.749 6.78 12.589 1.939-0.97 4.839-15.498t5.324-31.967 4.839-32.936 2.424-19.371h-2.909zM448.279 609.554l-8.719 0.97 3.874-8.719 2.909 1.939zM474.434 646.363q-6.78 0.97-13.074 1.939t-13.074 0.97l-1.939-9.689q6.78-0.97 15.013 0.97t13.074 5.809zM609.072 841.060l-13.559-1.939v-8.719l13.559 0.97v9.689zM412.442 632.802q-4.839 1.939-13.074 7.265t-9.204 11.141l-20.338-1.939q3.874-4.839 8.234-11.623t12.104-6.78l4.839 0.97 1.939-7.749zM262.306 595.026l-7.749 10.659-13.559 4.839q-0.97-0.97-0.97-5.809 0-8.719 1.455-17.438t3.393-17.438q10.659 5.809 16.469 17.438l-7.749 3.874zM496.712 801.345q0 13.559-12.104 26.156t-25.672 13.559v-16.469q8.719 3.874 19.371 6.78-7.749-4.839-15.498-13.559t-6.78-19.371l0.97-6.78q10.659 1.939 19.854 4.839t19.854 4.839zM452.157 837.183l-9.689 1.939v-15.498t-1.939-15.498q7.749 4.839 8.719 13.074t2.909 15.983zM424.064 808.124q0 4.839-0.97 9.689t-4.839 7.749q1.939 2.909 2.909 6.294t2.909 7.265h-21.308v-35.836l3.874-4.839 0.97-1.939 0.97 2.909v5.809l0.97 0.97q6.78 0 7.749-6.78t0.97-10.659q3.874 3.874 4.839 9.204t0.97 10.174zM392.103 804.254l-0.97 2.909-4.839 3.874-1.939-5.809-5.809-3.874zM353.358 780.037q-1.939 3.874-6.294 10.174t-10.174 12.104-11.623 9.689-10.659 3.874l-1.939-0.97q-2.909-4.839-10.174-9.689t-13.074-4.839h-1.939l-12.589-6.78q0-28.087-0.97-56.669t-0.97-56.669q15.498 13.559 29.541 33.421t27.602 36.321q-4.839 10.659 4.839 16.469t13.559 12.589zM367.886 826.532l-13.559 10.659q0-3.874-1.939-7.749l-5.809 5.809q-7.749-3.874-20.338-1.939l-7.749-11.623q12.589-4.839 25.187-7.749t24.217-9.689v22.278zM258.43 791.658v3.874q-11.623-2.909-18.408-7.749l5.809-7.749q3.874 1.939 8.719 3.874t3.874 7.749zM165.439 757.758l-7.749 9.689-15.498-3.874h16.469l-6.78-6.78zM168.346 958.266l-5.809-6.78 4.839-4.839zM407.601 830.403v-2.909h-1.939v2.909h1.939zM330.109 772.288l-0.97-0.97-6.78 5.809 0.97 0.97zM357.23 827.502l-0.97-0.97 0.97-15.498-0.97-0.97h-0.97v17.438h1.939zM322.361 781.007l-13.559-2.909-3.874 18.408q4.839-3.874 9.204-7.749t8.234-7.749zM288.457 781.975l-1.939-0.97-1.939 3.874 0.97 0.97zM293.3 792.626v-2.909h-1.939v2.909h1.939z"></path>
</svg>
