<?xml version="1.0" encoding="UTF-8" standalone="no"?>
<svg
   xmlns:dc="http://purl.org/dc/elements/1.1/"
   xmlns:cc="http://creativecommons.org/ns#"
   xmlns:rdf="http://www.w3.org/1999/02/22-rdf-syntax-ns#"
   xmlns:svg="http://www.w3.org/2000/svg"
   xmlns="http://www.w3.org/2000/svg"
   xmlns:sodipodi="http://sodipodi.sourceforge.net/DTD/sodipodi-0.dtd"
   xmlns:inkscape="http://www.inkscape.org/namespaces/inkscape"
   inkscape:version="1.0 (4035a4fb49, 2020-05-01)"
   sodipodi:docname="igrave.svg"
   id="svg1554"
   viewBox="0 0 1233 1024"
   height="1024"
   width="1233"
   version="1.1">
  <metadata
     id="metadata1560">
    <rdf:RDF>
      <cc:Work
         rdf:about="">
        <dc:format>image/svg+xml</dc:format>
        <dc:type
           rdf:resource="http://purl.org/dc/dcmitype/StillImage" />
      </cc:Work>
    </rdf:RDF>
  </metadata>
  <defs
     id="defs1558" />
  <sodipodi:namedview
     inkscape:current-layer="svg1554"
     inkscape:window-maximized="1"
     inkscape:window-y="-11"
     inkscape:window-x="-11"
     inkscape:cy="618.94517"
     inkscape:cx="616.5"
     inkscape:zoom="0.74804688"
     showgrid="false"
     id="namedview1556"
     inkscape:window-height="986"
     inkscape:window-width="1920"
     inkscape:pageshadow="2"
     inkscape:pageopacity="0"
     guidetolerance="10"
     gridtolerance="10"
     objecttolerance="10"
     borderopacity="1"
     bordercolor="#666666"
     pagecolor="#ffffff" />
  <title
     id="title1549">florin</title>
  <g
     id="icomoon-ignore" />
  <path
     style="fill:#ffffff"
     id="path1552"
     d="M1084.416 751.104v0zM899.072 590.336h1.024v-2.048h-1.024v2.048zM973.824 674.304v1.024l3.072-9.216h-1.024zM1094.656 824.832q-2.048-17.408-3.072-33.792t-3.072-32.768h-1.024zM1093.632 834.048v0zM969.728 717.312h-1.024l1.024 1.024q1.024-1.024 2.048-1.024t2.048-1.024zM1101.824 897.536q-1.024-14.336-1.536-28.16t-1.536-28.16zM616.448 430.592h1.024q-3.072-3.072-6.656-6.144t-6.656-6.144v1.024zM643.072 470.528q-5.12-8.192-10.752-16.384t-10.752-16.384h-1.024zM680.96 505.344v-1.024q-8.192-8.192-15.872-15.36t-15.872-15.36zM672.768 509.44q-6.144-5.12-12.8-8.704t-12.8-8.704q9.216 6.144 10.752 7.68l1.536 1.536 1.536 1.024t11.776 7.168zM551.936 394.752q-4.096-2.048-7.168-4.608t-7.168-4.608zM616.448 463.36h1.024q-16.384-14.336-32.256-29.184t-33.28-30.208v1.024zM633.856 484.864h1.024q-7.168-9.216-16.384-16.384zM656.384 517.632v-1.024h-12.288v1.024h12.288zM634.88 509.44q-5.12-2.048-10.752-5.12t-10.752-5.12zM636.928 522.752l-32.768-12.288v1.024zM1001.472 923.136h1.024l-4.096-32.768h-1.024zM987.136 895.488h-1.024v25.6h1.024v-25.6zM589.824 509.44q-6.144-2.048-11.776-4.096t-11.776-4.096v1.024zM952.32 918.016v1.024l3.072-18.432zM736.256 1022.464l492.544-9.216q0-1.024-1.024-1.024h-114.688q-7.168-6.144-8.192-12.8t1.536-12.8 7.168-11.264 9.728-10.24 9.216-11.264q6.144 0 15.872-6.144t17.408-16.384 11.776-21.504 0-20.48q-6.144 3.072-16.384 6.144t-22.528 5.632-24.576 3.072-21.504-0.512q0-3.072-4.096-9.216-5.12-8.192-10.24-17.408t-6.144-19.456l4.096-124.928 3.072 6.144 2.048 3.072q0 1.024 3.072 5.12-3.072-48.128-0.512-84.992t8.704-70.656q7.168-33.792 16.384-67.584t20.48-74.752l-147.456 207.872q-4.096-4.096-5.12-9.728t-2.048-11.776-1.536-12.288-2.56-11.264q-11.264 11.264-12.288 16.384-2.048 3.072-1.536 5.632t0.512 6.656v62.464q0 2.048-3.072 9.728t-7.68 15.872-10.24 15.36-9.728 8.192q-16.384-69.632-19.456-141.312t3.584-142.336 22.016-137.216 36.864-124.928q-29.696 23.552-60.928 65.536t-64 92.16-64 101.376-58.88 92.16q-3.072-3.072-5.632-8.192t-3.072-10.24 2.048-8.704 10.752-5.632q-8.192-16.384-10.752-30.208t-1.536-26.112q0-6.144 0.512-11.776t0.512-10.752 0.512-9.728-0.512-9.728q-7.168 2.048-9.216 16.384-1.024 9.216-0.512 22.016t0 25.6-3.072 24.576-8.704 18.944q-2.048-2.048-1.536-4.096t-1.536-4.096q2.048-2.048 4.608-5.12t2.56-5.12q-5.12-2.048-11.264-3.584t-9.216 0.512l3.072 3.072 2.048 3.072q4.096 4.096 5.12 6.144-9.216 3.072-16.384 1.024-5.12 0-8.704-0.512t-9.728 1.536q8.192 4.096 14.848 5.12t14.848 3.072q6.144 2.048 11.776 4.608t7.68 7.68q-2.048 26.624-13.824 56.32t-28.16 57.344-32.256 52.736-26.112 42.496q-13.312-15.36-10.24-32.768-3.072 0-5.12 2.56t-4.096 4.608l-9.216-10.24q3.072-6.144 12.288-4.096 5.12 1.024 10.752 1.536t3.584-10.752q-9.216-2.048-20.48-2.56t-22.528-2.56q-11.264-1.024-21.504-2.56t-17.408-6.656q-5.12 9.216-10.24 7.68t-8.192-7.68q-4.096-5.12-5.12-13.312t1.024-13.312q2.048 7.168 4.608 14.336t7.68 14.336q0-6.144-1.024-8.192-2.048-5.12-3.584-12.8t3.584-10.752q2.048 2.048 4.096 6.144 3.072 3.072 4.096 3.072 13.312-6.144 24.064 2.56t19.968 14.848q8.192 4.096 13.312 3.072 0-13.312-3.584-34.816t-8.704-45.056-9.216-45.056-6.144-33.792q7.168-5.12 8.192-11.776t0-12.8q-6.144 6.144-8.192 4.096 0-8.192-1.024-16.896t-8.192-17.92l6.144-6.144q8.192-2.048 10.24 1.024t3.072 9.216q1.024 5.12 0.512 11.776t2.56 11.776q2.048-5.12 4.096-13.312 1.024-4.096 3.072-10.24 10.24 4.096 22.528 10.24 7.168 2.048 13.312 3.072t10.24-1.024q-13.312-4.096-25.6-10.752t-26.624-15.872q2.048-6.144 2.048-8.192 0-1.024-0.512-1.536t0.512-2.56q-15.36-5.12-31.744-10.752t-39.936-13.824q0 4.096-2.048 10.24v2.048q-2.048-1.024-3.072-1.024t-3.072-1.024q-1.024 0-1.536-0.512t-1.536-0.512v-15.36q1.024-5.12 2.56-7.68t6.656-1.536q1.024 4.096 7.168 6.144l1.024 2.048q6.144 5.12 18.432 8.192l10.24 4.096t7.168 3.072q4.096-8.192 2.048-16.384l-4.096-16.384t-1.536-15.872 7.68-14.848q-4.096-1.024-6.144-6.144t-3.584-11.264-1.536-12.288v-10.24q11.264 2.048 18.432 13.312 2.048 4.096 5.12 8.192t7.168 6.144q1.024 10.24 12.288 21.504 5.12 5.12 13.312 11.776t19.456 17.92h1.024v-1.024q-20.48-23.552-29.696-36.352t-16.384-20.992-14.336-15.36-21.504-18.432q3.072-2.048 6.144-4.608t5.12-6.656q-7.168-2.048-12.288-3.072l-10.24-2.048q-5.12-2.048-9.216-3.072t-7.168-3.072q-6.144-4.096-8.192-11.264t2.048-22.528q-3.072 0-6.656 1.024t-5.632 1.024q-1.024 4.096-1.024 10.24 1.024 5.12 1.536 10.24t-4.608 10.24q-16.384-5.12-36.864-7.168 0 4.096 0.512 7.168t4.608 5.12q2.048 1.024 3.072 3.584t2.048 4.608q-1.024 7.168-2.048 13.824t-3.072 14.848-3.584 15.872-3.584 15.872q-4.096 15.36-6.656 30.208t-0.512 27.136q8.192-4.096 14.848-8.192t11.776-6.144q13.312-6.144 20.48-3.072 0 3.072 0.512 6.144t-1.536 5.12q-7.168-5.12-14.336 1.024t-12.288 13.312q-12.288-5.12-29.696-4.096t-21.504 8.192q15.36-1.024 19.968 4.608t2.56 13.824q-2.048 7.168-7.68 13.824t-11.776 8.704q-1.024-3.072-1.024-6.144t-1.024-6.144-1.024-6.144-2.048-5.12q-4.096 1.024-4.096 14.336v24.576q-99.328 80.896-185.344 163.328t-168.96 158.208q-4.096-2.048-8.192-2.048h-17.408l6.144 12.288q2.048 5.12 1.024 7.168 6.144-3.072 12.8-1.536t14.848 5.632 14.848 8.192 12.8 7.168q0-7.168 1.024-10.24 22.528 11.264 46.592 21.504t48.64 20.48q-3.072 14.336-8.192 15.36t-13.312-4.096q-9.216-6.144-17.408-12.8t-20.48-7.68q12.288 7.168 22.528 14.336t20.48 13.312q11.264 6.144 21.504 10.24t23.552 4.096q-8.192-3.072-10.24-5.12-2.048-1.024-3.584-2.048t-3.584-2.048q-5.12-6.144-1.024-20.48 12.288 5.12 24.064 11.776t20.992 14.848q0-10.24 1.024-12.288 5.12 4.096 13.312 7.168 4.096 2.048 7.68 3.072t6.656 3.072q7.168 3.072 10.752 6.656t1.536 9.728l-17.408-8.704t-18.432-10.752q0 3.072-0.512 5.12t-0.512 4.096-0.512 3.584 0.512 2.56q7.168-2.048 13.312 1.024t11.264 6.144q5.12 2.048 9.728 3.072t6.656-5.12q10.24 0 24.064 10.24t14.848 18.432q2.048 1.024 5.12 1.024l2.048 5.12q2.048 4.096 6.144 7.168t9.216 6.144 9.216 6.144 9.216 7.168q-20.48 3.072-51.2 3.584t-63.488-0.512-61.952-2.048-43.52 0l-27.648 15.36h154.624q4.096 5.12 8.704 3.584t9.728-3.584q1.024 3.072 5.12 5.12l3.072 1.024 2.048 2.048 8.192-8.192q2.048 4.096 6.144 5.12t7.168 2.048q2.048 0 2.048-2.048l2.048-2.048q1.024-3.072 3.072-3.072 14.336 7.168 24.064 8.192t29.184 0 54.272-2.56 99.328 0.512v-1.024q-6.144 1.024-8.192-1.024l142.336-1.024q10.24 2.048 21.504 2.048h45.056t21.504 2.048zM513.024 675.328h1.024v-1.024h-1.024v1.024zM486.4 695.808q-2.048-8.192-3.584-16.384t-3.584-16.384h-1.024zM706.56 931.328v0zM350.208 742.912v1.024l1.024-1.024q-2.048-6.144-2.048-11.264h-1.024zM515.072 940.544h1.024v-1.024h-1.024v1.024zM577.536 1022.464q-3.072-1.024-5.632-1.536t-5.632-0.512zM356.352 931.328h1.024v-2.048h-1.024v2.048zM290.816 962.048h1.024q-6.144-5.12-12.288-9.216t-11.264-8.192h-1.024zM342.016 1017.344v0 0zM218.112 926.208q-7.168-2.048-13.312-2.56t-13.312-2.56v1.024zM93.184 869.888v-1.024h-1.024v7.168h1.024v-6.144zM73.728 861.696h1.024v-2.048h-1.024v2.048zM900.096 607.744q1.024 14.336 3.584 33.792t5.632 41.472 7.168 45.056 9.216 42.496q-3.072 3.072-7.168 9.216t-8.192 13.312q-5.12 7.168-9.216 14.848t-8.192 13.824q-2.048-10.24-2.048-25.6 0-16.384 1.024-33.792t1.536-33.792 0.512-25.6v-60.416q0-4.096 1.024-7.168l2.048-10.24q1.024-5.12 1.536-8.704t1.536-8.704zM1005.568 893.44q1.024-2.048 11.776-7.168t24.576-6.656 27.648 3.584 19.968 22.528q-13.312 5.12-37.376 8.704t-42.496 4.608q1.024-5.12 0-11.776t-4.096-13.824zM967.68 900.608q3.072-3.072 4.096-3.072 0 4.096 1.024 7.68t1.024 7.68q2.048 8.192-4.096 11.264-2.048-2.048-1.024-4.096t1.024-4.096q2.048-7.168-6.144-11.264zM929.792 911.872l4.096-2.048q6.144-4.096 8.192-7.168 2.048 6.144 2.048 15.36 0 8.192-2.048 13.312-2.048-4.096-3.072-8.192t-2.048-13.312q-1.024 0-7.168 2.048zM889.856 922.112q11.264-3.072 20.48-1.536t15.36 10.752q-16.384 2.048-35.328 4.096t-38.4 5.12q0-3.072 1.024-4.096 0-3.072 2.048-1.024 5.12-2.048 14.848-6.656t19.968-6.656zM738.304 897.536q-7.168 2.048-9.216 16.384 0 10.24 2.56 21.504t7.68 17.408q-2.048 2.048-6.144 3.072t-8.192-1.024q1.024-11.264 0-28.16t-1.024-31.232q6.144 0 14.336 2.048zM585.728 745.984l6.144 6.144t6.144 8.192q-2.048 5.12-5.12 11.264t-5.12 11.264q-6.144 10.24-8.192 19.456-4.096-14.336-6.144-35.328t8.192-31.232q0 5.12 4.096 10.24zM705.536 905.728q1.024 6.144 4.096 11.264-3.072-2.048-8.704-6.144t-7.68-13.312h4.096t5.12-2.048q1.024 2.048 1.536 5.12t1.536 5.12zM361.472 611.84q5.12-18.432 13.312-34.816t19.456-26.624q-2.048 13.312-6.144 28.672t-7.168 32.768q-4.096 17.408-6.656 34.816t-2.56 31.744q-3.072 1.024-12.288 1.024-10.24 0-14.336 1.024 3.072-14.336 7.168-32.256t9.216-36.352zM434.176 655.872q14.336-2.048 22.528 4.608t2.048 29.184q-17.408-2.048-36.864-3.072t-36.864-3.072q-4.096-4.096-2.048-13.312 3.072-1.024 8.704-3.072t12.8-4.096 14.848-4.096 14.848-3.072zM691.2 920.064q5.12 8.192 4.608 22.016t-2.56 22.016q-4.096-2.048-9.216-2.048 2.048-8.192 4.608-19.456t2.56-22.528zM401.408 487.936q5.12 0 10.24 5.12-15.36 25.6-26.624 44.032t-20.48 33.28-17.408 26.112-16.384 23.552-18.432 25.6-23.040 31.744-30.208 43.52-39.936 58.88q10.24-33.792 26.624-72.192t37.888-75.776 47.616-71.168 55.808-58.368q3.072-1.024 9.216 7.168 3.072-6.144 3.072-11.264 1.024-3.072 1.024-5.12 0-3.072 1.024-5.12zM590.848 913.92q20.48-4.096 45.568-8.192t45.568-3.072q5.12 8.192 0 25.6-2.048 9.216-4.608 17.408t-2.56 17.408q-17.408-2.048-36.864-2.56t-36.864-0.512q-1.024-2.048-1.024-4.096t-1.024-4.096q-1.024-3.072-6.144-8.192-3.072 4.096-3.584 7.68t-0.512 8.704q-7.168-4.096-18.432 0-1.024-2.048-2.56-5.632t-2.56-5.632q-4.096 0-4.096 9.216-7.168 0-10.24-8.192 0-2.048-2.048-8.192t-4.096-10.24q-7.168 5.12-3.072 16.384v3.072q-7.168-1.024-7.168-9.216-1.024-4.096-0.512-8.192t0.512-9.216q2.048 0 3.584-0.512t3.584-0.512q2.048-1.024 4.096-1.024 3.072 0 6.144-1.024-1.024 3.072 1.024 8.192 2.048 8.192 4.096 13.312 6.144-4.096 6.144-8.192 0-2.048-0.512-3.072t0.512-3.072q7.168 3.072 13.312 6.656t12.288 7.68q5.12-8.192 3.072-14.336 0-4.096-0.512-7.168t-0.512-7.168zM505.856 916.992q2.048-2.048 4.096-2.048h4.096q-2.048 2.048-1.024 6.656t1.024 7.68v2.048q-1.024-4.096-3.584-7.68t-4.608-6.656zM320.512 837.12q-2.048-13.312-0.512-35.84t5.632-45.568 12.288-41.984 20.48-25.088v39.936t-4.096 45.568-11.776 39.936-23.040 23.040h1.024zM487.424 914.944q3.072 5.12 9.216 7.168-6.144 5.12-3.072 10.752t3.072 11.776q-4.096-1.024-7.168-6.144v-1.024q-1.024-2.048-1.536-1.024t-1.536 1.024q0 2.048-5.12 9.216-2.048-4.096-4.608-17.92t0.512-22.016q0 6.144 1.536 14.848t6.656 13.824q5.12-5.12 3.584-10.24t-1.536-10.24zM454.656 933.376q0 4.096 2.048 10.24-2.048 0-4.096 1.024t-4.096 1.024q1.024-5.12 0.512-11.264t-0.512-13.312q1.024-6.144 2.048-11.776t3.072-7.68q4.096 6.144 2.048 20.48-1.024 4.096-1.024 11.264zM423.936 904.704q5.12-1.024 9.216-1.024 5.12 0 9.216-1.024-2.048 9.216-2.56 20.48t0.512 22.528q-22.528-6.144-34.816-6.656t-20.48-1.536q-7.168-1.024-11.776-4.096t-11.776-14.336q5.12-8.192 15.36-10.752t22.528-3.584h24.576zM313.344 860.672q5.12-8.192 14.336-18.432t16.384-15.36q1.024 14.336 0 31.232t-3.072 33.28q-6.144-3.072-12.288-12.288-6.144-10.24-15.36-18.432zM321.536 890.368q5.12 8.192 9.728 17.408t11.776 15.36q-12.288 1.024-25.6-7.68t-18.432-16.896q-3.072 3.072-2.56 7.68t1.536 8.704q-3.072-2.048-6.656-3.072t-6.656-3.072q-9.216-3.072-15.36-6.144l6.656-6.656t7.68-5.632l1.024 1.024q4.096 4.096 8.192 5.12 1.024-3.072-1.024-7.168-1.024-2.048-2.048-3.072t-2.048-3.072q11.264-5.12 16.384-18.432 3.072 1.024 5.12 3.584t4.096 5.632q2.048 4.096 4.096 7.68t4.096 8.704zM234.496 861.696q16.384-2.048 31.744-3.584t29.696-3.584q0 3.072-4.096 9.216-2.048 3.072-3.072 5.632t-3.072 5.632q-2.048 0-6.144-4.096l-3.072-3.072q-2.048-1.024-2.56-1.536t-2.56-1.536q1.024 5.12 1.536 8.192t3.584 6.144q-3.072 3.072-6.144 4.608t-5.12 3.584q-6.144 3.072-9.728 3.584t-7.68 9.728q-17.408-7.168-36.352-14.336t-36.352-13.312q13.312-5.12 28.16-7.168t31.232-4.096zM41.984 824.832q48.128-10.24 84.992-19.968t78.848-14.848q-2.048 8.192-8.192 17.92t-14.336 19.968q-8.192 11.264-16.384 21.504t-13.312 18.432q-12.288-4.096-27.648-9.728t-30.72-11.776-29.184-11.776-24.064-9.728z" />
</svg>
