<!-- Generated by IcoMoon.io -->
<svg version="1.1" xmlns="http://www.w3.org/2000/svg" width="1212" height="1024" viewBox="0 0 1212 1024">
<title>florin</title>
<g id="icomoon-ignore">
</g>
<path d="M905.216 379.907l-13.312 15.36zM721.92 243.715v0zM886.784 400.387l-13.312 13.312zM724.992 208.899v-12.288q-5.12 11.264-12.8 19.456t-15.36 14.848-14.336 12.8-10.752 15.36q8.192-7.168 22.016-16.384t25.088-9.216l4.096 1.024q2.048-6.144 2.048-12.288v-13.312zM721.92 252.931v0zM867.328 559.107l-9.216 6.144zM939.008 642.051v0zM921.6 569.347q0-11.264-0.512-23.552t-2.56-23.552q-5.12 6.144-17.408 17.408t-20.48 11.264q-2.048 41.984-7.168 82.432t-5.12 82.432v13.312q21.504-10.24 32.256-29.184t15.36-40.96 5.12-45.568 0.512-44.032zM949.248 694.275l-10.24-5.12-1.024 15.36q0 5.12 0.512 9.216t1.536 9.216q9.216-5.12 9.216-13.312v-15.36zM438.272 247.811l-3.072 18.432zM745.472 574.467l1.024 15.36zM796.672 614.403h-3.072q-5.12 0-12.288 2.048t-10.24 7.168l-5.12-11.264q-5.12 2.048-10.24 4.608t-10.24 2.56l3.072 15.36q4.096-2.048 7.68-6.144t8.704-4.096l2.048 1.024q-2.048 4.096-4.608 7.68t-5.632 7.68q14.336 0 23.040-9.216t16.896-17.408zM745.472 601.091v0zM425.984 287.747l-14.336 13.312zM1062.912 919.555l-34.816 3.072zM637.952 519.171l-5.12 2.048zM1018.88 914.435v0zM407.552 306.179l-13.312 13.312zM742.4 672.771v0zM390.144 324.611l-12.288 16.384zM1000.448 924.675l-71.68 1.024zM745.472 684.035l2.048 87.040zM373.76 345.091l-12.288 14.336zM408.576 381.955l-12.288 13.312zM918.528 757.763q0-16.384-1.024-32.256t-3.072-31.232q-5.12 13.312-16.896 20.48t-19.968 17.408q-1.024 46.080-4.096 92.16t-2.048 93.184q-32.768 1.024-65.536 1.024-31.744 0-64.512-4.096v33.792q44.032-2.048 84.48-8.704t84.48-3.584q2.048-45.056 5.12-89.088t3.072-89.088zM451.584 473.091q0-12.288-2.048-24.064t-4.096-23.040q-1.024 12.288-1.024 25.6t-4.096 26.624zM347.136 363.523l5.12 7.168zM802.816 779.267q-14.336-1.024-29.696 2.56t-29.696 0.512l1.024 43.008q10.24-5.12 17.92-9.728t13.824-9.728 12.288-11.264 14.336-15.36zM107.52 1024.003l1094.656-2.048q-5.12-1.024-6.656-3.072t-3.584-3.584-5.12-2.56-11.264-1.024q-10.24 0-24.576 2.048t-28.16 1.536-23.552-6.144-9.728-20.992q0-18.432 8.704-37.376t17.92-35.328h-6.144q-5.12-1.024-10.752 2.56t-9.728 6.656l-19.456-4.096 2.048-10.24q16.384-1.024 32.256-4.096t31.232-7.168h-4.096q-32.768 0-66.56 6.656t-66.56 8.704l2.048-9.216q26.624 2.048 54.784-6.656t54.784-13.824q-4.096-12.288-16.384-43.52t-25.088-66.048-22.528-64.512-9.728-37.888q8.192-6.144 16.896-12.288t16.896-14.336q-15.36 5.12-32.768 14.336-24.576-40.96-46.080-74.752t-36.864-67.584-23.552-72.192-6.144-89.6l1.024-39.936q-2.048 15.36-7.68 30.208t-12.8 29.184l16.384-9.216q-1.024 36.864-3.072 73.728t1.024 73.728q-17.408 8.192-31.744 19.456l-28.672 22.528q-2.048-7.168-4.608-14.848t-2.56-15.872q0-4.096 1.536-6.144t3.584-3.584 3.072-3.584 1.024-7.168l-1.024-73.728 7.168-13.312q-32.768 34.816-64 70.144t-65.024 67.072q-7.168-5.12-8.192-15.872t-1.024-18.944q0-24.576 3.584-48.64t3.584-48.64l16.384-5.12q-13.312-7.168-18.944-26.624t-8.192-42.496-2.56-45.568-1.024-35.84q-2.048 5.12-4.096 12.8t-2.048 11.776l3.072 129.024q-14.336 4.096-27.136 9.728t-25.088 12.8q11.264 2.048 18.432-5.632t15.36-7.68q4.096 0 9.216 3.072-18.432 20.48-37.376 39.424t-39.424 36.352q1.024-14.336 8.704-33.28t18.944-29.184q-14.336 2.048-30.72 9.216t-30.72 7.168h-3.072q8.192-26.624 9.728-54.784t5.632-54.784 14.848-50.688 38.4-41.472q-57.344 38.912-111.616 81.408t-113.664 78.336l-7.168-145.408q-1.024 4.096-1.024 14.336 0 14.336 1.024 28.672t-1.024 28.672q-2.048 11.264-10.752 18.432t-8.704 12.288l18.432-9.216q1.024 29.696 1.024 60.416t3.072 61.44q-10.24 6.144-12.288 14.848t-9.216 16.896q-1.024-2.048-2.048-3.584t-1.024-3.584l1.024-4.096q-5.12 6.144-11.264 10.24t-11.264 10.24q6.144-6.144 14.336-6.144 4.096 0 7.168 4.096 8.192 0 12.8-11.264t11.776-14.336l1.024 65.536v31.744q0 18.432-1.536 37.376t-4.608 36.864-9.216 28.16q-8.192 11.264-17.408 20.992t-16.384 22.016l5.12-9.216q11.264-1.024 22.528-11.776t22.528-10.752l4.096 1.024q2.048 38.912-1.024 79.36t3.072 79.36q-14.336 11.264-30.208 22.528t-25.088 28.672q-5.12-1.024-18.944-2.048t-28.16-2.56-26.624-4.608-14.336-8.192q-6.144 1.024-17.408-5.12t-22.528-14.848-20.48-17.92-13.312-14.336q-4.096-2.048-10.752-5.632t-13.824-8.192-12.8-9.216-6.656-9.728q15.36 2.048 30.208 9.216t28.16 15.36q19.456 0 38.912 5.632t37.888 8.704q-1.024-21.504 5.12-42.496t14.336-40.448q9.216-4.096 25.6-14.336t19.456-20.48q-8.192 5.12-20.992 15.36t-20.992 10.24l-3.072-1.024q8.192-38.912 17.92-77.824t17.92-78.848q11.264-16.384 17.408-36.864t13.312-38.912q-23.552 29.696-45.568 58.368t-49.664 55.296q3.072-10.24 11.264-26.112t17.92-31.744 20.48-29.696 18.944-20.992q-35.84 26.624-70.144 52.736t-71.168 49.664q9.216-24.576 21.504-54.272t27.136-57.856 32.768-53.248 39.424-42.496q12.288-10.24 19.456-15.872t13.312-20.992q-43.008 44.032-84.992 88.064t-88.064 83.968q9.216-25.6 19.456-50.688t20.48-50.688q-13.312 14.336-32.768 35.84t-41.472 45.568-46.080 49.664-46.592 48.128-43.008 40.448-34.816 27.136l14.336-3.072q55.296 46.080 108.032 93.184t109.056 90.112q-3.072 18.432 6.656 30.72t23.552 23.040 25.6 22.528 11.776 28.16q0 8.192-3.072 14.336zM345.088 375.811l-12.288 13.312zM516.096 494.595h-64.512l-7.168-10.24q-3.072 12.288-3.072 27.648l-1.024 98.304 13.312-3.072q0-16.384-1.536-32.256t-1.536-33.28q0-16.384 4.096-29.696 15.36-3.072 30.208-9.728t31.232-7.68zM326.656 394.243l-12.288 16.384zM729.088 928.771q1.024-68.608-1.024-137.216t1.024-137.216q-5.12 3.072-11.264 8.192t-12.288 10.752-12.8 9.728-10.752 4.096q6.144-9.216 10.752-15.872t8.704-11.776 9.216-10.24 13.312-12.288l-3.072-197.632q-28.672 16.384-46.080 39.936t-26.624 51.712-12.288 58.88-3.072 60.416l1.024 58.368 1.024 11.264v2.048q4.096-3.072 9.728-8.192t11.776-10.24 11.776-8.704 9.728-3.584q-2.048 8.192-9.216 13.312t-15.36 7.168l-20.48 27.648 1.024 69.632q-11.264 7.168-23.552 9.728t-25.6 2.56-26.624-1.024-25.6-1.024q-11.264 10.24-26.112 18.944t-28.16 19.456-22.528 23.552-9.216 31.232q0 11.264 7.168 27.648 4.096-7.168 4.608-10.752t2.048-5.12 4.608-2.048 11.264-0.512l13.312-1.024v-7.168q0-4.096 5.12-4.096l4.096 8.192 16.384 9.216q1.024 5.12-1.024 8.192t-2.048 8.192v5.12l25.6-1.024 4.096-11.264q13.312 2.048 30.72 1.536t34.816 0.512 33.792 3.584 27.648 8.704l60.416-2.048v-19.456zM309.248 412.675l-12.288 16.384zM744.448 879.619v0zM746.496 898.051v0zM292.864 436.227l-15.36 11.264zM500.736 647.171l-16.384 14.336zM527.36 637.955q-18.432-3.072-37.888-3.072-20.48 0-36.864 4.096 3.072 23.552 3.072 46.080 1.024 2.048 3.072 4.608t1.024 4.608l-1.024 2.048q9.216 0 18.944-6.656t18.432-16.384 16.896-19.456 14.336-15.872zM275.456 454.659l-16.384 14.336zM482.304 665.603l-13.312 13.312zM456.704 704.515v0zM507.904 822.275q-8.192 4.096-17.408 7.168t-18.432 3.072q-16.384 0-16.384-19.456 0-20.48 4.608-40.448t-3.584-40.448l3.072 132.096q3.072-4.096 10.752-9.728t15.36-10.752 14.336-10.752 7.68-10.752zM436.224 934.915v-39.936q-11.264 5.12-25.6 16.384t-20.48 22.528q9.216 1.024 17.92 3.072t17.92 2.048q2.048 0 5.12-1.536zM229.376 850.947l7.168 3.072zM210.944 776.195q-14.336-4.096-29.696-4.608t-26.624-9.728l-10.24 1.024q-11.264 1.024-21.504-3.072t-21.504-3.072h-6.144l12.288 19.456q7.168 0 16.384 5.12t17.92 12.288 16.896 14.336 14.336 11.264zM119.808 729.091q-14.336 1.024-28.16 0t-28.16 3.072l7.168 15.36q2.048-1.024 3.072-2.048t3.072-1.024q1.024 0 3.584 4.096t7.68 6.144zM80.896 704.515h-7.168q-10.24-1.024-20.48 2.56t-19.456-1.536v15.36l4.096-2.048q5.12 0 8.192 4.096t6.144 7.168q7.168-7.168 14.848-12.8t13.824-12.8z"></path>
</svg>
