<!-- Generated by IcoMoon.io -->
<svg version="1.1" xmlns="http://www.w3.org/2000/svg" width="29" height="32" viewBox="0 0 29 32">
<title>eth</title>
<path d="M26.24 15.008q-0.064 0.288-0.192 0.064t-0.304-0.736-0.352-1.2-0.32-1.296-0.24-1.040-0.096-0.464v5.472l-0.352 0.24t-0.816 0.544-0.944 0.576-0.736 0.368q-4.672 1.376-7.968 1.616t-5.536-0.256-3.584-1.472-2.096-2.048-1.056-2.016-0.464-1.328q-0.416 2.24 0.064 3.824t1.568 2.64 2.672 1.648 3.376 0.848 3.68 0.224 3.6-0.224 3.12-0.464 2.272-0.528q0.672-0.192 1.136-0.352t0.848-0.352 0.752-0.416 0.848-0.544q0.448 1.024 0.656 1.488t0.368 0.752 0.416 0.64 0.8 1.184q-0.032-0.576-0.112-1.024t-0.192-0.944-0.304-1.136-0.416-1.6q0.192-0.032 0.496-0.384t0.656-0.672 0.704-0.464 0.704 0.24l-1.216-3.52q-0.192 0.608-0.56 1.168t-0.88 0.944zM19.904 7.808v-1.088l-1.504-2.432-0.768-0.48-0.192 0.064-0.192-0.096-0.512-0.416q-0.096 0-0.16-0.032t-0.256-0.032q0 0.064-0.16 0.032h-0.288l-0.416 0.096h-0.352t-0.352-0.064q-0.352-0.064-0.4 0t-0.176 0.064l-0.192-0.064q-0.128 0-0.224 0.064t-0.288 0.064q-0.192 0.064-0.4 0.112t-0.4 0.080l-0.704 0.64q-0.256 0.096-0.656 0.368t-0.784 0.64-0.656 0.8-0.272 0.848q0 0.128-0.032 0.32t-0.032 0.384q0 0.224-0.016 0.32t-0.048 0.144-0.048 0.096-0.016 0.144q0 0.16 0.080 0.496t0.176 0.672 0.208 0.608 0.176 0.336l1.664 3.68q-0.064 0.128-0.16 0.272t-0.096 0.272q0 0.192 0.416 0.192 0.128-0.16 0.16-0.432t0.288-0.272q0.16 0 0.224 0.032t0.16 0.096q0.064-0.16 0.368-0.144t0.4 0.144l0.192-0.096 1.6 0.16 1.088-0.192q0.096 0 0.16 0.032t0.256 0.032q0.032-0.128 0.256-0.24t0.384-0.176q-0.032-0.064-0.016-0.192t0.080-0.256l2.048-4.096zM17.152 14.816q0.096-0.16 0.048-0.32t-0.112-0.16q-0.16 0-0.16 0.064t-0.192 0.224q0.096 0.256 0.224 0.224t0.192-0.032zM16.096 14.72q-0.096-0.064-0.352-0.064-0.128 0-0.144 0.032t-0.080 0.096q-0.064-0.064-0.112 0.032t-0.048 0.256q0.128 0.064 0.096 0.128t0.192-0.032h0.384q0.096-0.096 0.096-0.224t-0.032-0.224zM15.040 14.656q-0.096 0-0.144-0.032t-0.176-0.032q-0.16 0.064-0.256 0.48 0.064 0.064 0.144 0.080t0.144 0.080zM15.104 16.256q0.064-0.096 0.048-0.24t-0.080-0.208q-0.16-0.096-0.256-0.080t-0.128 0.096-0.048 0.16-0.048 0.112q0.096 0.064 0.256 0.112t0.256 0.048zM14.080 14.976q0-0.16-0.112-0.256t-0.24-0.192q-0.224 0.224-0.224 0.416 0 0.128 0.048 0.272t0.176 0.144q0.064 0 0.208-0.144t0.144-0.24zM12.864 15.168q0.352-0.384 0.16-0.48t-0.448-0.032q-0.128 0.224-0.112 0.336t0.080 0.16 0.16 0.048 0.16-0.032zM17.216 16.8q0-0.128-0.064-0.176t-0.032-0.144v-0.864q-0.288 0-0.336 0.144t-0.032 0.32-0.016 0.336-0.256 0.16q-0.128 0-0.272-0.064t-0.4-0.064l-0.064-0.224q0.064-0.064 0.112-0.048t0.112-0.048q0.096 0 0.16-0.032l0.064-0.032q-0.096-0.544-0.256-0.48-0.192 0.096-0.224 0.368t-0.096 0.528h-1.28l-0.192-0.128q0.064-0.16 0.064-0.352 0-0.224-0.16-0.32-0.16-0.032-0.224 0.096t-0.096 0.288-0.064 0.288-0.096 0.128q-0.128 0-0.144 0.016t-0.144 0.016q-0.256 0-0.384 0.128-0.128-0.224-0.096-0.288 0.224-0.096 0.384-0.304t0.096-0.304q-0.448 0.16-0.544 0.208t-0.064 0.112 0.048 0.176-0.208 0.336q-0.256-0.096-0.384-0.064l-0.064-0.064q0.032 0 0.032-0.128 0-0.096 0.016-0.304t-0.176-0.272q-0.192 0.064-0.224 0.112t-0.064 0.112q0.064 0.352 0.064 0.512t-0.032 0.24-0.096 0.128-0.128 0.144q0.16 0.128 0.208 0.24t0.048 0.176q0.192 0 0.432 0.064t0.624 0.128q0.096 0 0.192 0.064t0.192 0.064q0.128 0 0.176-0.064t0.144-0.064l1.344 0.128q0.352 0 0.72-0.032t0.624-0.096q0.352-0.096 0.704-0.224t0.352-0.576zM17.92 7.040q-0.032 0.16-0.128 0.496t-0.272 0.672-0.464 0.608-0.704 0.304q-0.352-0.128-0.608-0.448t-0.256-0.672q0-0.288-0.032-0.432t-0.032-0.272q0-0.16 0.128-0.448t0.224-0.384q0.224-0.256 0.432-0.304t0.4-0.048q0.096 0 0.4 0.064t0.592 0.128zM14.080 6.816l-0.192 1.888q0 0.128-0.176 0.176t-0.368 0.048l-0.736 0.128q-0.096-0.064-0.272-0.272t-0.336-0.48-0.288-0.512-0.128-0.368 0.112-0.32 0.288-0.336 0.336-0.24 0.256-0.096q0.064 0.064 0.192 0t0.16-0.064q0.224 0 0.304 0.032t0.336-0.032q0.224 0.128 0.368 0.208t0.144 0.24zM15.296 11.872h-0.48q-0.064 0.128-0.192 0.528t-0.384 0.4q-0.128 0-0.368-0.224t-0.24-0.352 0.176-0.544 0.272-0.704q-0.096-0.192-0.032-0.384l0.096-0.288q0.16 0 0.272 0.064t0.272 0.064q0-0.032 0.096-0.112t0.032-0.24z"></path>
</svg>
