<?xml version="1.0" encoding="UTF-8" standalone="no"?>
<!-- Generated by IcoMoon.io -->

<svg
   version="1.1"
   width="1024"
   height="1024"
   viewBox="0 0 1024 1024"
   id="svg295"
   sodipodi:docname="eth.svg"
   inkscape:version="1.1 (c68e22c387, 2021-05-23)"
   xmlns:inkscape="http://www.inkscape.org/namespaces/inkscape"
   xmlns:sodipodi="http://sodipodi.sourceforge.net/DTD/sodipodi-0.dtd"
   xmlns="http://www.w3.org/2000/svg"
   xmlns:svg="http://www.w3.org/2000/svg">
  <defs
     id="defs299" />
  <sodipodi:namedview
     id="namedview297"
     pagecolor="#ffffff"
     bordercolor="#666666"
     borderopacity="1.0"
     inkscape:pageshadow="2"
     inkscape:pageopacity="0.0"
     inkscape:pagecheckerboard="0"
     showgrid="false"
     inkscape:zoom="0.82226562"
     inkscape:cx="512"
     inkscape:cy="512"
     inkscape:window-width="1825"
     inkscape:window-height="1046"
     inkscape:window-x="-11"
     inkscape:window-y="-11"
     inkscape:window-maximized="1"
     inkscape:current-layer="svg295" />
  <title
     id="title290" />
  <g
     id="icomoon-ignore" />
  <path
     d="M926.533 591.264q-2.348 10.569-7.045 2.348t-11.155-27.008-12.917-44.035-11.743-47.558-8.807-38.163-3.523-17.026v200.799l-12.917 8.807t-29.944 19.963-34.641 21.137-27.008 13.504q-171.442 50.493-292.391 59.3t-203.148-9.394-131.517-54.017-76.914-75.153-38.751-73.979-17.026-48.732q-15.266 82.198 2.348 140.324t57.539 96.876 98.051 60.474 123.885 31.118 135.041 8.219 132.105-8.219 114.491-17.026 83.373-19.375q24.659-7.045 41.687-12.917t31.118-12.917 27.595-15.266 31.118-19.963q16.44 37.577 24.073 54.603t13.504 27.595 15.266 23.485 29.356 43.448q-1.174-21.137-4.11-37.577t-7.045-34.641-11.155-41.687-15.266-58.713q7.045-1.174 18.201-14.092t24.073-24.659 25.834-17.026 25.834 8.807l-44.622-129.169q-7.045 22.311-20.55 42.861t-32.292 34.641zM694.030 327.055v-39.925l-55.191-89.244-28.182-17.614-7.045 2.348-7.045-3.523-18.788-15.266q-3.523 0-5.871-1.174t-9.394-1.174q0 2.348-5.871 1.174h-10.569l-15.266 3.523h-12.917t-12.917-2.348q-12.917-2.348-14.678 0t-6.459 2.348l-7.045-2.348q-4.697 0-8.219 2.348t-10.569 2.348q-7.045 2.348-14.678 4.11t-14.678 2.936l-25.834 23.485q-9.394 3.523-24.073 13.504t-28.77 23.485-24.073 29.356-9.981 31.118q0 4.697-1.174 11.743t-1.174 14.092q0 8.219-0.588 11.743t-1.762 5.284-1.762 3.523-0.588 5.284q0 5.871 2.936 18.201t6.459 24.659 7.633 22.311 6.459 12.33l61.062 135.041q-2.348 4.697-5.871 9.981t-3.523 9.981q0 7.045 15.266 7.045 4.697-5.871 5.871-15.852t10.569-9.981q5.871 0 8.219 1.174t5.871 3.523q2.348-5.871 13.504-5.284t14.678 5.284l7.045-3.523 58.713 5.871 39.925-7.045q3.523 0 5.871 1.174t9.394 1.174q1.174-4.697 9.394-8.807t14.092-6.459q-1.174-2.348-0.588-7.045t2.936-9.394l75.153-150.305zM593.043 584.219q3.523-5.871 1.762-11.743t-4.11-5.871q-5.871 0-5.871 2.348t-7.045 8.219q3.523 9.394 8.219 8.219t7.045-1.174zM554.292 580.697q-3.523-2.348-12.917-2.348-4.697 0-5.284 1.174t-2.936 3.523q-2.348-2.348-4.11 1.174t-1.762 9.394q4.697 2.348 3.523 4.697t7.045-1.174h14.092q3.523-3.523 3.523-8.219t-1.174-8.219zM515.541 578.348q-3.523 0-5.284-1.174t-6.459-1.174q-5.871 2.348-9.394 17.614 2.348 2.348 5.284 2.936t5.284 2.936zM517.89 637.060q2.348-3.523 1.762-8.807t-2.936-7.633q-5.871-3.523-9.394-2.936t-4.697 3.523-1.762 5.871-1.762 4.11q3.523 2.348 9.394 4.11t9.394 1.762zM480.314 590.090q0-5.871-4.11-9.394t-8.807-7.045q-8.219 8.219-8.219 15.266 0 4.697 1.762 9.981t6.459 5.284q2.348 0 7.633-5.284t5.284-8.807zM435.691 597.135q12.917-14.092 5.871-17.614t-16.44-1.174q-4.697 8.219-4.11 12.33t2.936 5.871 5.871 1.762 5.871-1.174zM595.391 657.023q0-4.697-2.348-6.459t-1.174-5.284v-31.706q-10.569 0-12.33 5.284t-1.174 11.743-0.588 12.33-9.394 5.871q-4.697 0-9.981-2.348t-14.678-2.348l-2.348-8.219q2.348-2.348 4.11-1.762t4.11-1.762q3.523 0 5.871-1.174l2.348-1.174q-3.523-19.963-9.394-17.614-7.045 3.523-8.219 13.504t-3.523 19.375h-46.97l-7.045-4.697q2.348-5.871 2.348-12.917 0-8.219-5.871-11.743-5.871-1.174-8.219 3.523t-3.523 10.569-2.348 10.569-3.523 4.697q-4.697 0-5.284 0.588t-5.284 0.588q-9.394 0-14.092 4.697-4.697-8.219-3.523-10.569 8.219-3.523 14.092-11.155t3.523-11.155q-16.44 5.871-19.963 7.633t-2.348 4.11 1.762 6.459-7.633 12.33q-9.394-3.523-14.092-2.348l-2.348-2.348q1.174 0 1.174-4.697 0-3.523 0.588-11.155t-6.459-9.981q-7.045 2.348-8.219 4.11t-2.348 4.11q2.348 12.917 2.348 18.788t-1.174 8.807-3.523 4.697-4.697 5.284q5.871 4.697 7.633 8.807t1.762 6.459q7.045 0 15.852 2.348t22.899 4.697q3.523 0 7.045 2.348t7.045 2.348q4.697 0 6.459-2.348t5.284-2.348l49.319 4.697q12.917 0 26.421-1.174t22.899-3.523q12.917-3.523 25.834-8.219t12.917-21.137zM621.225 298.873q-1.174 5.871-4.697 18.201t-9.981 24.659-17.026 22.311-25.834 11.155q-12.917-4.697-22.311-16.44t-9.394-24.659q0-10.569-1.174-15.852t-1.174-9.981q0-5.871 4.697-16.44t8.219-14.092q8.219-9.394 15.852-11.155t14.678-1.762q3.523 0 14.678 2.348t21.724 4.697zM480.314 290.653l-7.045 69.281q0 4.697-6.459 6.459t-13.504 1.762l-27.008 4.697q-3.523-2.348-9.981-9.981t-12.33-17.614-10.569-18.788-4.697-13.504 4.11-11.743 10.569-12.33 12.33-8.807 9.394-3.523q2.348 2.348 7.045 0t5.871-2.348q8.219 0 11.155 1.174t12.33-1.174q8.219 4.697 13.504 7.633t5.284 8.807zM524.936 476.187h-17.614q-2.348 4.697-7.045 19.375t-14.092 14.678q-4.697 0-13.504-8.219t-8.807-12.917 6.459-19.963 9.981-25.834q-3.523-7.045-1.174-14.092l3.523-10.569q5.871 0 9.981 2.348t9.981 2.348q0-1.174 3.523-4.11t1.174-8.807z"
     id="path293"
     style="fill:#ffffff" />
</svg>
