<!-- Generated by IcoMoon.io -->
<svg version="1.1" xmlns="http://www.w3.org/2000/svg" width="1342" height="1024" viewBox="0 0 1342 1024">
<title>florin</title>
<g id="icomoon-ignore">
</g>
<path d="M1212.416 648.192q-5.12-6.144-12.288-10.24t-15.36-4.096h-6.144v4.096q0 6.144 0.512 12.288t2.56 12.288q18.432-3.072 30.72-14.336zM1037.312 556.032v0zM1037.312 562.176l-1.024-1.024-10.24 17.408 1.024 1.024zM672.768 237.568q0-3.072-4.096-9.216-6.144 0-11.264 2.56t-11.264 2.56v23.552l10.24-4.096t10.24-5.12zM1021.952 586.752l-17.408 32.768h1.024zM1326.080 1024v-17.408h-87.040q-7.168-7.168-7.168-19.456 0-19.456 10.752-37.888t10.752-35.84q0-14.336-12.8-18.432t-24.064-3.072h-12.288q-3.072 6.144-3.072 14.336 0 5.12 1.024 9.216t2.048 9.216l-13.312 3.072q-3.072-6.144-3.072-12.288t-1.024-13.312l-30.72 2.048t-30.72 1.024l-4.096 8.192t-7.168 6.144q-2.048 0-2.56-3.072t-2.56-5.12q11.264-11.264 29.696-18.432t38.912-12.288 40.96-9.216 36.864-9.216v-15.36q-23.552-7.168-39.424-31.232t-26.624-54.784-17.408-61.44-12.8-51.2q6.144-5.12 11.776-11.264t10.752-12.288q-5.12-2.048-15.36-4.096-23.552-58.368-44.032-117.248t-41.984-118.272q2.048-4.096 2.048-8.192v-7.168q-8.192 23.552-8.192 53.248 0 30.72-2.56 45.568t-7.168 24.064l-9.728 19.456t-9.216 32.768q4.096-10.24 10.24-23.552t16.384-18.432l1.024 32.768q1.024 18.432 0 36.864t0 37.888l3.072 8.192q0 5.12 1.024 5.12 2.048 0 7.168 2.048l-1.024 8.192v2.048q-2.048 0-5.12-1.024l-6.144-2.048q3.072 17.408-0.512 31.232t-10.24 25.6-16.384 23.552-19.968 24.064q-13.312-17.408-22.016-38.4t-8.704-42.496q0-8.192 2.048-15.872t7.168-12.8l-10.24-30.72t-5.12-31.744q0-3.072 0.512-6.656t2.56-5.632q-10.24-13.312-16.896-44.544t-11.776-66.048-8.192-67.584-6.144-50.176q-14.336-6.144-29.184-5.12t-29.184-2.048v-40.96h-1.024q2.048 17.408-5.632 29.184t-26.112 11.776q-9.216 0-18.432-2.56t-17.408-5.632q1.024 16.384-2.048 50.176t-9.728 70.656-14.848 70.144-17.408 48.64q5.12 6.144 6.144 13.312t1.024 14.336q0 11.264-3.072 26.112t-11.264 23.040q-7.168-14.336-7.168-25.6 0-14.336 5.632-25.088t9.728-23.040l-11.264 4.096q-6.144 0-12.288-6.144h-3.072q-12.288 0-20.48 1.536t-15.872 2.048-16.384-1.536-22.016-9.216v-25.6h2.048q18.432-1.024 37.888 9.216t32.768 22.528q2.048-8.192 2.048-17.408v-17.408q0-27.648-5.632-54.784t-5.632-53.76q0-8.192 2.048-15.872t9.216-12.8q-7.168-4.096-11.776-14.336t-7.68-21.504-4.608-22.528-1.536-18.432q0-14.336 4.096-25.6-37.888-5.12-75.776-7.168t-76.8-6.144q2.048 29.696-0.512 62.976t-8.704 67.072-14.336 66.56-17.408 61.44l7.168 8.192q-12.288-2.048-17.408 8.704t-12.288 16.896q6.144-2.048 11.264-4.608t10.24-5.632l1.024 14.336q2.048 22.528-5.632 43.008t-16.896 40.96l12.288 9.216-7.168 14.336q0 4.096-0.512 10.752t-1.024 13.824-3.072 13.312-7.68 7.168q-2.048-8.192-3.584-14.848t-1.536-14.848v-6.144q0-4.096 2.048-6.144 11.264-6.144 10.24-16.384-5.12 0-9.728 1.024t-9.728 0q1.024-12.288 0-24.576t0-25.6l1.024-17.408q5.12-8.192 9.216-15.872t6.144-16.896q-8.192 8.192-20.992 10.24t-24.064 2.048q-9.216 0-20.992-1.536t-22.016-6.144-17.408-12.288-7.168-19.968q0-5.12 1.024-8.704t3.072-7.68q25.6-1.024 47.104 15.36t33.792 36.864v-4.096q1.024-21.504-4.096-43.008t-5.12-43.008q0-8.192 2.048-16.384t8.192-13.312l-12.288-6.144q0-19.456-3.584-37.888t-2.56-37.888l1.024-13.312h-11.264q-6.144 0-15.872 1.024t-18.944 1.024-16.384-3.584-7.168-12.8q0-7.168 3.072-13.312 10.24 0 20.48 2.56t20.48 0.512q4.096 4.096 8.192 6.656t9.216 5.632l1.024-11.264q1.024-19.456-2.56-37.376t7.68-37.376q-18.432 2.048-36.352 0.512t-35.328-1.536q-1.024-8.192-0.512-18.432t-4.608-18.432q1.024 10.24-1.024 19.968t-4.096 19.968q-13.312 0-25.6-2.048t-24.576-1.024q3.072 8.192 11.264 14.336-3.072 3.072-5.632 11.776t-3.584 19.456-2.048 20.992-1.024 15.36q12.288-4.096 26.112-7.168t25.088-10.24q2.048 5.12 1.024 11.264t1.024 11.264q-10.24 10.24-22.528 10.24-11.264 0-20.992-2.048t-22.016 1.024q4.096 8.192 11.264 14.336-14.336 26.624-22.016 57.344t-28.16 54.272q8.192-4.096 11.776-10.24t8.704-13.312l10.24 2.048v-1.024q0 4.096 1.024 7.68t1.024 6.656q0 20.48-6.656 39.936t-6.656 39.936q11.264-15.36 32.256-25.6t38.4-10.24q8.192 0 12.288 2.048-3.072 7.168-6.656 14.336t-9.728 12.288l11.264-7.168 4.096-1.024q3.072 9.216 3.072 18.432 0 4.096-4.096 12.288-9.216-1.024-17.408-4.608t-16.384-8.704q-11.264 7.168-28.672 7.168-10.24 0-19.968-0.512t-19.968 1.536q2.048 2.048 5.632 4.608t6.656 3.584l1.024 3.072q1.024 23.552-18.432 48.64t-46.592 49.152-54.784 46.080-43.008 40.448q20.48-68.608 52.736-129.024t77.312-115.712v-1.024q-5.12 5.12-25.088 29.696t-46.592 58.368-56.832 72.192-55.808 71.168-41.984 55.296-16.384 24.576q0 11.264 13.312 22.528t21.504 19.456q-2.048-5.12-5.12-8.704t-5.12-7.68l4.096-1.024q6.144 0 9.216 7.68l5.12 12.8-10.24 3.072 14.336 6.144q2.048-5.12 4.096-15.36 13.312 6.144 23.040 11.264t15.872 19.456q0 5.12-3.072 9.216t-7.168 6.144q-5.12-6.144-12.288-17.408t-16.384-11.264h-3.072q2.048 6.144 8.704 14.848t14.848 17.408 16.896 14.848 14.848 6.144l2.048-1.024q-2.048-6.144-6.656-11.264t-4.608-12.288q0-5.12 2.048-13.312 12.288 8.192 23.552 16.896t22.528 16.896l-18.432 8.192q10.24 3.072 23.040 10.752t23.552 17.92 17.92 22.016 6.144 24.064l-1.024 7.168h-146.432l-1.024 9.216v8.192h1263.616zM365.568 545.792v0zM362.496 539.648l-5.12 1.024-1.024 1.024h1.024zM281.6 471.040l-1.024-1.024q0 1.024-3.584 5.12t-3.584 5.12zM271.36 486.4v-1.024q-3.072 2.048-7.168 3.072t-4.096 4.096l1.024 1.024zM139.264 919.552v0zM944.128 399.36l-17.408 1.024h-25.6v-21.504q11.264 5.12 21.504 10.24t21.504 10.24zM1137.664 649.216v0zM881.664 390.144q-11.264 2.048-21.504 2.048h-30.72q1.024-7.168 7.168-10.24t14.336-4.096 16.384-1.024h14.336v13.312zM949.248 472.064h-19.456q-10.24 1.024-19.968-1.024t-18.944-5.12l2.048-11.264q14.336 5.12 28.16 8.704t28.16 8.704zM1085.44 693.248h-1.024v-25.6h1.024v25.6zM883.712 464.896h-47.104t-14.336-2.048l8.192-8.192q5.12 2.048 12.8 1.536t15.872-0.512 14.848 1.536 9.728 7.68zM952.32 542.72l-11.264 1.024q-22.528 1.024-48.128-7.168l-2.048-10.24q16.384 2.048 31.744 6.656t29.696 9.728zM1228.8 857.088q-43.008 12.288-86.016 21.504 18.432-6.144 32.256-16.896t31.232-17.92q7.168 0 12.288 4.608t10.24 8.704zM881.664 521.216l-10.24 18.432q-16.384 0-32.256-1.024t-31.232-5.12q13.312-5.12 27.136-9.728t28.16-4.608q5.12 0 9.216 0.512t9.216 1.536zM943.104 630.784l-30.72-3.072zM723.968 366.592q-8.192 2.048-15.36 2.048h-36.864q-9.216 0-19.456-2.048l-3.072-9.216-4.096-5.12q-7.168 7.168-7.168 14.336l-6.144 1.024q-14.336 1.024-27.648-1.536t-26.624-4.608q11.264-11.264 29.184-14.336t33.28-3.072q18.432 0 43.52 4.608t40.448 17.92zM997.376 723.968h-3.072q-18.432 1.024-36.864-1.024t-36.864-3.072q-1.024-5.12-1.536-9.216t-0.512-9.216v-8.192q9.216 0 20.992 1.536t23.040 5.12 20.992 9.728 13.824 14.336zM712.704 445.44l-1.024 1.024-60.416-3.072v-1.024zM881.664 624.64l-55.296-2.048zM1067.008 803.84q-5.12 11.264-7.168 29.184t-2.56 34.816-1.024 30.72-3.584 17.92q-10.24 4.096-16.384 4.096-8.192 0-9.728-5.632t-1.536-12.8q0-11.264 0.512-24.576t-10.752-21.504q1.024-13.312 0-25.6t-1.024-24.576 2.048-24.064 9.216-22.016q-14.336 2.048-14.336-11.264l2.048-7.168q1.024 0 5.632 1.536t4.608 3.584v4.096l2.048 6.144q10.24-10.24 16.384-22.016t11.264-24.064l10.24-2.048q2.048 23.552 2.048 48.128 0 23.552 2.048 47.104zM1070.080 847.872l-3.072 5.12zM912.384 718.848v0zM1118.208 926.72l-3.072 5.12zM646.144 441.344l-41.984 2.048v-1.024l41.984-2.048v1.024zM807.936 619.52l-7.168 5.12 6.144-6.144zM1068.032 883.712l-3.072 27.648-1.024-1.024 3.072-26.624h1.024zM777.216 647.168h-1.024l-3.072-15.36zM882.688 706.56l-1.024 10.24q-25.6-4.096-50.176-5.12t-50.176-5.12q5.12-7.168 14.848-11.776t21.504-7.168 23.040-2.56h19.456l21.504 1.024zM670.72 518.144l-3.072 18.432q-4.096-9.216-11.776-11.264t-15.872-4.096v4.096q0 7.168 1.536 8.192t6.656 5.12l-11.264 6.144-2.048-10.24q-9.216 6.144-21.504 6.144-11.264 0-23.552-1.536t-23.552 0.512l-10.24-6.144q14.336-11.264 30.72-14.336t33.792-3.072q13.312 0 25.6 1.536t24.576 0.512zM747.52 653.312v1.024l-27.648-4.096zM394.24 333.824v0zM712.704 648.192l-1.024 1.024q-1.024 0-7.168-1.536t-13.312-3.584-13.824-4.096-8.704-2.048v-1.024zM1005.568 942.080q-17.408 4.096-35.84 4.608t-35.84 0.512q0-8.192-1.536-15.36t-3.584-15.36q9.216 1.024 20.48 1.536t22.016 2.56 19.968 7.168 14.336 14.336zM464.896 435.2q-13.312 3.072-25.6 3.072t-25.6 2.048q-1.024-5.12-1.536-10.24t-0.512-10.24q14.336-1.024 27.648 4.096t25.6 11.264zM761.856 745.472q-5.12 1.024-9.216 1.536t-9.216 0.512q-8.192 0-20.992-2.56t-13.824-13.824q13.312 3.072 26.624 5.632t26.624 8.704zM402.432 434.176v0zM646.144 637.952v1.024l-70.656-3.072v-1.024zM902.144 941.056l-3.072-5.12h1.024zM699.392 740.352l-15.36-14.336zM677.888 726.016q-2.048 7.168 0 13.312l-10.24 3.072v-21.504q5.12 3.072 10.24 5.12zM384 433.152q-10.24 2.048-16.384 2.048-11.264 0-21.504-1.536t-21.504-3.584q12.288-8.192 28.672-10.752t30.72-4.608v18.432zM854.016 922.624q0 16.384-11.264 29.696-11.264 0-20.48 3.072-7.168-4.096-12.288-13.312-8.192 8.192-19.456 10.752t-21.504 2.56h-27.648q-3.072-10.24-3.072-21.504 15.36 0 29.184 3.584t27.136 11.776q8.192-5.12 8.192-14.336 0-5.12-1.024-10.752t0-10.752q12.288 3.072 20.992 2.048t19.968-1.024 11.264 8.192zM645.12 718.848v18.432l-22.528 1.024q-23.552 2.048-48.128-2.56t-48.128-8.704q21.504-4.096 41.984-9.216t43.008-5.12q18.432 0 33.792 6.144zM468.992 651.264q-2.048 0-9.728-1.536t-16.896-3.584-17.92-3.584-11.776-2.56zM716.8 935.936v4.096q-11.264-4.096-16.384-11.264h3.072l10.24 4.096zM385.024 641.024l-58.368-3.072zM499.712 752.64h-20.48t-24.576-1.024-23.552-3.584-17.408-8.704l5.12-10.24q20.48 5.12 40.448 11.264t40.448 12.288zM433.152 734.208v0zM696.32 1008.64h-1.024v-2.048h1.024v2.048zM281.6 631.808h-1.024v-12.288h1.024v12.288zM627.712 918.528q-1.024 9.216-3.072 18.432t-2.048 18.432l-45.056 1.024-21.504-1.024-8.192-15.36q-3.072-2.048-3.072-9.216l1.024-9.216q20.48 0 40.96-0.512t40.96-2.56zM381.952 744.448q-22.528-1.024-44.544-3.584t-44.544-1.536h-10.24q8.192-9.216 19.456-12.8t23.552-4.608 24.576-1.024 23.552-2.048q4.096 5.12 5.12 11.776t3.072 13.824zM533.504 931.84l-4.096 5.12q0-1.024 1.536-3.072t2.56-2.048zM508.928 934.912v0zM271.36 675.84q-1.024 7.168-1.536 16.896t-2.56 18.944-6.656 16.384-13.824 7.168q4.096-15.36 11.264-29.696t13.312-29.696zM274.432 645.12q-18.432 34.816-42.496 65.024t-48.64 59.904q18.432-32.768 34.816-68.608t44.032-61.44zM424.96 922.624v0l-6.144-12.288h1.024zM424.96 929.792h-1.024v-2.048h1.024v2.048zM251.904 749.568q-6.144 14.336-14.336 29.184t-16.384 29.184v-3.072q-1.024-14.336 7.168-30.72t13.312-29.696zM223.232 816.128l-6.144 2.048v-1.024h1.024l5.12-2.048v1.024zM178.176 785.408v0zM172.032 789.504v0zM366.592 940.032l-15.36 1.024-16.384-1.024-2.048-22.528-3.072-1.024q-7.168 0-12.8 7.168t-11.776 11.264v-6.144q2.048-8.192-7.168-11.264l-5.12 10.24-11.264 2.048-2.048-12.288q-2.048-1.024-5.12-1.024-2.048 0-6.144 5.632t-6.144 7.68q-14.336-9.216-30.72-11.264t-33.792-4.096l-7.168-6.144q33.792-2.048 68.608-5.632t68.608-3.584h38.912q-1.024 19.456 0 40.96zM197.632 852.992q-4.096 14.336-12.288 25.088t-14.336 24.064q-11.264-8.192-22.016-16.384t-22.016-17.408q14.336-5.12 30.208-10.752t31.232-5.632q6.144 0 9.216 1.024zM150.528 820.224q-8.192 11.264-17.408 22.528t-20.48 21.504q-12.288-8.192-24.576-15.872t-23.552-15.872q16.384-5.12 32.768-9.728t33.792-4.608q5.12 0 9.728 0.512t9.728 1.536zM78.848 793.6q-7.168 6.144-15.36 15.872t-17.408 9.728q-5.12 0-13.312-6.144 4.096-9.216 19.968-14.336t25.088-5.12h1.024zM428.032 737.28l-5.12 2.048z"></path>
</svg>
