<?xml version="1.0" encoding="UTF-8" standalone="no"?>
<!-- Generated by IcoMoon.io -->

<svg
   version="1.1"
   width="1008"
   height="1024"
   viewBox="0 0 1008 1024"
   id="svg25"
   sodipodi:docname="icircumflex.svg"
   inkscape:version="1.1 (c68e22c387, 2021-05-23)"
   xmlns:inkscape="http://www.inkscape.org/namespaces/inkscape"
   xmlns:sodipodi="http://sodipodi.sourceforge.net/DTD/sodipodi-0.dtd"
   xmlns="http://www.w3.org/2000/svg"
   xmlns:svg="http://www.w3.org/2000/svg">
  <defs
     id="defs29" />
  <sodipodi:namedview
     id="namedview27"
     pagecolor="#ffffff"
     bordercolor="#666666"
     borderopacity="1.0"
     inkscape:pageshadow="2"
     inkscape:pageopacity="0.0"
     inkscape:pagecheckerboard="0"
     showgrid="false"
     inkscape:zoom="0.7890625"
     inkscape:cx="504.39604"
     inkscape:cy="512"
     inkscape:window-width="1825"
     inkscape:window-height="1046"
     inkscape:window-x="-11"
     inkscape:window-y="-11"
     inkscape:window-maximized="1"
     inkscape:current-layer="svg25" />
  <title
     id="title20" />
  <g
     id="icomoon-ignore" />
  <path
     d="M680.094 249.789v-38.642l-52.995-82.803-25.393-17.664-6.625 2.208-7.728-2.208-16.561-15.457q-3.311 0-5.521-0.553t-8.832-0.553q0 1.104-6.625 1.104h-9.936l-14.353 2.208h-12.147t-11.040-2.208q-12.147-2.208-14.353 0t-6.625 2.208l-6.625-2.208q-4.417 0-7.728 2.208t-9.936 2.208q-6.625 2.208-13.249 3.864t-13.249 3.864l-24.289 22.081q-8.832 3.311-22.632 12.147t-27.049 21.529-23.185 27.6-9.936 30.361q0 4.417-1.104 10.489t-1.104 13.8-0.553 11.040-1.657 4.968-1.657 2.76-0.553 5.521q0 5.521 2.76 16.561t6.072 22.632 7.175 20.978 6.072 11.593l57.41 126.966q-2.208 5.521-5.521 10.489t-3.311 8.281q0 6.625 15.457 6.625 3.311-5.521 4.417-14.904t9.936-9.385q5.521 0 8.281 1.104t6.072 3.311q2.208-4.417 12.147-4.417t13.249 4.417l6.625-2.208 55.203 4.417 38.642-6.625q3.311 0 4.968 1.104t8.281 1.104q2.208-4.417 9.936-8.281t13.249-6.072q-2.208-2.208-1.657-6.625t2.76-7.728l71.763-142.422zM584.042 490.471q3.311-5.521 2.208-11.040t-3.311-5.521q-5.521 0-5.521 2.208t-7.728 7.728q4.417 8.832 8.281 8.281t6.072-1.657zM547.61 488.264q-5.521-3.311-11.040-3.311t-6.072 1.104-2.76 3.311q-2.208-2.208-3.311 1.657t-1.104 9.385q4.417 2.208 3.311 3.864t6.625-1.657h13.249q5.521-5.521 1.104-14.353zM511.175 486.054q-3.311 0-4.968-1.657t-6.072-1.657q-5.521 2.208-8.832 17.664 2.208 2.208 5.521 2.208t5.521 2.208zM513.385 540.153q4.417-8.832-1.104-15.457-5.521-3.311-8.281-2.208t-4.417 3.864-2.208 5.521-1.657 3.864q8.832 4.417 17.664 4.417zM478.054 495.992q0-7.728-12.147-15.457-7.728 7.728-7.728 14.353 0 4.417 1.657 9.385t6.072 4.968q2.208 0 7.175-4.968t4.968-8.281zM437.205 502.615q5.521-6.625 6.625-10.489t-1.657-5.521-6.625-2.208-8.281 0.553q-8.832 15.457-2.208 17.664t12.147 0zM587.356 558.921q0-4.417-2.208-6.072t-2.208-3.864v-30.914q-9.936 0-11.040 4.968t-1.104 11.593-0.553 11.593-8.281 4.968q-4.417 0-9.936-1.657t-14.353-1.657l-2.208-8.832q2.208-1.104 4.417-1.104t4.417-2.208q3.311 0 4.968-1.104l1.657-1.104q-3.311-18.768-8.832-16.561-5.521 4.417-6.625 13.8t-3.311 17.113h-44.161l-7.728-4.417q2.208-5.521 2.208-12.147 0-7.728-4.417-11.040-5.521-1.104-7.728 3.311t-3.864 9.936-2.208 9.936-2.76 4.417q-4.417 0-4.968 0.553t-4.968 0.553q-9.936 0-14.353 4.417-3.311-6.625-3.311-8.832 8.832-4.417 13.8-11.040t3.864-11.040q-15.457 5.521-19.321 7.175t-2.76 3.864 1.657 6.072-7.175 11.593q-3.311-1.104-6.072-1.657t-6.072-0.553l-2.208-2.208v-4.417q0-3.311 1.104-10.489t-6.625-9.385q-5.521 2.208-7.175 4.417t-2.76 3.311q2.208 12.147 2.208 17.664t-1.104 8.281-3.311 4.417-4.417 6.072q11.040 7.728 8.832 13.249 6.625 0 14.904 2.208t21.529 4.417q3.311 0 6.625 2.208t6.625 2.208q4.417 0 6.625-2.208t4.417-2.208l46.37 4.417q12.147 0 25.393-1.104t22.081-3.311q12.147-2.208 24.289-7.175t12.147-20.425zM1007.996 852.599q0-5.521-9.385-12.696t-21.529-13.8-23.736-11.593-14.904-6.072q-3.311 0-6.072 2.208t-7.175 2.208-9.936-2.208-11.040 0q-2.208 5.521-3.311 9.385t-3.311 6.072q-13.249-2.208-19.321-3.311t-12.696-3.311l-5.521-3.311-41.953-18.768q-3.311 0-2.76-1.104t-3.864-1.104-19.321-6.625-24.842-8.832l-94.948-44.161-5.521-3.311-13.249-4.417-54.099-27.6q-13.249-2.208-17.113-3.864t-4.968-8.281l33.121-14.353q3.311-2.208 6.625-3.311t8.832-3.311l66.242-36.436q9.936-3.311 15.457-3.311 4.417 0 6.625-1.104t6.625-1.104 4.417-2.208q0-3.311 6.625-3.311 4.417-2.208 13.249-2.208l50.785-24.289q5.521 0 6.625 1.104t2.208 3.864 3.864 9.385 12.696 17.664l27.6-3.311 6.625-3.311 15.457-4.417q6.625 2.208 16.008-2.76t17.664-12.147 14.904-16.008 9.936-15.457q-8.832-1.104-10.489-4.968t-2.208-7.175-3.311-6.072-13.8-2.76q-12.147-3.311-12.147-16.561 0-1.104 2.208-5.521t4.417-9.385 4.417-9.385 2.208-5.521l-3.864-5.521t-9.936-10.489-13.249-8.281-13.8 0q-6.625 0-8.832-2.208-5.521 0-11.040 2.208t-8.832 2.208q-7.728 0-10.489-2.208t-11.593 0l-23.185 11.040-28.706 52.995q15.457 4.417 11.040 13.249t-16.561 5.521l-7.728 4.417-126.966 51.889-17.664 6.625-7.728 5.521q-6.625 2.208-11.040 4.417t-8.832 3.311l-75.074 32.017-89.427-39.746q-6.625-2.208-10.489-3.311t-8.281-1.104-6.072-2.208-4.968-2.208l-141.317-57.41q-4.417-4.417-6.625-13.8t-5.521-20.978-10.489-23.185-21.529-20.425q-5.521-2.208-7.175-3.311t-8.281-1.104l-6.625 4.417-11.040-2.208q-4.417 0-4.968-2.208t-4.968-2.208-5.521 2.208-3.311 3.311l-16.561-1.104q-5.521 0-10.489 4.417t-8.281 9.385-6.072 9.385l-2.76 4.417q3.311 5.521 9.385 14.904t6.072 13.8q0 2.208-4.968 11.040t-19.321 5.521q-5.521 5.521-8.832 11.593t-8.832 9.385l46.37 47.474q4.417-5.521 10.489-3.311t13.8 1.104l5.521 3.311 7.728 4.417 29.81-2.208q1.104-1.104 3.311-5.521t4.417-9.385 5.521-8.832 6.625-3.864q17.664 0 29.257 11.040t23.736 11.040q4.417 0 6.625 2.208t4.417 3.311h11.040l88.324 40.85q17.664 11.040 28.706 13.8t18.768 11.593l-16.561 11.040h-4.417t-4.417 1.104l-55.203 27.6q-3.311 0-6.625 1.104t-6.625 1.104l-83.907 40.85-12.147 5.521q-15.457 6.625-25.946 10.489t-20.425 7.175l-35.329 17.664q-3.311 0-5.521 1.104t-6.625 1.104q-2.208 0-2.76 0.553l-1.657 1.657t-4.417 1.657-11.040 0.553l-11.040-17.664h-35.329q-2.208 0-12.696 5.521t-22.081 13.249-20.425 15.457-8.832 11.040q0 8.832 11.040 19.321t19.872 10.489q3.311 0 9.385-0.553t11.593 0.553q2.208 3.311 1.657 4.417l-16.008 32.017 7.728 9.936 58.514 1.104q5.521-2.208 10.489-4.968t9.385-2.76 4.417 1.104 4.417 1.104q2.208 0 8.281-3.311t12.147-8.281 11.040-9.385 4.968-7.728q0-4.417-7.728-12.147t-7.728-12.147 0.553-6.072 2.76-2.208 8.281-1.657 18.217-5.521l5.521-3.311 35.329-13.249 6.625-2.208 24.289-15.457 55.203-22.081 27.6-16.561q5.521 0 10.489-1.104t9.385-1.104l6.625-3.311 47.474-17.664 9.936-2.208 51.889-25.393q6.625-2.208 12.696-4.417t10.489-2.208 10.489 2.208 9.385 2.208l5.521 3.311 8.832 4.417 44.161 19.872 58.514 23.185q18.768 3.311 30.361 9.385t31.464 12.696l34.225 15.457q12.147 2.208 20.978 8.832t20.978 9.936l68.45 29.81q12.147-2.208 13.249 3.311l1.104 5.521q0 5.521-6.625 13.249t-6.625 11.040q0 6.625 8.281 12.696t18.768 9.936 19.321 6.072 9.936 1.104l49.682 3.311q4.417 0 11.593-2.76t10.489-4.968q-6.625-12.147-9.385-19.872t-6.072-13.249q3.311-7.728 8.832-7.728 4.417 0 5.521 1.104t4.417 1.104q4.417 0 6.072-2.208t4.968-2.208q8.832 0 16.561-9.385t7.728-17.113zM611.645 223.293q-2.208 5.521-4.968 16.561t-9.385 22.632-16.561 21.529-24.289 11.040q-12.147-4.417-20.425-16.008t-9.385-22.632q0-11.040-1.104-15.457t-1.104-8.832q0-5.521 4.417-16.008t7.728-13.8q7.728-8.832 15.457-9.936t14.353-1.104q3.311 0 13.249 2.208l19.872 4.417zM478.054 215.565l-6.625 65.138q0 3.311-6.072 5.521t-12.696 2.208l-25.393 4.417q-3.311-2.208-9.385-9.936t-11.593-16.561-9.936-17.113-4.417-12.696q0-5.521 4.417-11.593t9.936-11.593 11.040-8.832 8.832-2.208q2.208 2.208 6.625 0t5.521-2.208q7.728 0 10.489 1.104t11.593-1.104q17.664 6.625 17.664 15.457zM520.008 390.002h-15.457q-3.311 3.311-7.728 17.113t-13.249 13.8q-4.417 0-12.696-7.728t-8.281-12.147 6.072-18.768 9.385-24.289q-2.208-6.625 0-13.249l3.311-9.936q4.417 0 8.281 2.208t9.385 2.208q1.104-1.104 4.417-3.311t1.104-7.728z"
     id="path23"
     style="fill:#ffffff" />
</svg>
