<!-- Generated by IcoMoon.io -->
<svg version="1.1" xmlns="http://www.w3.org/2000/svg" width="29" height="32" viewBox="0 0 29 32">
<title>icircumflex</title>
<path d="M19.968 5.824v-1.12l-1.536-2.4-0.736-0.512-0.192 0.064-0.224-0.064-0.48-0.448q-0.096 0-0.16-0.016t-0.256-0.016q0 0.032-0.192 0.032h-0.288l-0.416 0.064h-0.352t-0.32-0.064q-0.352-0.064-0.416 0t-0.192 0.064l-0.192-0.064q-0.128 0-0.224 0.064t-0.288 0.064q-0.192 0.064-0.384 0.112t-0.384 0.112l-0.704 0.64q-0.256 0.096-0.656 0.352t-0.784 0.624-0.672 0.8-0.288 0.88q0 0.128-0.032 0.304t-0.032 0.4-0.016 0.32-0.048 0.144-0.048 0.080-0.016 0.16q0 0.16 0.080 0.48t0.176 0.656 0.208 0.608 0.176 0.336l1.664 3.68q-0.064 0.16-0.16 0.304t-0.096 0.24q0 0.192 0.448 0.192 0.096-0.16 0.128-0.432t0.288-0.272q0.16 0 0.24 0.032t0.176 0.096q0.064-0.128 0.352-0.128t0.384 0.128l0.192-0.064 1.6 0.128 1.12-0.192q0.096 0 0.144 0.032t0.24 0.032q0.064-0.128 0.288-0.24t0.384-0.176q-0.064-0.064-0.048-0.192t0.080-0.224l2.080-4.128zM17.184 12.8q0.096-0.16 0.064-0.32t-0.096-0.16q-0.16 0-0.16 0.064t-0.224 0.224q0.128 0.256 0.24 0.24t0.176-0.048zM16.128 12.736q-0.16-0.096-0.32-0.096t-0.176 0.032-0.080 0.096q-0.064-0.064-0.096 0.048t-0.032 0.272q0.128 0.064 0.096 0.112t0.192-0.048h0.384q0.16-0.16 0.032-0.416zM15.072 12.672q-0.096 0-0.144-0.048t-0.176-0.048q-0.16 0.064-0.256 0.512 0.064 0.064 0.16 0.064t0.16 0.064zM15.136 14.24q0.128-0.256-0.032-0.448-0.16-0.096-0.24-0.064t-0.128 0.112-0.064 0.16-0.048 0.112q0.256 0.128 0.512 0.128zM14.112 12.96q0-0.224-0.352-0.448-0.224 0.224-0.224 0.416 0 0.128 0.048 0.272t0.176 0.144q0.064 0 0.208-0.144t0.144-0.24zM12.928 13.152q0.16-0.192 0.192-0.304t-0.048-0.16-0.192-0.064-0.24 0.016q-0.256 0.448-0.064 0.512t0.352 0zM17.28 14.784q0-0.128-0.064-0.176t-0.064-0.112v-0.896q-0.288 0-0.32 0.144t-0.032 0.336-0.016 0.336-0.24 0.144q-0.128 0-0.288-0.048t-0.416-0.048l-0.064-0.256q0.064-0.032 0.128-0.032t0.128-0.064q0.096 0 0.144-0.032l0.048-0.032q-0.096-0.544-0.256-0.48-0.16 0.128-0.192 0.4t-0.096 0.496h-1.28l-0.224-0.128q0.064-0.16 0.064-0.352 0-0.224-0.128-0.32-0.16-0.032-0.224 0.096t-0.112 0.288-0.064 0.288-0.080 0.128q-0.128 0-0.144 0.016t-0.144 0.016q-0.288 0-0.416 0.128-0.096-0.192-0.096-0.256 0.256-0.128 0.4-0.32t0.112-0.32q-0.448 0.16-0.56 0.208t-0.080 0.112 0.048 0.176-0.208 0.336q-0.096-0.032-0.176-0.048t-0.176-0.016l-0.064-0.064v-0.128q0-0.096 0.032-0.304t-0.192-0.272q-0.16 0.064-0.208 0.128t-0.080 0.096q0.064 0.352 0.064 0.512t-0.032 0.24-0.096 0.128-0.128 0.176q0.32 0.224 0.256 0.384 0.192 0 0.432 0.064t0.624 0.128q0.096 0 0.192 0.064t0.192 0.064q0.128 0 0.192-0.064t0.128-0.064l1.344 0.128q0.352 0 0.736-0.032t0.64-0.096q0.352-0.064 0.704-0.208t0.352-0.592zM29.472 23.296q0-0.16-0.272-0.368t-0.624-0.4-0.688-0.336-0.432-0.176q-0.096 0-0.176 0.064t-0.208 0.064-0.288-0.064-0.32 0q-0.064 0.16-0.096 0.272t-0.096 0.176q-0.384-0.064-0.56-0.096t-0.368-0.096l-0.16-0.096-1.216-0.544q-0.096 0-0.080-0.032t-0.112-0.032-0.56-0.192-0.72-0.256l-2.752-1.28-0.16-0.096-0.384-0.128-1.568-0.8q-0.384-0.064-0.496-0.112t-0.144-0.24l0.96-0.416q0.096-0.064 0.192-0.096t0.256-0.096l1.92-1.056q0.288-0.096 0.448-0.096 0.128 0 0.192-0.032t0.192-0.032 0.128-0.064q0-0.096 0.192-0.096 0.128-0.064 0.384-0.064l1.472-0.704q0.16 0 0.192 0.032t0.064 0.112 0.112 0.272 0.368 0.512l0.8-0.096 0.192-0.096 0.448-0.128q0.192 0.064 0.464-0.080t0.512-0.352 0.432-0.464 0.288-0.448q-0.256-0.032-0.304-0.144t-0.064-0.208-0.096-0.176-0.4-0.080q-0.352-0.096-0.352-0.48 0-0.032 0.064-0.16t0.128-0.272 0.128-0.272 0.064-0.16l-0.112-0.16t-0.288-0.304-0.384-0.24-0.4 0q-0.192 0-0.256-0.064-0.16 0-0.32 0.064t-0.256 0.064q-0.224 0-0.304-0.064t-0.336 0l-0.672 0.32-0.832 1.536q0.448 0.128 0.32 0.384t-0.48 0.16l-0.224 0.128-3.68 1.504-0.512 0.192-0.224 0.16q-0.192 0.064-0.32 0.128t-0.256 0.096l-2.176 0.928-2.592-1.152q-0.192-0.064-0.304-0.096t-0.24-0.032-0.176-0.064-0.144-0.064l-4.096-1.664q-0.128-0.128-0.192-0.4t-0.16-0.608-0.304-0.672-0.624-0.592q-0.16-0.064-0.208-0.096t-0.24-0.032l-0.192 0.128-0.32-0.064q-0.128 0-0.144-0.064t-0.144-0.064-0.16 0.064-0.096 0.096l-0.48-0.032q-0.16 0-0.304 0.128t-0.24 0.272-0.176 0.272l-0.080 0.128q0.096 0.16 0.272 0.432t0.176 0.4q0 0.064-0.144 0.32t-0.56 0.16q-0.16 0.16-0.256 0.336t-0.256 0.272l1.344 1.376q0.128-0.16 0.304-0.096t0.4 0.032l0.16 0.096 0.224 0.128 0.864-0.064q0.032-0.032 0.096-0.16t0.128-0.272 0.16-0.256 0.192-0.112q0.512 0 0.848 0.32t0.688 0.32q0.128 0 0.192 0.064t0.128 0.096h0.32l2.56 1.184q0.512 0.32 0.832 0.4t0.544 0.336l-0.48 0.32h-0.128t-0.128 0.032l-1.6 0.8q-0.096 0-0.192 0.032t-0.192 0.032l-2.432 1.184-0.352 0.16q-0.448 0.192-0.752 0.304t-0.592 0.208l-1.024 0.512q-0.096 0-0.16 0.032t-0.192 0.032q-0.064 0-0.080 0.016l-0.048 0.048t-0.128 0.048-0.32 0.016l-0.32-0.512h-1.024q-0.064 0-0.368 0.16t-0.64 0.384-0.592 0.448-0.256 0.32q0 0.256 0.32 0.56t0.576 0.304q0.096 0 0.272-0.016t0.336 0.016q0.064 0.096 0.048 0.128l-0.464 0.928 0.224 0.288 1.696 0.032q0.16-0.064 0.304-0.144t0.272-0.080 0.128 0.032 0.128 0.032q0.064 0 0.24-0.096t0.352-0.24 0.32-0.272 0.144-0.224q0-0.128-0.224-0.352t-0.224-0.352 0.016-0.176 0.080-0.064 0.24-0.048 0.528-0.16l0.16-0.096 1.024-0.384 0.192-0.064 0.704-0.448 1.6-0.64 0.8-0.48q0.16 0 0.304-0.032t0.272-0.032l0.192-0.096 1.376-0.512 0.288-0.064 1.504-0.736q0.192-0.064 0.368-0.128t0.304-0.064 0.304 0.064 0.272 0.064l0.16 0.096 0.256 0.128 1.28 0.576 1.696 0.672q0.544 0.096 0.88 0.272t0.912 0.368l0.992 0.448q0.352 0.064 0.608 0.256t0.608 0.288l1.984 0.864q0.352-0.064 0.384 0.096l0.032 0.16q0 0.16-0.192 0.384t-0.192 0.32q0 0.192 0.24 0.368t0.544 0.288 0.56 0.176 0.288 0.032l1.44 0.096q0.128 0 0.336-0.080t0.304-0.144q-0.192-0.352-0.272-0.576t-0.176-0.384q0.096-0.224 0.256-0.224 0.128 0 0.16 0.032t0.128 0.032q0.128 0 0.176-0.064t0.144-0.064q0.256 0 0.48-0.272t0.224-0.496zM17.984 5.056q-0.064 0.16-0.144 0.48t-0.272 0.656-0.48 0.624-0.704 0.32q-0.352-0.128-0.592-0.464t-0.272-0.656q0-0.32-0.032-0.448t-0.032-0.256q0-0.16 0.128-0.464t0.224-0.4q0.224-0.256 0.448-0.288t0.416-0.032q0.096 0 0.384 0.064l0.576 0.128zM14.112 4.832l-0.192 1.888q0 0.096-0.176 0.16t-0.368 0.064l-0.736 0.128q-0.096-0.064-0.272-0.288t-0.336-0.48-0.288-0.496-0.128-0.368q0-0.16 0.128-0.336t0.288-0.336 0.32-0.256 0.256-0.064q0.064 0.064 0.192 0t0.16-0.064q0.224 0 0.304 0.032t0.336-0.032q0.512 0.192 0.512 0.448zM15.328 9.888h-0.448q-0.096 0.096-0.224 0.496t-0.384 0.4q-0.128 0-0.368-0.224t-0.24-0.352 0.176-0.544 0.272-0.704q-0.064-0.192 0-0.384l0.096-0.288q0.128 0 0.24 0.064t0.272 0.064q0.032-0.032 0.128-0.096t0.032-0.224z"></path>
</svg>
