<!-- Generated by IcoMoon.io -->
<svg version="1.1" xmlns="http://www.w3.org/2000/svg" width="1024" height="1024" viewBox="0 0 1024 1024">
<title>florin</title>
<g id="icomoon-ignore">
</g>
<path fill="#000" d="M916.48 502.784h-1.024l-4.096 38.912h1.024zM704.512 387.072l-21.504-21.504h-1.024l22.528 22.528v-1.024zM752.64 447.488l-19.456-15.36h-1.024q2.048 2.048 10.24 8.704t9.216 6.656h1.024zM729.088 430.080l-37.888-37.888h-1.024l37.888 37.888h1.024zM714.752 451.584l-8.192-7.168 8.192 8.192v-1.024zM737.28 488.448l-2.048-6.144v1.024l1.024 5.12v1.024zM743.424 500.736v0zM752.64 517.12l-5.12-10.24zM759.808 529.408l-4.096-10.24h-1.024zM689.152 464.896l-2.048-8.192h-1.024l2.048 8.192h1.024zM720.896 523.264l-29.696-54.272h-1.024l29.696 54.272h1.024zM908.288 548.864h-1.024l-53.248 248.832q6.144-9.216 9.216-20.48v11.264q0 4.096-2.048 8.192 7.168-10.24 10.24-21.504 2.048 5.12 3.072 9.728t6.144 9.728q2.048-8.192 4.096-16.896t2.048-16.896q0-7.168-2.048-11.264-2.048 2.048-3.072 4.608t-3.072 4.608q1.024-5.12 0.512-10.24t-0.512-10.24q0-8.192 6.144-14.336 2.048 8.192 2.048 12.288l1.024 1.024q7.168-47.104 11.776-94.208t8.704-94.208zM705.536 538.624l-34.816-25.6h-1.024q9.216 7.168 16.896 16.896t18.944 9.728v-1.024zM942.080 791.552v-1.024h-1.024v1.024h1.024zM772.096 683.008h-1.024q-1.024 2.048-6.144 11.264t-5.12 11.264h1.024zM871.424 803.84v-2.048h-1.024v2.048h1.024zM669.696 675.84v0zM741.376 734.208v-1.024l-12.288 20.48zM667.648 681.984v0zM694.272 752.64v-2.048h-1.024v2.048h1.024zM677.888 752.64v0zM306.176 368.64l-19.456 24.576zM676.864 764.928l-4.096-6.144v1.024l3.072 5.12h1.024zM1030.144 1018.88q-31.744-2.048-63.488-3.584t-63.488-1.536q-9.216 0-19.456 1.536t-19.456 3.584q-3.072-7.168-3.072-16.384 0-12.288 9.216-18.432t20.992-10.752 20.992-10.752 9.216-18.432q0-8.192-5.12-18.432 14.336-9.216 27.648-31.232t24.576-48.64 20.48-52.736 16.384-42.496h-3.072q-8.192 0-15.36 3.072l-14.336 6.144q-4.096 0-4.096-4.096v-7.168q-2.048 5.12-2.048 9.216t-2.048 8.192l-4.096-8.192q0-5.12 2.048-10.24l4.096-10.24q-1.024-1.024-1.536-3.584t0.512-2.56h5.12q-4.096-6.144-4.608-13.312t0-14.848 0.512-14.848-3.072-12.288q1.024-2.048 3.584-7.68t2.56-7.68q0-11.264-6.144-17.408-3.072 20.48-5.12 40.96t-2.048 40.96q0 11.264 0.512 22.016t1.536 22.016q-9.216 3.072-9.216 16.384 0 5.12-1.024 8.192t-7.168 4.096q0 2.048 0.512 4.608t0.512 5.632l-1.024 7.168v2.048q7.168 0 13.312-3.072 10.24 2.048 14.336 5.12-2.048 2.048-9.216 8.192t-11.264 6.144q-2.048 0-2.56-3.584t-2.56-5.632l-2.048 13.312-8.192-2.048 2.048-54.272 11.264 2.048q-3.072-5.12-5.632-10.24t-2.56-10.24q0-30.72 7.168-62.976t11.264-62.976q2.048 1.024 5.632 2.56t5.632 0.512q4.096-17.408 2.56-34.816t3.584-34.816q-13.312 17.408-17.408 37.888t-15.36 38.912l-2.048-22.528t0-22.528v-12.288h-1.024q-1.024 17.408-4.096 51.2t-8.192 69.632-11.776 67.072-15.872 42.496l7.168 12.288q6.144-12.288 9.728-25.088t8.704-25.088q1.024 5.12 1.536 9.216t0.512 9.216q0 8.192-2.56 24.064t-10.752 19.968l-7.168-11.264h-1.024q-3.072 5.12-3.072 10.24 0 1.024 3.072 4.096-8.192 5.12-16.384 7.168t-17.408 3.072l-6.144-12.288-7.168-6.144-2.048-9.216q0-2.048 3.072-3.072t5.12-3.072l1.024 10.24 12.288-2.048q2.048-5.12 2.048-9.216v-19.456l-15.36 14.336 2.048-13.312-6.144 4.096-2.048 4.096v-6.144q-3.072-7.168-5.12-14.336t-5.12-14.336q0-30.72-4.608-60.416t-4.608-59.392q0-22.528 7.168-44.032t17.92-41.472 23.040-39.424 22.528-38.912l11.264 4.096q2.048-12.288 10.24-28.672t8.192-25.6l-1.024-6.144q-26.624 17.408-53.76 35.328t-55.808 32.256q-2.048-8.192-2.048-20.48 0-13.312-7.168-18.432 2.048-12.288 0-26.624-5.12 6.144-12.288 11.264t-15.36 5.12q-11.264 0-22.016-8.192t-20.48-18.944-19.456-22.016-18.944-16.384q11.264 20.48 27.648 35.328t30.72 32.256l-15.36-6.144q4.096 6.144 8.192 10.24-7.168 1.024-19.456-7.168t-20.48-11.264q12.288 8.192 24.576 15.872t25.6 14.848l-7.168 5.12q-11.264-5.12-25.088-12.8t-26.112-7.68q-3.072 0-7.168 2.048l17.408 3.072 2.048 12.288q9.216-2.048 24.576 1.024t30.72 9.728 26.112 16.384 10.752 19.968q0 6.144-9.216 8.192t-12.288 2.048q-8.192 0-16.384-1.024t-16.384-3.072q3.072 11.264-8.192 11.264-9.216 0-18.432-5.12t-14.336-13.312q2.048 6.144 4.096 12.8t6.144 11.776q-3.072 1.024-7.168 1.024-5.12 0-9.216-2.56t-7.168-4.608q5.12 5.12 8.192 11.264-6.144 4.096-15.36 8.192t-11.264 11.264l10.24 3.072q5.12-5.12 11.776-8.704t14.848-3.584q12.288 0 20.992 10.752t14.848 25.088 9.728 29.696 5.632 24.576l2.048-8.192q3.072 2.048 5.12 10.24-4.096 7.168-7.168 14.848t-2.048 16.896q5.12-12.288 14.848-26.624t19.968-23.552q-11.264 23.552-20.992 46.080t-25.088 43.008q-5.12-7.168-8.704-16.384t-13.824-9.216q2.048 4.096 8.192 10.24-3.072 0-5.12-1.024t-5.12-1.024q2.048 5.12 2.048 11.264t1.024 11.264q3.072 0 10.24-0.512t10.24 1.536l-7.168 3.072q1.024 5.12-1.024 15.872t-6.144 22.528-8.192 22.528-6.144 16.896q-8.192-5.12-15.872-9.216t-15.872-9.216l6.144-5.12q10.24 7.168 18.432 7.168h2.048q-6.144-3.072-10.752-6.656t-9.728-7.68l10.24-13.312 3.072-13.312q-5.12 6.144-9.216 11.776t-11.264 10.752q-3.072-6.144-6.656-11.776t-5.632-12.8l-2.048 4.096t-1.024 4.096q-4.096 2.048-5.632 6.144t-3.584 8.192q-5.12-3.072-9.728-7.68t-8.704-9.728h5.12t5.12-2.048q-10.24-20.48-22.528-43.52t-12.288-46.592q0-27.648 24.576-46.080 3.072 9.216 4.096 18.944t1.024 18.944v11.264q2.048-5.12 2.56-9.728t2.56-8.704q2.048 6.144 5.12 13.312t3.072 13.312q0 5.12-1.024 6.656t-3.072 1.536q-1.024 0-3.072 0.512t-3.072 2.56q2.048 15.36 4.608 31.232t2.56 31.232l1.024-10.24q0-6.144 0.512-11.264t2.56-11.264q3.072 13.312 5.12 17.408t11.264 12.288q-2.048-14.336-3.072-29.184t-8.192-28.16q1.024-14.336-1.024-28.672t-6.144-28.672l4.096-4.096q14.336 20.48 29.184 40.448t29.184 40.448q0-10.24-8.192-23.552t-18.944-27.136-20.48-27.648-13.824-25.088q6.144-5.12 12.8-8.192t8.704-11.264l-15.36 7.168q-7.168-6.144-10.24-16.896t-4.608-23.040-3.584-24.064-6.144-20.992l10.24-2.048q-11.264-14.336-10.752-32.256t-0.512-35.328q11.264 5.12 22.528 9.728t23.552 6.656v-1.024q-14.336-3.072-27.136-17.408t-16.896-28.672q18.432 5.12 32.768 17.92t31.744 15.872q-6.144-3.072-13.824-9.216t-14.336-13.824-10.752-16.384-4.096-15.872v-1.024l7.168 4.096q-2.048-5.12-11.776-14.848t-9.728-13.824l1.024-5.12 12.288 6.144-6.144-13.312 4.096-8.192v-5.12q-12.288-1.024-21.504-12.8t-15.36-28.16-9.728-32.768-3.584-25.6h-8.192q-11.264-1.024-26.112 0.512t-23.040-9.728q1.024 13.312 0.512 25.6t-2.56 24.576q3.072-1.024 10.752-3.072t15.872-4.096 15.36-3.584 9.216-1.536q5.12 0 5.12 5.12l-1.024 5.12-9.216-4.096 2.048 10.24q0 2.048-1.024 6.144t0 4.096l9.216-1.024-1.024 10.24q-2.048-2.048-5.12-3.072t-5.12-3.072q-6.144 17.408-11.776 33.792t-10.752 33.792l14.336 2.048 1.024-2.048 5.12-4.096-4.096 13.312-6.144 6.144h-194.56q-5.12 0-13.312-0.512t-16.896-1.536-16.896-3.072-11.264-5.12l-3.072 10.24q-6.144-1.024-8.192-5.632t-2.048-9.728l1.024-5.12 11.264 10.24q-4.096-11.264-7.68-21.504t-10.752-19.456q1.024-8.192 1.536-15.872t-1.536-15.872q-12.288 3.072-24.064 6.144t-23.040 7.168q0 7.168-1.536 13.824t-2.56 13.824q9.216 0 17.92-0.512t16.896-0.512l5.12 10.24q0 6.144-4.608 10.24t-6.656 9.216l6.144-3.072h3.072l-4.096 13.312 11.264 5.12q0-5.12-0.512-9.728t1.536-9.728q2.048 10.24 2.048 15.36 0 3.072-1.024 8.704t-6.144 5.632q-4.096 0-6.144-1.024v-12.288l-11.264 24.576 14.336-6.144 6.144 3.072q-13.312 18.432-27.648 35.328t-26.624 36.352q3.072-3.072 6.144-6.656t8.192-5.632q-14.336 26.624-17.92 54.784t-11.776 56.832q-8.192-2.048-15.36 1.536t-15.36 5.632h10.24q6.144-2.048 11.776-3.584t11.776 0.512q-2.048 19.456 4.608 44.544t19.968 39.424q-5.12-17.408 4.608-29.184t28.16-11.776q5.12 0 7.168 1.024-7.168 5.12-10.24 8.192t-7.168 10.24l1.024 8.192q2.048-2.048 5.632-6.144t5.632-4.096l3.072 1.024 1.024 10.24q-5.12 2.048-9.216 3.584t-9.216 3.584v-13.312q-9.216 4.096-11.264 12.288-34.816 31.744-75.264 53.76t-77.312 49.664l1.024 1.024 18.432-10.24t17.408-11.264q-1.024 10.24-12.288 17.408t-17.408 15.36l-5.12-2.048q-3.072 0-4.608-0.512t-1.536-5.632l1.024-6.144q-20.48 12.288-44.032 12.288-10.24 0-19.456-3.072-2.048-10.24-2.048-18.432 0-20.48 12.8-32.768t23.040-28.672q8.192-5.12 12.8-13.824t12.8-15.872q-5.12 2.048-9.216 3.584t-4.096-3.584l1.024-7.168q-6.144 7.168-11.264 13.312t-12.288 13.312q3.072 7.168-2.048 14.336v-12.288q-6.144 13.312-23.552 26.112t-31.744 12.8q-3.072 0-7.168-2.048 5.12-7.168 8.704-12.8t7.68-13.824q-2.048 2.048-7.168 6.656t-9.728 9.728-8.192 9.728-3.584 7.68q0 5.12 6.656 12.8t15.872 15.36 18.432 14.848 14.336 10.24q-1.024 4.096-0.512 7.68t0.512 7.68q6.144-1.024 13.824 7.168t9.728 13.312q-8.192 5.12-17.408 5.12-8.192 16.384-18.432 31.744t-10.24 33.792q0 13.312 8.192 26.624l-5.12 5.12-1.024 4.096q13.312 1.024 24.064 12.288t22.016 16.384q6.144 14.336 14.336 24.064t25.6 11.776q12.288 9.216 25.088 13.824t26.624 7.68 27.136 6.656 25.6 10.752l-211.968 6.144 14.336-8.192 985.088 4.096v-1.024zM283.648 396.288h-1.024l-18.432 26.624h1.024zM260.096 427.008l-4.608 4.608t-7.168 7.68-6.656 7.68l-3.072 3.584 1.024 1.024zM236.544 455.68v-1.024l-20.48 25.6zM269.312 473.088h-1.024l-59.392 70.656zM215.040 485.376h-1.024l-77.824 92.16v1.024zM206.848 547.84h-1.024q-1.024 1.024-4.096 4.608t-6.656 8.192-6.656 8.192l-3.072 3.584h1.024zM252.928 587.776h-8.192q-10.24-1.024-16.384-0.512t-15.36-4.608l6.144-2.048v-1.024h-23.552l-12.288 1.024-7.168-7.168q-12.288 20.48-29.184 37.376t-27.136 38.4q5.12-5.12 13.312-10.24l-5.12 14.336q13.312-20.48 25.6-33.28t26.112-19.968 31.232-9.216 41.984-2.048v-1.024zM134.144 582.656h-1.024l-27.648 31.744h1.024zM103.424 619.52v-1.024l-7.168 6.144h1.024zM93.184 628.736q-1.024 2.048-4.096 5.632t-6.656 8.192-6.144 8.192l-2.56 3.584v1.024zM71.68 659.456h-1.024l-4.608 4.608t-7.168 7.68-6.656 7.68l-3.072 3.584zM77.824 807.936l-2.048-18.432h-1.024zM626.688 250.88l-2.048 8.192h-1.024q0-2.048 1.024-4.096t1.024-4.096h1.024zM903.168 485.376q-11.264 20.48-23.040 37.888t-17.92 38.912q-7.168 3.072-13.824 6.144t-12.8 6.144q-5.12-5.12-8.192-11.776t-3.072-14.848q0-12.288 8.704-22.528t20.992-17.92 26.112-13.312 23.040-8.704zM813.056 489.472q-8.192-2.048-8.192-11.264 1.024-1.024 4.096-3.072t4.096-3.072v17.408zM649.216 330.752l-8.192 3.072-4.096-16.384t-2.048-16.384l1.024-2.048q3.072 8.192 7.168 15.36t6.144 16.384zM786.432 485.376h-1.024v-2.048h1.024v2.048zM659.456 344.064q-2.048 5.12-6.656 9.216t-9.728 4.096l-5.12-2.048q5.12-7.168 5.12-15.36h7.168zM687.104 417.792q-10.24-8.192-19.456-16.384t-9.216-22.528l1.024-10.24q13.312 9.216 17.408 22.016t10.24 27.136zM619.52 346.112q-5.12 2.048-8.704 4.096t-7.68 4.096q2.048-9.216 4.608-21.504t9.728-20.48v17.408q0 8.192 2.048 16.384zM844.8 580.608q-2.048 5.12-4.096 9.216t-4.096 9.216v-4.096q0-5.12 2.048-11.264zM667.648 437.248q-7.168-1.024-12.8-7.168t-8.704-11.264l5.12-6.144 2.048-4.096q4.096 7.168 7.68 13.824t6.656 14.848zM817.152 566.272q0 11.264-5.12 18.944t-16.384 7.68q-14.336 0-29.696-12.288t-17.408-26.624q4.096 0 8.704-1.536t6.656-6.656l14.336 8.192v-10.24q8.192-2.048 16.384-4.608t16.384-5.632l4.096 16.384t2.048 16.384zM595.968 389.12v0zM588.8 403.456v0zM884.736 697.344l-4.096 6.144q0-1.024 1.536-3.584t2.56-2.56zM813.056 620.544l-8.192 12.288-8.192-6.144 8.192-2.048q-9.216-5.12-17.408-8.192 4.096-2.048 7.68-3.072t7.68-3.072zM791.552 600.064l-11.264 12.288-8.192-1.024q0-11.264-7.168-23.552 6.144 3.072 12.8 6.656t13.824 5.632zM651.264 485.376h-1.024v-19.456h1.024v19.456zM789.504 624.64h-1.024v-1.024h1.024v1.024zM972.8 817.152h-1.024v-2.048h1.024v2.048zM796.672 644.096h-1.024l-6.144-12.288zM653.312 558.080q-11.264-13.312-12.8-32.768t-5.632-35.84q6.144-10.24 3.584-25.6t-3.584-26.624q6.144 6.144 7.168 15.872t1.536 20.48 1.536 21.504 7.168 19.968q0 11.264-0.512 21.504t1.536 21.504zM790.528 648.192l-3.072-10.24zM662.528 531.456l-2.048 10.24q0-2.048 0.512-5.12t1.536-5.12zM871.424 758.784h-1.024v-11.264h1.024v11.264zM836.608 724.992l-3.072-2.56t-4.096-3.584zM960.512 838.656l-11.264 12.288zM662.528 547.84l-4.096 8.192q0-1.024 1.536-4.096t2.56-4.096zM667.648 568.32v0zM837.632 740.352h-1.024v-2.048h1.024v2.048zM510.976 387.072v0zM838.656 765.952h-1.024v-12.288h1.024v12.288zM807.936 749.568h-1.024v-2.048h1.024v2.048zM871.424 819.2v0zM438.272 382.976l-1.024 1.536t1.024-2.56v1.024zM661.504 599.040l-16.384 8.192-2.048-15.36q9.216 1.024 18.432 7.168zM668.672 628.736v0zM847.872 802.816h-1.024v-2.048h1.024v2.048zM902.144 860.16v0zM856.064 826.368v0zM842.752 820.224h-1.024v-24.576h1.024v24.576zM677.888 653.312v0zM395.264 385.024v0zM841.728 833.536l-12.288-7.168h1.024zM848.896 837.632l-9.216 3.072 8.192-4.096zM860.16 850.944l-4.096 6.144v-1.024l3.072-5.12h1.024zM325.632 307.2l-3.072 34.816h-1.024l3.072-34.816h1.024zM839.68 858.112q-1.024 0-4.096-2.56t-4.096-3.584zM678.912 710.656h-1.024v-19.456h1.024v19.456zM686.080 715.776h-1.024v-1.024h1.024v1.024zM350.208 387.072l-7.168 4.096v-1.024l6.144-4.096zM831.488 877.568h-1.024v-2.048h1.024v2.048zM540.672 429.056q0 8.192-11.776 22.528t-27.136 28.16-30.72 24.576-24.576 10.752q-11.264 0-25.6-7.168-15.36-28.672-36.864-55.296l-1.024 6.144q0 6.144 4.608 13.824t11.264 15.872 13.312 15.36 9.728 12.288q-2.048 8.192-1.024 15.872t3.072 15.872q-8.192 11.264-21.504 23.552t-24.576 20.48q-8.192-34.816-16.384-71.168t-8.192-72.192v-8.192q0-5.12 3.072-7.168l-6.144-7.168 2.048-2.048 2.048 1.024q3.072 5.12 7.168 9.216t9.216 8.192q20.48-6.144 41.472-7.68t42.496-1.536 43.008-0.512 43.008-3.584zM808.96 873.472q-6.144 2.048-11.264 2.048h-4.096l1.024-14.336-2.048-1.024q-8.192 0-8.192 7.168l1.024 10.24-15.36 3.072q-5.12-7.168-10.24-13.312t-9.216-14.336l33.792-10.24v1.024l2.048 6.144 3.072-4.096 1.024-5.12q17.408 1.024 18.432 17.408v15.36zM446.464 527.36v1.024q-1.024 0-3.584-2.56l-2.56-2.56zM649.216 738.304v0zM687.104 785.408v0zM608.256 695.296l-4.096 14.336h-1.024q0-2.048 2.048-7.168t3.072-7.168zM656.384 761.856l-2.048 6.144q0-1.024 1.024-3.072t1.024-3.072zM692.224 795.648l-3.072 12.288h-1.024q0-2.048 1.536-6.144t1.536-6.144h1.024zM607.232 722.944h-1.024l-5.12-8.192h1.024zM656.384 785.408v0zM765.952 892.928v0zM680.96 804.864q0 6.144-2.048 12.8t-7.168 10.752q0-13.312-4.096-25.6t-4.096-25.6v-3.072q9.216 2.048 13.312 12.288t4.096 18.432zM758.784 883.712q-11.264 2.048-24.576 4.096t-24.576 2.048q-8.192 0-10.752-4.608t-3.584-11.776-1.536-14.336-4.608-12.288q-2.048 4.096-2.048 13.312l1.024 29.696q-3.072-1.024-5.12-7.68t-4.096-15.36-3.584-16.384-1.536-9.728q5.12-9.216 11.776-16.384t9.728-18.432l8.192 4.096q2.048-3.072 6.144-2.56t8.704 3.072 8.704 5.12 7.168 2.56l1.024 38.912-1.024 19.456q10.24 0 10.24-8.192v-3.072q5.12 3.072 9.216 7.68t5.12 10.752zM656.384 793.6h-1.024v-2.048h1.024v2.048zM646.144 783.36v0zM649.216 792.576l-3.072 4.096v-1.024l1.024-1.536t1.024-2.56zM662.528 806.912v1.024q-1.024 0-4.096-2.048t-4.096-3.072zM640 787.456q-1.024 0-4.096-2.56t-4.096-3.584zM648.192 805.888v0zM661.504 816.128h-1.024v-2.048h1.024v2.048zM350.208 530.432h-1.024l-6.144-57.344h1.024zM635.904 795.648v0zM623.616 787.456v0zM652.288 814.080l-2.048 4.096 1.024-1.536t1.024-2.56zM638.976 802.816l-5.12 4.096v-1.024l4.096-4.096zM613.376 616.448q-14.336 6.144-27.648 12.288t-27.648 14.336l-2.048-8.192q-11.264 8.192-24.064 14.336t-20.992 17.408q-3.072 14.336-18.432 33.28t-24.576 31.232l-2.048 13.312q-8.192-5.12-13.312-12.288l-10.24-14.336 2.048 10.24 1.024 2.048-2.048 9.216q5.12 4.096 9.728 8.704t6.656 9.728l-10.24 2.048 8.192 6.144q0 8.192-3.584 17.408t-6.656 17.408q-8.192 7.168-14.848 14.848t-15.872 12.8q0-7.168-1.536-10.752t-4.096-5.632-5.12-3.584-3.584-6.656l-6.144-8.192-3.072-1.024q1.024 5.12 0 10.752t-1.024 10.752q0 11.264 7.168 18.432l2.048-7.168 4.096 5.12 4.096-7.168 7.168 13.312q-12.288 9.216-23.552 20.48-8.192-8.192-8.192-22.528t-2.048-25.6q-4.096 0-10.24 0.512t-6.144 5.632q0 1.024 2.048 3.072-5.12-1.024-10.24 1.024t-9.216 4.096l7.168 2.048q-3.072 3.072-5.12 7.168l8.192-1.024-8.192 7.168q0 3.072 1.024 12.8t1.536 19.968 0.512 19.456q0 8.192-2.048 10.24-1.024-28.672-3.072-56.832t-5.12-55.808l9.216 6.144q-2.048 5.12-2.56 11.776t-0.512 11.776l16.384-6.144-3.072-4.096q2.048 1.024 6.656 0t6.656-2.048q-2.048-15.36-7.168-30.208t-4.096-30.208l1.024-10.24q9.216 5.12 12.288 10.752t5.12 15.872l7.168 12.288q0 3.072 0.512 8.192t5.632 5.12l3.072-1.024 1.024-7.168 7.168 9.216v-18.432q0-5.12-3.072-9.728t-6.144-6.656l9.216-8.192q-1.024-1.024-2.56-1.536t-2.56-2.56l-8.192-3.072 9.216-3.072 2.048-7.168q-9.216-6.144-11.776-16.384t-9.728-18.432l4.096-8.192t2.048-9.216q0-6.144-1.536-12.288t-6.656-10.24l8.192-20.48q7.168 14.336 13.824 29.184t17.92 27.136l10.24-6.144q-1.024-5.12-7.168-9.216l-2.048 6.144-3.072-7.168 1.024-1.024 1.024-8.192h-5.12l-4.096-4.096q-2.048-9.216-6.144-15.872t-8.192-14.848q2.048-2.048 6.144-2.048h7.168l2.048-4.096v-6.144q-15.36 1.024-32.768 6.144l15.36-8.192q-3.072-3.072-6.656-6.144t-7.68-6.144q46.080-48.128 94.72-93.184t94.72-94.208q-9.216 2.048-18.432 3.072l-18.432 2.048q-16.384 2.048-33.792 7.68t-31.744 5.632q-24.576 0-48.64-1.024t-48.64 1.024l-8.192-4.096q0-4.096-1.536-8.192t-6.656-6.144q2.048-11.264 6.144-18.432l78.848 10.24 2.048-10.24h129.024q0 6.144 2.048 16.384l8.192-4.096q-14.336 18.432-25.088 38.4t-20.48 40.96-18.944 41.472-21.504 39.936l7.168-2.048q4.096-3.072 14.336-7.168v16.384q-14.336 5.12-28.672 8.704t-28.672 6.656q4.096-4.096 7.68-6.656t8.704-4.608q1.024-3.072 0-3.584t-3.072-2.56q-19.456 9.216-37.888 18.432t-38.912 17.408h6.144q30.72 1.024 58.368-8.192t56.32-19.456q-2.048 17.408-1.536 34.816t5.632 34.816q2.048-9.216 9.216-18.944t17.408-18.432 20.992-14.336 18.944-6.656l2.048 16.384 6.144-13.312 4.096 13.312zM649.216 824.32h-1.024v-2.048h1.024v2.048zM638.976 820.224l-7.168-6.144 7.168-3.072v9.216zM356.352 536.576l-3.072 5.12q0-1.024 1.024-2.56t1.024-2.56h1.024zM671.744 860.16h-1.024l-2.048-1.536t-3.072-2.56h1.024zM655.36 852.992q-5.12-2.048-8.192-6.144l7.168-1.024zM674.816 869.376v1.024l-11.264-2.048v-1.024zM640 851.968v0zM656.384 861.184v1.024q-1.024 0-4.096-2.56t-4.096-2.56v-1.024zM672.768 877.568l-6.144 4.096v-1.024l6.144-4.096v1.024zM624.64 845.824h-1.024q-7.168 0-4.608-10.24t1.536-18.432zM674.816 885.76l-4.096 2.048v-1.024l4.096-2.048v1.024zM671.744 893.952v0zM709.632 927.744l-5.12 8.192v-1.024l4.096-7.168h1.024zM632.832 855.040l-3.072 11.264 2.048-12.288zM664.576 889.856h-10.24v-1.024h10.24v1.024zM624.64 858.112h-1.024v-8.192h1.024v8.192zM642.048 869.376q0 3.072-2.048 3.072l1.024-2.048v-1.024h1.024zM697.344 934.912h-1.024v-10.24h1.024v10.24zM664.576 898.048q-2.048 0-6.144-1.024t-6.144-2.048zM648.192 889.856v1.024q-1.024 0-3.584-2.048l-2.56-2.048v-1.024zM685.056 937.984h-1.024v-18.432h1.024v18.432zM632.832 870.4l-3.072 12.288 2.048-12.288h1.024zM415.744 667.648h-1.024v-2.048h1.024v2.048zM632.832 888.832l-3.072 4.096 1.024-1.536t1.024-2.56h1.024zM366.592 630.784l-9.216 1.024q2.048-4.096 3.072-7.168t4.096-6.144q2.048 8.192 2.048 12.288zM621.568 903.168v0zM607.232 727.040q-4.096 51.2-3.584 101.376t-0.512 101.376q-3.072 3.072-8.192 3.072t-7.168-1.024l-8.192 2.048 8.192 6.144-17.408 2.048q1.024-2.048 2.56-3.072t3.584-3.072q-8.192-1.024-15.872-1.536t-11.776-8.704q-2.048 3.072-6.144 6.144t-8.192 3.072q-5.12 0-11.776-3.072t-13.312-8.192-11.776-11.264-5.12-11.264q8.192-4.096 17.408 0 3.072-1.024 7.168-2.56t7.168-1.536q17.408 0 38.912 7.68t37.888 12.8q-10.24-24.576-16.384-49.664t-6.144-51.712q0-23.552 4.096-46.080t11.264-45.056q3.072 0 6.144 1.024t7.168 1.024zM385.024 730.112h-4.096q-11.264 0-20.48-7.168l16.384-1.024q-3.072-8.192-11.264-8.192h-5.12q-1.024-5.12-1.536-16.384t-8.704-12.288v-16.384q5.12-2.048 9.728-6.656t6.656-9.728l8.192 5.12q1.024 11.264 2.56 22.528t1.536 22.528v10.24q0 4.096-2.048 9.216l4.096 4.096zM602.112 939.008h-1.024v-2.048h1.024v2.048zM387.072 732.16v0zM450.56 817.152l-6.144 2.048v-1.024zM435.2 829.44h-1.024v-1.024h1.024v1.024zM543.744 943.104l-4.096 3.072-1.024-1.024h1.024zM329.728 722.944l-2.048 18.432h-1.024l2.048-18.432h1.024zM401.408 813.056h-1.024v-2.048h1.024v2.048zM451.584 875.52q-5.12 5.12-16.896 10.752t-19.968 5.632l3.072-24.576q1.024 3.072 0.512 6.656t-0.512 6.656l3.072 1.024q15.36 0 20.48-14.336l-8.192 1.024-8.192 5.12-1.024-17.408 1.024-9.216 8.192-10.24q4.096-2.048 7.68-4.608t7.68-5.632q-1.024 5.12 0 10.24t1.024 10.24q0 9.216-8.192 14.336 3.072 3.072 5.632 6.656t4.608 7.68zM490.496 914.432q-2.048 0-5.12-1.024t-5.12-2.048zM375.808 816.128v0zM499.712 943.104l-8.192 5.12-7.168-4.096 7.168-3.072zM377.856 840.704v0zM506.88 931.84q-6.144 2.048-15.36 2.048h-18.432q-8.192 0-16.384 1.024t-13.312 5.12q-5.12-9.216-7.168-19.456t-7.168-19.456l-2.048 9.216v5.12l-6.144-6.144-2.048 15.36-7.168-17.408q-3.072 12.288-3.072 24.576-4.096-4.096-6.144-7.168l-7.168-4.096-2.048 1.024q4.096-3.072 11.264-9.216t15.872-12.288 16.384-10.752 12.8-4.608q1.024 0 4.096 3.584t7.168 7.68 7.68 8.704 5.632 5.632q7.168 7.168 15.36 12.8t17.408 8.704zM409.6 873.472h-1.024v-2.048h1.024v2.048zM381.952 852.992v0zM393.216 865.28v0zM382.976 861.184v0zM467.968 944.128v1.024l-10.24-6.144zM408.576 888.832l-7.168 2.048 7.168 6.144-8.192 4.096-4.096-22.528 6.144 3.072zM428.032 923.648h-1.024v-1.024h1.024v1.024zM328.704 768q-7.168 11.264-7.168 22.528 0 3.072 0.512 7.168t2.56 6.144l-2.048 89.088q-14.336-11.264-20.48-27.136t-6.144-33.28q0-27.648 8.192-53.76t14.336-52.736q4.096 10.24 4.096 16.384l-2.048 23.552zM376.832 875.52q-2.048 0-4.096 0.512t-4.096 0.512q0-7.168 6.144-12.288zM394.24 889.856l-8.192 3.072 8.192-4.096v1.024zM367.616 876.544q-2.048-1.024-4.096-1.024-1.024 0-3.072-2.048 4.096 0 7.168 3.072zM378.88 901.12v0zM402.432 935.936l-8.192 2.048-1.024-1.024h1.024zM385.024 917.504l-5.12 11.264-1.024 1.024-2.048-14.336zM115.712 658.432l-2.048 10.24h-1.024q0-2.048 1.024-5.12t1.024-5.12h1.024zM378.88 935.936v0zM355.328 925.696h-1.024v-1.024h1.024v1.024zM102.4 674.816v0zM330.752 921.6l-8.192 6.144q1.024 2.048 5.12 6.144l-10.24-3.072-5.12-8.192-2.048-1.024v-18.432q6.144 2.048 12.8 6.144t7.68 12.288zM86.016 695.296v0zM154.624 765.952v0zM238.592 697.344l-9.216 17.408q-5.12 3.072-9.216 10.24t-7.68 15.872-6.144 17.408-4.608 13.824h-16.384q-7.168 0-14.336 2.048 5.12 4.096 15.36 4.096 3.072 0 7.168-2.048l7.168 6.144q-6.144 1.024-12.288 1.024t-13.312 1.024q6.144 1.024 11.264 14.848t9.728 32.256 8.192 36.352 6.656 25.088q-22.528-13.312-41.472-35.84t-41.472-38.912q8.192-11.264 22.528-19.456t26.624-16.384l-12.288-4.096q1.024-7.168 8.704-17.92t17.408-21.504 18.944-19.968l15.36-15.36zM297.984 888.832q-1.024 16.384 0 32.768l-14.336-2.048-2.048 10.24q-5.12-5.12-9.728-10.24t-9.728-10.24l-2.048 1.024-4.096 5.12q-8.192-4.096-15.872-6.656t-14.848-7.68l2.048-10.24t3.072-10.24l-1.024-2.048 10.24 4.096 2.048-13.312 9.216 4.608t6.144 7.68q11.264 1.024 20.992 2.048t19.968 5.12zM130.048 773.12l-8.192 5.12-1.024-4.096q2.048 0 4.608-0.512t4.608-0.512zM69.632 707.584l-6.144 12.288t-7.168 12.288l-8.192 1.024q2.048-8.192 7.168-15.872t14.336-9.728zM138.24 788.48l-20.48 10.24v-1.024l19.456-9.216h1.024zM265.216 933.888l-25.6-17.408h1.024zM111.616 793.6v0zM97.28 779.264h-1.024l-2.56-1.536t-3.584-2.56h1.024zM197.632 897.024h-1.024v-1.024h1.024v1.024zM253.952 954.368l-1.024 1.024-4.096-1.536t-8.704-3.584-8.704-4.096-5.12-2.048v-1.024zM225.28 933.888l-8.192 13.312-8.192-1.024 6.144 6.144-14.336-4.096 8.192-3.072-6.144-5.12q2.048-5.12 5.12-9.216t7.168-7.168q2.048 3.072 5.12 5.632t5.12 4.608zM196.608 923.648q0 8.192-4.608 13.824t-10.752 9.728q-5.12 0-14.336-1.024t-18.944-2.56-18.432-5.12-11.776-8.704h-10.24q-4.096 0-7.168 0.512t-7.168 1.536q5.12-5.12 11.776-6.656t12.8-1.536q10.24 0 19.456 1.536t18.432 2.56q-17.408-11.264-27.648-29.184t-10.24-38.4q0-10.24 3.072-21.504 7.168 9.216 19.968 18.944t25.088 20.48 21.504 22.016 9.216 23.552zM794.624 579.584l-11.264-24.576v1.024l10.24 23.552h1.024zM802.816 591.872l-7.168-10.24q2.048 2.048 3.072 6.144t3.072 4.096h1.024zM570.368 403.456l-1.024-1.024-15.36 7.168zM538.624 418.816v0zM547.84 407.552q-26.624 4.096-50.176 1.536t-49.152-4.608v1.024l8.192 2.048t7.168 3.072q-2.048 2.048-4.608 3.584t-4.608 3.584h36.864q19.456 0 37.888 2.048l7.168-8.192zM450.56 418.816l-28.672-4.096q6.144 2.048 14.336 3.584t14.336 1.536v-1.024zM419.84 417.792v0zM579.584 612.352q-1.024 2.048-6.656 8.704t-5.632 7.68zM794.624 851.968v-1.024h-1.024v1.024h1.024zM381.952 451.584l-10.24-9.216 9.216 10.24zM483.328 578.56v-1.024h-1.024v1.024h1.024zM711.68 864.256q-2.048-12.288-5.632-23.552t-3.584-23.552l-3.072-2.048h-5.12q2.048 11.264 2.048 21.504t2.048 21.504l8.192 3.072-6.144 7.168zM686.080 830.464v-1.024h-1.024v1.024h1.024zM687.104 840.704v-2.048h-1.024v2.048h1.024zM464.896 727.040l-32.768-40.96v1.024l31.744 39.936h1.024zM430.080 701.44l-2.048-10.24 2.048 9.216v1.024zM438.272 712.704l-2.048-8.192v1.024zM439.296 740.352l-31.744-5.12v1.024q8.192 1.024 16.384 2.56t15.36 1.536zM448.512 758.784l-38.912-7.168q8.192 2.048 19.456 4.608t19.456 2.56zM408.576 803.84v0zM252.928 910.336l-8.192-21.504h-1.024zM184.32 940.032l-28.672-7.168v1.024q4.096 1.024 14.848 4.096t13.824 3.072v-1.024z"></path>
</svg>
