<?xml version="1.0" encoding="UTF-8" standalone="no"?>
<!-- Generator: Adobe Illustrator 23.0.5, SVG Export Plug-In . SVG Version: 6.00 Build 0)  -->

<svg
   version="1.1"
   id="Layer_1"
   x="0px"
   y="0px"
   viewBox="0 0 688.4 716.9"
   style="enable-background:new 0 0 688.4 716.9;"
   xml:space="preserve"
   sodipodi:docname="sekolahskullers.svg"
   inkscape:version="1.1 (c68e22c387, 2021-05-23)"
   xmlns:inkscape="http://www.inkscape.org/namespaces/inkscape"
   xmlns:sodipodi="http://sodipodi.sourceforge.net/DTD/sodipodi-0.dtd"
   xmlns="http://www.w3.org/2000/svg"
   xmlns:svg="http://www.w3.org/2000/svg"><defs
   id="defs252" /><sodipodi:namedview
   id="namedview250"
   pagecolor="#ffffff"
   bordercolor="#666666"
   borderopacity="1.0"
   inkscape:pageshadow="2"
   inkscape:pageopacity="0.0"
   inkscape:pagecheckerboard="0"
   showgrid="false"
   inkscape:zoom="1.1745013"
   inkscape:cx="343.97578"
   inkscape:cy="332.90726"
   inkscape:window-width="1825"
   inkscape:window-height="1046"
   inkscape:window-x="-11"
   inkscape:window-y="-11"
   inkscape:window-maximized="1"
   inkscape:current-layer="Layer_1" />
<style
   type="text/css"
   id="style2">
	.st0{fill:none;}
	.st1{fill:#030303;}
	.st2{fill:#E9E9EA;}
	.st3{fill:#262324;}
	.st4{fill:#E8E8E8;}
	.st5{fill:#E8E9EA;}
	.st6{fill:#E7E7E7;}
	.st7{fill:#E7E8E9;}
	.st8{fill:#EBECED;}
	.st9{fill:#E5E5E6;}
	.st10{fill:#FFFFFF;}
	.st11{fill:#FDFDFD;}
	.st12{fill:#E3E4E5;}
	.st13{fill:#DDDDDD;}
	.st14{fill:#C2C2C2;}
	.st15{fill:#727376;}
	.st16{fill:#D6D6D6;}
	.st17{fill:#D4D4D4;}
	.st18{fill:#DEDEDE;}
	.st19{fill:#D6D7D9;}
	.st20{fill:#F7F7F7;}
	.st21{fill:#D1D1D1;}
	.st22{fill:#FCFCFC;}
	.st23{fill:#FCFCFD;}
	.st24{fill:#FBFBFB;}
	.st25{fill:#F5F5F6;}
	.st26{fill:#F3F4F4;}
	.st27{fill:#F2F3F3;}
	.st28{fill:#EEEEEF;}
	.st29{fill:#424143;}
	.st30{fill:#E6E6E7;}
	.st31{fill:#F1F2F2;}
	.st32{fill:#ECECEC;}
	.st33{fill:#474749;}
	.st34{fill:#212121;}
	.st35{fill:#111111;}
	.st36{fill:#202020;}
	.st37{fill:#DCDCDC;}
	.st38{fill:#0D0D0D;}
	.st39{fill:#414141;}
	.st40{fill:#E9E9E9;}
	.st41{fill:#EDEDEE;}
	.st42{fill:#BEC0C2;}
	.st43{fill:#262626;}
	.st44{fill:#050505;}
	.st45{fill:#0B0B0B;}
	.st46{fill:#323032;}
	.st47{fill:#121212;}
	.st48{fill:#414143;}
	.st49{fill:#4F4F51;}
	.st50{fill:#434344;}
	.st51{fill:#E4E4E4;}
	.st52{fill:#EAEAEA;}
	.st53{fill:#E7E8E8;}
	.st54{fill:#E1E2E3;}
	.st55{fill:#DBDBDB;}
	.st56{fill:#CBCBCB;}
	.st57{fill:#252525;}
	.st58{fill:#DADBDC;}
	.st59{fill:#CACCCE;}
	.st60{fill:#EBEBEB;}
	.st61{fill:#DDDEDF;}
	.st62{fill:#CECECE;}
	.st63{fill:#CFCFCF;}
	.st64{fill:#E5E5E5;}
	.st65{fill:#EDEDED;}
	.st66{fill:#D7D7D7;}
	.st67{fill:#CCCCCC;}
	.st68{fill:#C1C3C5;}
	.st69{fill:#3F3F40;}
	.st70{fill:#E0E0E0;}
	.st71{fill:#CACACA;}
	.st72{fill:#C0C2C4;}
	.st73{fill:#232323;}
	.st74{fill:#181818;}
	.st75{fill:#1B1B1B;}
	.st76{fill:#585858;}
	.st77{fill:#6A6B6D;}
</style>
<title
   id="title4">LOGO SS</title>
<g
   id="g247">
	<g
   id="Layer_1-2">
		<path
   class="st0"
   d="M44.2,85.3h-4.5c-3.5,0-4,1.6-2.4,4.4c6.5,11.7,12.6,23.5,18.8,35.3c4.7,9.2,10.2,18.1,14.4,27.6    c13.4-23.9,34.2-39.1,58.7-49.9c13.4-5.9,27-11.2,40-17.8c-3,0.3-6,0.3-8.9,0.3C121.5,85.3,82.8,85.3,44.2,85.3z"
   id="path6" />
		<path
   class="st0"
   d="M180.6,341.9L180.6,341.9h0.2l-0.1-0.2C180.7,341.7,180.7,341.8,180.6,341.9z"
   id="path8" />
		<path
   class="st0"
   d="M211.1,466.6c-0.8-0.1-1.8-0.3-3-0.6C209,466.4,210.1,466.5,211.1,466.6z"
   id="path10" />
		<path
   class="st1"
   d="M568.5,101.9c-4-5.4-8.3-10.8-11.6-16.8l-14.7-21.3c-1.3-1.6-2.5-3.1-3.7-4.7c-8.7-11-19.6-18.1-34-19.6    c-15.3-1.6-30.2,0.6-45,3.8c-20.5,4.5-40,11.9-59.1,20.6c-11.1,5.9-21.7,12.8-31.4,20.7c-5.8,5-11.3,10.3-17.4,14.8    c-16.8,12.4-36.7,12.3-53.5,0c-5.9-4.2-11.3-9.2-16.1-14.6c-6.2-5.8-10.9-13.1-13.8-21.1c-4.1-9-5.9-18.6-7.3-28.3    c-1.3-9.2-0.6-18.7-2.8-27.8c-1.7-6.9-6-9.1-12.8-6.9c-5.7,1.8-10.2,6-12.3,11.6c-7.9,20.3-22.7,35.7-36.9,51.5    c-6.2,8.9-14.5,16-24.3,20.7c-1,0.2-2,0.3-3,0.4c-13,6.6-26.7,11.9-40,17.8c-24.5,10.8-45.3,26-58.7,49.9c0.2,0.4,0.4,0.8,0.5,1.2    c-4.1,8.8-10.1,16.7-12.7,26.2c-1.3,11.9,3.1,22.1,9.5,31.8c7.1,10.6,15.8,19.7,25.2,28.3c2.5,2.3,4.7,4.4,4.6,8.1    c0,1.1,1.4,2.3,0.2,3.2s-2.9,0.6-4.2-0.2c-3.2-1.7-5.1-4.7-7.3-7.4c-0.9-1.1-1.5-3.1-3.4-1.9c-4.2,2.4-7,0-10.2-2.2    c-2.6-1.7-5.7-2.6-8.5-4c-3.8-2-5.3,1.7-7.6,3.1c-2.7,1.6,0.3,3,0.7,4.5c0.7,2.5,3.1,5.7,1.3,7.4s-4.3-1.3-6.3-2.6    c-5.6-3.4-8-2.9-12.3,2.2c-5,5.9-8.2,12.8-11.9,19.5c-1.6,2.4-1.7,5.5-0.3,8c5.4,10.5,12.7,19,23.4,24.4c4.8,2.4,9.3,2.9,13.8-0.9    c5.6-4.8,12.2-5.6,19.5-5.6c16,0.2,30,6.3,43.9,13.2c3.1,0,4.2,2.5,6.2,5c-2.9,0.2-5.3,0.3-7.6-0.9l0,0c-2.3-0.5-3.6,1.2-5.2,2.4    c-12.2,9.7-24.3,19.5-36.6,29.2c-5.9,4.7-10.2,10.8-15.3,16.7c2.3,0.4,3.6-0.7,5.1-1.3l65.9-23.5c6.1-2.5,12.3-5.1,18.4-7.6    c2.1-0.9,3.8,0,5.2,1.6c4,2.4,7.9,4.8,11.9,7.1c0.9,0.6,1.8,1.8,3.1,1s1.2-2.3,0.9-3.6c-0.9-4.9-2.8-9.1-8.6-11.2l10.3-4.8    c2.9,21.3,9.7,40.9,17.9,60.3c5.5-4.3,9.1-10.4,9.3-16.7c0.5-14.5,0.3-29-5.3-42.8c-0.4-0.9-0.7-1.9-0.9-2.8    c-0.5-1.5-1.6-3.5,0.6-4.3s2.7,1.6,3.4,2.9c1.8,3.4,2.4,7.2,3.1,11c1.3,7.2,2.8,14.4,3.5,21.7c0.4,4-0.6,8.2-1,12.4    c-0.2,2.6-0.6,5.3-0.7,7.9c-0.3,2.4,1.4,4.7,3.8,5c2.4,0.5,3.9-1.2,4.3-3.3c2-10.2,9.9-10.6,18-11.7c20-2.8,37.8,5.8,56.3,10.6    c3.7,1,7.1,3,10.8,3.8c9.1,1.7,13.1,7.7,15,16c0.5,1.7,0.5,3.6-0.1,5.3c-5.3,12.2-11.2,24.1-20,34.3c-9,10.4-20.3,13.9-33.7,11.4    c-7.2-1.4-14.5-2.4-21.8-0.4c-2.7,0.7-5.2,1.5-6.3,4.4c-0.8,2.2-2.8,2.2-4.5,2.6c-2.7,0.7-5.5,1.1-7.6,3.2    c-2.3,3.6-4.9,7-6.4,11.1c-1.6,4.4-0.9,7.3,3.4,9.9c7.4,4.5,16,7.2,21.8,14.1c2.2,1.8,4.3,3.5,6.4,5.3c6,5.2,6,5.2,2.7,12.7    c-1.4,6.8-2.5,13.7-2.1,20.7c-0.1,1.2,0,2.3,0.2,3.5c0.7,2.3,1.9,5,4.2,5.1c2.6,0.1,1.6-3.1,2.1-4.8c1.4-4.4-0.4-9.3,2.5-15    c0,8,0,14.4,0,20.9c0,1.3-1,3.2,1.4,3.7c1.9,0.4,3.3-0.2,3.9-2.1c0.2-6-0.4-12,0.5-17.9c0.1-0.6,0.2-1.2,0.3-1.8    c2.4,1.5,2.4,3.7,2.1,6.1l0,0c1.2,2.5,0.8,5,0.7,7.6c0.2,2.1,0.3,4.3,0.1,6.5c-0.6,4.6,1.3,7.6,5.6,9.3c1.1-1.5-0.1-3.6,1.3-5    c-0.2-5.8,0.8-11.6,1.4-18.2c2.3,4.7,1.5,8.8,1.7,12.9c0.2,3.2,0.1,6.3-0.1,9.5c-0.3,3,1,5,3.2,6.8c2.4,1.9,3.6,1.8,3.9-1.6    c0.3-5,1.2-10,2.7-14.8c0.5,7.3,1,14.6,1.5,21.9c0.1,1.2,0.1,2.3,0.3,3.5c0.4,2.6,2.9,2.7,4.7,3s1.4-1.9,1.5-3    c1.1-6.4,1.9-12.8,2.9-19.4c2.3,1.2,1.6,3.2,1.6,4.7c-0.2,5.7-0.6,11.3-0.8,17c-0.1,3.5,9.4,10.2,12.5,8.8c2.1-1,2.1-3.2,2.3-5.2    c0.3-3,0.6-6,0.8-9c0.2-2.8,0.3-5.6,0.5-8.6c2.9,0.7,2.9,2.8,2.9,4.7c0.1,5.7,0.3,11.3-0.1,17c-0.2,3.5,1.1,4.9,4.3,5.3    c1.5,0.2,3,0.3,4.5,0.6c3.6,0.5,5.3-1,5.3-4.7c0-6.2,0.1-12.5,1.9-18.6c0.3,6.1,1,12.2,0.9,18.3c-0.1,4.2,1.5,5.2,5.1,4.7    c0.8-0.1,1.7-0.1,2.5,0c3.5,0.6,4.6-1,4.5-4.4c-0.2-6.2-0.1-12.3,0-18.5c0-1.9-0.5-4,1.6-6.5c0.6,6.7,1,12.7,1.6,18.6    c0.2,2.3-0.9,5.4,2.4,6.4c1.8,0.6,6.6-5.1,6.6-7.5c0-7.3-0.1-14.7-0.1-22c0-0.8,0.1-1.6,0.5-2.3c2.2,6,1.8,12.3,2.5,18.4    c0.2,1.9-0.9,4.7,0.9,5.5c2.1,1,3.6-1.7,5.4-2.8c2.2-1.3,2.8-3.3,2.8-5.9c-0.2-8-0.1-15.9-0.1-23.9l1.6-0.2    c0.6,8.1,1.1,16.2,1.8,25.1c4.9-3.7,9.1-7,13.5-10.3c1.7-1.3,0.8-2.5,0.5-4c-1.6-6.4-1.8-13-0.6-19.5c0.8,5.4,1.4,10.7,2.3,16.1    c0.3,1.8,0.1,4.8,2.6,4.5c2.8-0.3,5-2.5,5.3-5.3c0.2-2.8,0.2-5.7,0-8.5c-1.3-1.9-0.8-4.1-1-6.1l0,0c-1.2-1.2-1-2.5-0.6-4.2    c1.3,0.6,1.9,2,1.6,3.3c0.4,1.6,0.7,3.2,1.1,4.8c0.9,2.5,1.7,5,2.7,7.9c4.1-3,6.4-6,4.9-11.5c-1.1-3.9-2.6-8.2,0-13.3    c3,5.7,2.2,11.5,4.3,16.8c4.8-2.4,4.7-6.6,3.9-10.8c-1.1-5.4-1.1-10.9-0.1-16.4c1.7-7.9,6.1-14.4,11.5-20.1    c7.7-8.3,17.2-14.7,27.8-18.7c1.6-1.3,4.8-1.6,3.2-5c-1.8-3-4.9-3.7-7.8-5c-7.6-3.3-16.5-4-21.6-12.1c-1.5-2.4-5.3-1.2-8-0.6    c-3.4,0.9-6.6,2.4-9.5,4.3c-11.7,7-23.3,4.4-31.2-6.8c-6.2-8.9-12.1-17.9-16.6-27.8c-2.3-5-4-10.2-3.3-15.9    c1.1-9.4,7.1-14.7,15.2-18c6-2.4,11.8-5.1,17.5-8.3c4.3-2.4,10.3-1.6,15.5-2.9c14.2-3.4,26.9,1.8,39.7,6.5    c3.1,1.2,5.4,0.6,8.3-0.6c7.8-3.3,11.3-9,13-17.1c3-14,7.2-27.6,8.8-41.9c0.2-1.8,0.7-3.6,1.5-5.2c0.9-1.9,3.1-2.9,5-2.1    c2.5,0.8,1.2,2.8,0.9,4.2c-4.3,19.8-9.6,39.3-15,58.8c-1.5,5.4,0.4,9.7,2.5,14.3c0.7,1.6,2.3,2.5,4,2.5c1.5-0.1,1.6-1.8,2.1-3    c9.1-21.2,13.9-43.5,16.9-66.4c0.7-5.4-0.6-12.4,2.3-15.9c2.6-3.2,9.8-2.6,15-3.6c12.1-2.2,23.8-5.9,35.5-9.6    c12.6-4.5,21.9-13.7,32-21.9c2-1.4,4.1-2.7,6.3-3.9c12.4-8.9,24.8-17.4,41.5-14.4c5.3,0.9,8.8-3.1,9.4-8.8    c0.4-4.1,0.3-8.3-0.5-12.4c-2.2-13.3-5.8-26.2-9.6-39.1c-3.6-8.1-7.8-16-12.8-23.4C601,139.3,583.3,121.8,568.5,101.9z     M149.2,311.4c-10.4-6.1-20-13.7-31-18.7c-4.3-1.7-8.6-3.3-12.9-5.1c-1.5-0.7-2.8-1.7-4-2.8c-1-0.7-1.3-2.1-0.7-3.2    c0.6-1,1.8-0.8,2.7-0.7c5.5,0.6,9.6,4,13.9,7.1l43.6,24.6C156.1,314.8,152.6,313.4,149.2,311.4z M179.3,312.4    c-1.7,0-4.1,0.4-3.9-2.5s-1.6-4-3.6-5.3c-13.4-8.9-26.3-18.4-38.8-28.6c-7.7-5.7-15.4-11.3-23-17c-0.5-0.4-0.1-1.9-0.1-3.7    l23.9,18.7c10,5.7,19.7,12.2,30.5,16.3c1.1,0.4,2.1,1,3.2,1.3c4.2,1.4,9.9,1.6,12.1,4.5s1,8.6,1.2,13.1    C181,310.5,181.9,312.5,179.3,312.4L179.3,312.4z M349.7,497.4c-1.5,0.5-2.5-0.5-3.7-0.8c-4.5-1.4-8.8-2.4-12.1,2.3    c-0.6,0.8-1.7,1.2-2.7,1c-3.8-0.1-7.6,0.2-11.5-0.5c-8.1-1.5-9.6-3.3-9.6-11.5c0-1.8,0-3.7,0-5.5c0-5.9-0.1-11.5,3-17.2    c2.2-4,2.3-9.4,3.4-14.2c2.2-10.1,6.6-19.4,8.9-29.4c0.8-3.5,1.7-7.1,4.3-9.9c1.5-1.7,1.3-3.6,1.3-5.6c-0.2-4.9,0.3-9.7,2.6-14.1    c0.8-1.6,1.6-3.4,3.9-3.3s3.1,1.7,3.9,3.4c3.2,6.8,3.8,14.1,4.6,21.3c0.5,4,1.2,7.5,4.5,10.1c1.5,1.2,2.3,2.9,2.3,4.8    c1.1,18.1,4.6,35.9,6.7,53.9C360.2,488.5,355.6,495.3,349.7,497.4L349.7,497.4z M473.9,282c-33.4-9.7-67.6-12.8-102.2-10.9    c-51.9,2.8-103.1,10-152.7,26.8c-7.5,2.6-14.8,5.8-21.8,9.7c-1.1,0.6-2.1,1.9-4,0.9c11.1-9.1,23.6-15.1,36.9-19.5    c29-9.6,58.9-14.9,89-19c28.4-3.9,57-6,85.6-4.1c24.1,1.6,47.8,5.7,70.3,15.2c1.1,0.4,2.5,0.4,3.4,2    C476.8,283.6,475.1,283.2,473.9,282z M475.2,278.7c-25-10.1-51.2-15.2-77.9-18c-23.4-2.4-46.9-3-70.3-1.8    c-44.1,2.1-87.2,9.1-127.7,28c-1,1.1-2.3,1.5-4,2.1c0.3-2.2,1.6-2.7,2.9-3.1c17.7-12.6,37.8-19.9,58.7-24.9    c44.8-10.8,90.2-12.6,135.9-7.9c27.9,2.9,55.1,8.7,80.3,21.9c2.4,1.3,5,2.3,7,4.5C478.1,280.7,476.7,279.3,475.2,278.7    L475.2,278.7z M339.6,224.1c-55.9,0.4-105.9,17.2-146.1,58.1c-1-1.9,0.4-2.5,0.9-3.3c26-36.9,61.9-58,105.8-66.2    c43.4-8.1,85.5-4.3,125.8,14.2c24.8,11.3,44.6,28.8,60.3,50.9c0.3,0.5,0.6,1,0.9,1.5C445.9,239.2,395.5,223.7,339.6,224.1z     M519.7,252.8l-90.9-78.2l119.7-47.3C538.8,169.4,529.3,210.8,519.7,252.8L519.7,252.8z"
   id="path12" />
		<path
   class="st1"
   d="M453.3,475.7c0.1-3.4-1.2-4.3-4.2-4.1c-9.7,4.3-14.8,11.4-14.4,22.4c0.1,4.6-1.1,9.2-1.7,13.8    c-1.1,15.9-6,30.7-13.5,46c-1.6-6-1.8-11.2-3.8-15.8c-0.9-0.5-0.8-2.5-2.4-1.8s-3.1,2-3.2,4c-0.1,2.8,0.1,5.5,0.1,8.3    c1.5,3.9,1.1,8.3-1,12c-0.1-2.2-0.3-4.4-0.4-6.6c-1.5-1.7-0.4-3.8-0.8-5.7c-0.2-1.1,0-2.6-1.4-2.8c-1.2-0.1-2,0.8-2.8,1.8    c-1,1.4-0.7,2.8-0.7,4.3c0,5.6,0,11.3,0,17c-2.5-0.8-2-2.7-2.1-4.3c0-2.8-0.1-5.7-0.4-8.5c-0.3-2,0.6-5-2.1-5.8    c-2-0.5-6.1,5-6,7.4c0.3,5,0.5,10,1,14.9c0.2,2.6-0.4,5.2-1.9,7.3l-3.2-20.6c-5.8,2.5-8.4,6.3-7.3,12.4c0.5,3.1,0.7,6.3,0.9,9.4    c0.2,2.5-0.1,4.9-2.5,6.7c-1.9-6.4-0.9-13-2.5-19.3c-7.8,2.9-8,3.4-7.3,11.6c0.4,5,1,10.2-0.7,15.4c-1-5.4-1.9-10.8-3-16.2    c-0.3-1.5,0.3-4.3-2.3-4s-4.4,1.7-4.1,5.1c0.5,5.5,0.4,11,0.6,16.5c1.3,2.3,1,4.8,0.7,7.8c-1.3-1.2-1.9-2.9-1.7-4.6    c-0.7-5.4-1.4-10.9-2.2-16.3c-0.2-1.5,1-4.4-1.8-4.1c-2.5,0.3-6,0.5-5.8,4.7c0.3,6.3,0.6,12.6,1,19c0.3,1.7,0.4,3.3,0.4,5    c-0.1,1.3,1.3,3.4-0.9,3.7c-2,0.3-2.6-1.9-2.8-3.5c-0.5-4.3-0.8-8.6-1.1-12.9c-0.2-2.5-0.1-5-0.2-7.5c-0.1-2.7,0.5-5.3-4-5.1    c-4,0.2-4.9,2.3-4.7,5.5c0.6,7.8,0.6,15.7,0,23.5c0,1-0.3,2-0.7,3c-2.3-6.4-1.3-13.3-2.5-19.9c-0.1-1.7-0.2-3.3-0.2-5    c-0.4-5-4.1-7.5-8.8-6c-1.9,0.6-1.4,2.1-1.5,3.2c-0.6,8.4-1.1,16.9-1.7,25.3h-1.9c0-7.5,0-15.1,0-22.6c0-1.5,0-3-0.3-4.5    c-0.2-2.3-2.3-4-4.5-3.8c-2.9,0-3.1,2.3-3,4.3c0.1,5.8,0.5,11.6,0.7,17.5c0.1,3.3,0,6.7,0,10.2c-2.8-0.6-2.9-2.8-3-4.9    c-0.3-8.3-0.9-16.6-0.9-25c0-3.7-1.3-5.7-4.4-7.3c-2.6-1.3-3.7-0.9-3.7,1.9c0,3.8,0.1,7.7,0.1,11.5c0.1,0.4,0.2,0.9,0.3,1.4    c1.1,5.6,1.6,11.2,1.6,16.9c-4.5-5.5-2.6-10.9-3.1-15.9c-0.3-2.1-1-4.3-0.7-6.3c1.2-7.9-2.1-13.1-8.8-16.6    c-2.7,9.8-0.4,19.8-1.5,29.7c-2.9-0.1-2.7-2.1-3-3.9c-1-7.6-0.1-15.3,0-22.9c0.2-1.3,0.2-2.7,0-4c-0.6-2.8-3.1-5-5.3-5.1    c-2.1-0.1-1.5,3.1-1.6,5c-0.4,6-0.8,11.9-1.2,18.1c-2.8-0.8-2.7-3-2.7-5.1c-0.3-5.5,0.1-11,1.2-16.4c1.1-4.9-0.7-7.7-4.9-10.3    c-1.3,8.2-1.1,16.3-1.3,24.8c-2.8-1.8-2.9-4-2.9-6.3c0-6.5-0.1-13,0.1-19.5c0.1-3.2-0.4-6-4.1-6.1c-4.1,0-3,3.6-3.1,6    c-0.3,5.1-0.4,10.3-0.6,15.4c0,0.1-0.2,0.3-0.3,0.3c-0.6,0-0.8-0.3-0.8-0.9c-0.4-4-0.4-8,0-11.9c-0.1-2.6-0.3-5.3-0.1-7.9    c0.2-4-1.4-6.6-5.8-7.1c-0.4,1.4-0.8,2.8-1.2,4.2v18c-8.2-7.3-16.5-33.2-16-49.1c-2.3-9.5-3-19.2-4.1-28.9    c-0.4-3.8-0.9-6.9-5.4-8.2c-5.1-1.4-5.4-1.5-5.6,3.6c0,0.8-0.1,1.6-0.2,2.5c0,1.2,0.2,2.3,0.1,3.5c-0.5,19.6-1.1,39.3-1.6,58.9    c-0.2,2.3,0,4.6,0.6,6.9c3.1,9.2,6.9,18,13.7,25c23.9,24.8,50.1,47.2,74.3,71.6c8.4,4.6,17.1,8.2,27,7.2c4-1.7,9.3-0.8,11.4-6.2    c0.3-0.7,2.1-1.7,2.3-0.5c1,5.5,5.3,2.9,8.2,3.6c15.1-0.8,20.7-13.7,29-23c5.1-5.6,9.3-12,14.9-17.3c0.1-0.6,0.3-1.2,0.6-1.8    c9.6-10.8,19.3-21.5,29-32.2c9-10,18.3-19.8,21-33.7c2.1-10.6,1.2-21.5,2.6-32.2C453.2,500.5,453.1,488.1,453.3,475.7z"
   id="path14" />
		<path
   class="st1"
   d="M299.2,93.4c16.3,13.2,35.4,13.2,51.7,0.1c3.9-3.1,7.6-6.4,11.4-9.6c8.9-8.1,18.1-15.5,29-20.8    c13.6-7.7,28.1-13.2,43.5-18.6c-18.6-9.8-38.9-15.9-59.8-17.9c-33.1-3.3-64.8,1.6-94.7,16.6c-11.7,5.9-11.7,6-7.1,18.4    c0.1,0.3,0.1,0.7,0.1,1c4,7.7,8.9,14.8,14.7,21.2C291.7,87.1,295.3,90.3,299.2,93.4z"
   id="path16" />
		<path
   class="st1"
   d="M566.2,290.8c-9.2,6.3-18.3,12.7-28.1,18.1c-12,8-23.9,16-36,23.8c-3.3,2.1-5.3,4.5-6,8.4s-1.9,7.3-2.8,11    c-0.2,0.9-0.8,2.1,0.3,2.7c0.5,0.3,1.6-0.1,2.4-0.4c5.6-2.8,11.2-5.7,16.8-8.4c0.9-0.4,2.2-2.4,3.3-0.5c0.8,1.3-0.3,2.5-1.5,3.3    c-4.4,3-9.4,4.7-14.2,6.9c-3.1,1.5-6.5,2.6-8.9,5.3c-1.3,1.4-2.4,3.3-1.1,4.9c1,1.3,2.9,0.1,4-0.4c6-2.8,11.8-5.9,17.7-8.9    c11.2-6.6,22.4-13.2,34-19c13.9-8.6,28.1-16.6,43.6-22.1c2.1-0.9,4.5-0.8,6.6,0.2c6.2,3,10.6,1.2,13.5-5.2    c1.1-2.4,2.1-4.8,3.2-7.3c0.6-1.3,0.4-3.8,2.9-2.8c1.9,0.8,2.4,2.7,2,4.6c-0.4,1.7-1.8,3.5-1.5,5.1c1.9,11.8,13.1,18.7,25.2,16.1    c8.3-1.8,13.7-7.7,19.6-13c2.6-2.1,3.9-5.4,3.5-8.8c-0.7-8-4.1-15.3-6.5-22.8c-0.2-1-1-1.8-2-1.9c-6.8-0.5-9-6.2-11.7-11    c-1.8-3.3-2.8-7.1-4.5-10.4c-2.1-3.9-5-5.6-9.8-4c-5.6,2-11,4.5-16.5,6.6c-1.7,0.7-2.2,1.7-2.4,3.6c-0.3,2.9-3,5-5.9,4.7    c-0.7-0.1-1.4-0.3-2-0.7c-2.5-1.6-5.1-1-7.7-0.6c-8.1,1.4-13.2,7.1-18.2,12.9C574.5,285.4,570.3,288.1,566.2,290.8z"
   id="path18" />
		<path
   class="st1"
   d="M214.9,477.5c-0.3,0.1-0.5,0.1-0.8,0.1c-1.3,0.4-2.5,0.8-3.7,1.4c-22.1,11.4-43.6,24-65.2,36.2    c-0.4,0.2-1.1,0.5-1.2,0.8c-1.7,5.5-6.2,3.6-9.9,3.6c-2.2-0.1-4.3-0.4-6.4-1c-7-1.6-7.7-1.2-8.3,5.9c-0.1,1.3,0.9,2.8-1.9,2.9    c-11.8,0.3-23.4,2.9-35.1,3.9c-6.6,0.6-9.2,4-11.4,9.2c-1.1,2.6-0.3,3.5,1.8,4.3s4.6,1.9,5.1,4.4c0.6,2.9,2.3,4.3,4.7,5.3    c3.7,1.6,2.7,3.4-0.1,4.5c-3.8,1.5-6.4,3.8-7.3,8c-0.8,3.7-2.1,7.3-2.9,11c-0.3,1.3-1.1,3.2,0.8,4c4.4,1.9,8.1,5.7,13.2,5.2    c4-0.4,5.4,1.4,6.2,4.7c0.3,1.3,1,2.4,1.4,3.7c1,3.6,3,4.4,6.7,3.6c14.7-3.2,23-13.9,31.1-25.1c0.7-1-0.1-1.6-0.7-2    c-6-3.5-8.3-8.6-6.9-15.5c0.1-0.5,0-1-0.3-1.4c-1.7-3,0.1-4.3,2.5-5.7c19.8-12.1,39.9-23.6,60.3-34.7c1-0.6,1.9-1.8,3.8-1    c-1.3,2-3,3.6-5.1,4.8c-17.8,9.4-34.3,20.8-51.5,31c-3.5,2.1-8.1,3.2-5.5,9c0.3,1.1,0.2,2.4-0.3,3.4c-1.5,4.4,2.8,4.6,4.7,6.2    c2.2,1.8,3.5-0.7,4.7-2.2c2.3-2.8,3.6-6.2,6.8-8.4c21.8-15.1,43.4-30.6,65.3-45.6c4.6-3.2,6.9-6.7,6.2-12.4l-9.5,4.3l-9.5,5.4    c-0.3-0.4-0.5-0.8-0.7-1.2c2-3.3,6.2-3.4,9.1-5.1c8.4-3.5,13.7-9,12.3-18.8c0.1-0.8,0.3-1.6,0.6-2.4    C218.7,478.9,217.9,477.1,214.9,477.5z"
   id="path20" />
		<path
   class="st2"
   d="M70.4,152.6c-4.3-9.5-9.7-18.4-14.4-27.6c-6.1-11.9-12.2-23.7-18.7-35.3c-1.6-2.8-1.1-4.4,2.4-4.4h4.5    c38.7,0,77.3,0,116,0c3,0,6,0,8.9-0.3c1-0.1,2-0.2,3-0.4c9.8-4.7,18.1-11.8,24.3-20.7l-192-0.1C0,63.8-1,65.1,1,69.3    c2.2,4.7,5,9.3,7.4,13.9c3.5,6.6,7,13.2,10.3,19.8c4,8.1,8.6,15.9,12.6,24.1c4.6,9.3,9.5,18.5,14.6,27.6    c4.5,8.3,9.2,16.4,12.3,25.3c2.6-9.5,8.7-17.4,12.7-26.2C70.8,153.4,70.6,153,70.4,152.6z"
   id="path22" />
		<path
   class="st1"
   d="M458.5,483.2c-1.7,1.5-0.5,4.8-0.3,7.2c0.3,3.6,1.8,7,3.1,10.4c8.4,6.2,17.4,11.5,26.7,16.1    c6.6,3.3,12.9,6.9,18.2,12c4,3.7,8.6,6.8,13.5,9.2c16.4,8.3,16.4,8.3,21.1,25.8c0.7,2.6,1,5.2,1.8,7.7c0.4,1.1,0.3,2.3-0.3,3.3    c-3.5,7-0.3,10.3,6.2,12.9c6,2.4,12.5,3.2,18.8,4.4c4.7,0.9,8.1-0.6,11-3.8c1.7-1.8,2.8-4.2,4.6-5.8c4.7-4.5,8.2-9,2.9-15.5    c3.7-0.6,6.5,0.6,9.4,1.2c1.6,0.5,3.3-0.1,4.3-1.4c3.3-3.6,4.4-11.6,0.9-14.7c-5.5-4.9-4.9-9.9-2.3-15.5c2.2-4.7,0.1-7.7-3.7-9.9    c-4.3-2.5-8.8-4.6-13.3-6.5c-5.7-2.3-11.6-2.5-17.3,0.4c-1.6,0.8-3.4,1.2-5.2,1c-8.1-0.7-16.2-1.3-24.4-1.8    c-7.5-0.4-14.3-1.8-20.7-6.7c-13.9-10.7-29.3-19.4-45.3-26.6c-1-0.6-2-1-3.1-1.4C462.7,484.6,460.4,481.5,458.5,483.2z"
   id="path24" />
		<path
   class="st2"
   d="M682.6,63.8H542.3L557,85.1c1-1.6,2.6-1.3,4.1-1.3c30,0,60,0,90,0c3.2,0,5.1,0.5,3,4.2    c-12.9,23.4-24.5,47.6-37.9,70.8c4.9,7.4,9.2,15.2,12.8,23.3c3.9-8,7-16.5,11.8-23.9c6.4-9.9,10.8-20.6,16.6-30.8    c6.1-10.7,11.6-21.8,17.3-32.8c1.8-3.4,2.8-7.1,5.3-10.1c3.4-4.1,5.4-9.1,7.3-14C689.5,64.8,688.6,63.8,682.6,63.8z"
   id="path26" />
		<path
   class="st1"
   d="M187.3,366.8c-1-8.6-3.2-17-6.4-25h-0.2l0,0c-1.8,3.9-2.6,8-5.4,11c-4.2,6.7-10.1,12.2-17.1,15.9    c-1.7,1-3.3,2.1-5.1,3.1c-15.4,8.3-32.1,13.2-48.4,19C90.5,395.9,76.2,400.9,64,410c-9.7,7.1-16.4,16.2-17.6,29.4    c4.2-3.4,7.8-6.5,12.6-7.6c15.6-3.5,29.6,0.7,42.6,9.1c13.8,8.9,22.2,22.2,29.5,36.4c3.7,7.1,7.2,14.4,10.9,21.6    c0.4-0.3,0.7-0.4,0.7-0.5c0-0.5-0.1-0.9-0.2-1.4c-4.6-21.7,1.1-41,13.9-58.7c7.5-10.4,15.6-20.3,22.1-31.3    C185.2,394.7,188.3,380.8,187.3,366.8z M111.8,396.7c1.8,1.9,3.6,3.9,5.4,5.8c0.1,0.1,0.3,0,0.6,0.1c1-1.1,0.3-2.4,0.3-3.6l0,0    c-1-1.6-1.8-3.4-4.4-3.3c1.4-1.9,3-2.5,5.4-2.8c-0.8,1.8-1.1,3.5,0,5l0,0c5.2,3,9.5,7.3,15.6,10.3l-3.7,3l0,0l-3.1,2.7    c-2.9,2.6-4.8,3.8-8.1-0.7c-4.9-6.6-10.6-12.5-17.1-17.5C107.7,392.3,107.7,392.3,111.8,396.7z M133,455.8    c-1.2,1.3-1.6,4.6-3.2,3.8c-2.9-1.6-5.4-4.2-7.6-6.9c-0.8-1,0.8-1.4,1.8-0.9c1.7,1,3.4,2,5.1,3.1c1.3,0.8,2.2,0.7,2.3-1    c-2.9-3.2-7-4.3-10.7-6.1c-5.9-2.8-10.9-7-14.6-12.4c-2.6-3.8-6.7-6.5-10.6-10.3c4.8-0.8,6.7,4.3,10.8,3.9    c0.1-2.7-2.2-3.2-3.7-4.1c-4.7-2.8-9.6-5.2-14.3-8.1c-2.9-1.7-5.3-4.1-7-7c-1-1.7-2.5-4,0-5.1c2-0.9,4.8-4.2,7.1-0.1    c1.1,2,4.4,2.4,3.8,5.6l-1,1.6c4.6,2.9,10.4,4.3,13.5,8.9c3.6,5.3,8.4,9.2,13,13.4c0.4,0.4,0.3,1.2,0.4,1.8l-1.9,2    c4.7,2.7,9.9,4.5,13.5,8.8C131.9,449.2,134.1,451.9,133,455.8z M143.1,440.1c-0.9,1.1-1.2,3.5-3.6,1.8c-1.9-1.4-3.9-2.8-6.2-4.5    c-0.1,1.8,0.9,3.5,2.5,4.2c5.7,2.8,3.3,5.8,0.5,9c-7.2-9-15.1-17.3-23.8-24.9c0.1-0.9,1.8-1.2,2.4-2.7c-7.1-2.4-12-7.5-16-13.5    c-1.3-2-3-4.5-0.8-6.8s4.9-1.3,7.4-0.1c0.7,0.4,1.5,0.8,2.1,1.3c5.9,4,5.9,4.4-0.6,9.5c2.5,2,4.8,3.8,7.2,5.7    c0.8,0.6,1.8,1.4,2.7,0.8c1.3-0.9,0.3-2-0.1-3.1c-0.4-1.2-3.1-2.5-1.1-3.6s2.7,1.6,3.4,3.2c0.2,0.3,0.3,0.7,0.2,1    c-3.4,7.7,3.9,10.1,7.1,14.5c0.7,0.9,1.7,1.5,2,2.8c1.2-2.7-1.3-4.5-1.5-6.7l-2-3c-0.8-0.3-2.8,0.4-1.9-1.6    c0.5-1.1,1.6-2.8,3.2-2.3c1.2,0.4,0.2,1.6,0.1,2.5l0,0l1.8,3.3c5,3.2,9.3,7.6,14.7,10.2C144.9,438.1,143.8,439.1,143.1,440.1    L143.1,440.1z M157.1,417.7l0.1,0.2L157,418c-0.9,3.1-2.9,5.4-4.9,7.9c-0.9,3.2-3.9,4.9-5.3,7.9c-1.1,2.4-3.5,1-5-0.5    c-3.3-3.3-6.5-6.7-9.7-10c-1.4-1.4-2.6-3-5.3-3.6c2.2-1.5,2.8-4.5,6.1-3.4c0-0.5,0.1-0.9,0.1-1.4c3.8-5.1,3.8-5.1,7.7-1    c1.4,1.4,2.8,2.7,4.2,4.1l1.2-1.3c-2.8-3-6.1-5.8-8.3-9.2c-2.9-4.3-8.4-5.3-11-9.7c-1.4-2.4-3.9-4.7-1.6-7.6    c2.1-2.6,5.1-2.5,8.2-1.6c2.1,0.7,3.7,2.1,5.5,3.3l1.1-1.1c-2.3-2.8-4.5-5.6-7.8-7.5c3.4-3.1,6.2-2.7,9.1,1s6.3,6.8,9.7,10.2    c-4.9,2.3-3.5,4.8-0.1,7.7c2.4,2,4.1,4.9,6.6,6.7C162.6,412.5,160.4,415,157.1,417.7L157.1,417.7z M164.7,406.2    c-1.2,1.5-3.4,1.3-5,0.2c-3.5-2.5-6.9-5.3-5.3-10.5c0.3-0.6,0.6-1.1,1-1.6c2.4-2.2,5.3-2.5,7.4-0.2c2.7,3-1.4,4-2.4,5.9    c0.8,1,2.3,2,2.4,3C162.8,404.7,165.9,404.6,164.7,406.2L164.7,406.2z M166.5,403.5c0.6-2-2.6-3.2-1-5.3c0.4-0.2,0.8-0.2,1.2,0    C167.8,399.9,167.4,401.7,166.5,403.5L166.5,403.5z M170.1,398.4c-2.3-2.5-4.3-5.5-7-7.4s-1-2.8,0.1-4.2l-1.1-1    c-1.7,0.9-3.6,1.5-4.8,3.2c-1.6,2.8-3.9,2.7-6.2,1.1s-2.8-3.9-0.9-6.3l-0.7-0.8c-1.4,1-3.3,3-4.5,0.5s1.7-3.4,3.2-4.7    c0.4-0.7,1.2-1.1,2-0.9c3.9-1.5,6.9-0.5,9.4,2.9c1,1.2,2.2,2.2,3.5,3.1v-0.1l0,0c-0.6-5-5.7-6.6-7.9-10.5c2.2-1,4.4-3,6.9-0.4    c5.3-4.2,5.3-4.2,11.9,1.5c-2.3,4-4.6,3.8-7.4,0.3c-2-2.5-2.2-2.3-3.4,0c2.2,1.1,2.9,3.9,5.8,4.5l-4.9,4.5l1.1,1.9L165,386    c1.4-0.4,1.4-4.1,3.7-1.9c1.9,1.8-0.7,2.5-1.5,3.6c0.7,0.9,1.5,1.7,2.4,2.4C173.6,392.9,173.6,395.6,170.1,398.4L170.1,398.4z     M177.5,386.2c-2.1-1.8-5.7-1.1-7-3.7c-1.2-2.3,1.1-3.4,2.7-4.6c0.1-0.7,0.7-1.1,1.3-1c0.2,0,0.4,0.1,0.6,0.2    c1.6,1.2-0.8,1.7-0.6,2.7c2,0.1,4.6-0.8,5,2.4C179.6,383.9,177.7,386.4,177.5,386.2L177.5,386.2z"
   id="path28" />
		<path
   class="st3"
   d="M131.3,453.8l0.1,0.1C131.4,453.9,131.3,453.9,131.3,453.8z"
   id="path30" />
		<path
   class="st4"
   d="M491.7,395.7c-0.5,1-1.1,2.1-2.5,2.1c1.7,11.1,1.9,22.4,0.8,33.6c-1.2,11.1-10.9,20.6-22.3,23.1    c-3.9,0.9-2.4-3.8-4.6-4.6c-1.3,1.6-1.1,4.4-3.9,4.8c1.5,3.4-1.6,3.6-3.2,5c0.6,4.2-2.6,9.8-6.9,11.8c3-0.2,4.2,0.7,4.2,4.1    c-0.2,12.4-0.1,24.8-0.1,37.1c1.4-1.3,1.9-3.2,3.8-4c0.4-1.8-1.1-4.3,2-5c0.6-1.1,0.9-2.5,2.2-3.1c-1.3-3.4-2.8-6.7-3.1-10.4    c-0.2-2.5-1.4-5.7,0.3-7.2c2-1.7,4.2,1.5,6.6,2c1.1,0.3,2.1,0.8,3.1,1.4c0.8-2.9,3.1-4.9,4.3-7.7c2.5-6.3,5.5-12.3,9-18.1    c6.5-10.6,11.9-21.7,17.6-32.6c7.5-14.3,15.3-28.4,22.3-43c7.7-16.1,17.6-31,24.7-47.4c-11.6,5.8-22.8,12.4-34,19L491.7,395.7z"
   id="path32" />
		<path
   class="st1"
   d="M215.4,460.3c1-5.7,3.7-10.9,9.7-13.4c2.7-1.2,5.5-2.3,8.1-3.7c4.9-2.7,5.8-5.7,2.9-10.5    c-3-5-7.1-9.2-11.1-13.5c-6.7-7.1-9-15.3-6.5-24.8c0.9-3.5,1.9-7,2.5-10.6c0.7-3.9-0.8-6-5.1-6c-5.7,0.1-10.4,1.8-12.8,7.5    c-1.2,3.3-3.6,6.1-6.7,7.7l-8.6,7.3c-3.9,3.3-4.7,8.1-5.6,12.7l0,0c0.5,3.1,0.7,6.3,1.5,9.3c3.7,15.2,11.7,28.2,20.4,40.9    c0.8,1.5,2.3,2.5,4,2.7c1.2,0.2,2.1,0.4,3,0.6C214,466.5,214.8,464,215.4,460.3z"
   id="path34" />
		<path
   class="st2"
   d="M385.2,629.9c-8.4,9.3-14,22.2-29,23c-3.2,6-6.4,11.9-9.4,18c-1.8,3.6-3.1,2.6-4.6-0.1    c-2.7-4.9-4.6-10.3-8-14.9c-9.9,1.1-18.6-2.5-27-7.2c0.8,5.3,4.6,9,6.8,13.6c8.4,17.7,18.6,34.5,27.2,52.2    c1.6,3.2,4.1,3.2,6.1,0.1c1.7-2.7,3.3-5.5,4.8-8.4c10-18.9,20-37.9,30-56.8c3.1-5.8,6.1-11.7,9.3-17.5c3.3-6.2,7.4-12.1,8.6-19.2    C394.5,617.9,390.3,624.3,385.2,629.9z"
   id="path36" />
		<path
   class="st5"
   d="M266.9,516.9c0.1-0.6,0.2-1.2,0.3-1.8C267,515.7,266.9,516.3,266.9,516.9z"
   id="path38" />
		<path
   class="st5"
   d="M225.8,476.8c4.5,1.3,5,4.4,5.4,8.2c1.1,9.7,1.8,19.4,4.1,28.9c3.2,6,6.1,12.1,9.5,18    c2.5,4.3,5.2,8.3,6.4,13.2c0.4-1.4,0.8-2.8,1.2-4.2c4.4,0.5,5.9,3.1,5.8,7.1c-0.1,2.6,0.1,5.3,0.1,7.9c1.2,3.9,1.2,8,0,11.9    c0,0.5,0.2,0.9,0.8,0.9c0.1,0,0.3-0.2,0.3-0.3c0.2-5.1,0.3-10.3,0.6-15.4c0.1-2.4-1-6,3.1-6c3.7,0,4.2,2.9,4.1,6.1    c-0.2,6.5-0.1,13-0.1,19.5c0,2.3,0.1,4.6,2.9,6.3c0.2-8.5,0.1-16.6,1.3-24.8c4.2,2.6,6,5.4,4.9,10.3c-1.1,5.4-1.5,10.9-1.2,16.4    c0.1,2.1,0,4.3,2.7,5.1c0.4-6.2,0.8-12.1,1.2-18.1c0.1-1.9-0.5-5.1,1.6-5c2.3,0.1,4.7,2.3,5.3,5.1c0.2,1.3,0.2,2.7,0,4    c-0.1,7.6-1,15.3,0,22.9c0.2,1.8,0.1,3.8,3,3.9c1-9.9-1.2-19.9,1.5-29.7c-6.3-9-12.1-18.2-13.5-29.5c-1.4,1.4-0.2,3.5-1.3,5    c-4.3-1.7-6.2-4.6-5.6-9.3c0.1-2.2,0.1-4.3-0.1-6.5c-1.6-2.4-0.6-5-0.7-7.6l0,0c0.3-2.4,0.3-4.7-2.1-6.1    c-0.4,6.6,1.1,13.2-0.8,19.7c-0.6,1.9-1.9,2.6-3.9,2.1c-2.3-0.5-1.3-2.4-1.4-3.7c-0.1-6.5,0-13,0-20.9c-2.9,5.7-1.2,10.6-2.5,15    c-0.5,1.7,0.5,4.9-2.1,4.8c-2.3-0.1-3.5-2.8-4.2-5.1c-0.2-1.1-0.3-2.3-0.2-3.5c-0.4-7,0.8-13.9,2.1-20.7c-4-5.5-7.5-11.3-9.1-18    c-5.9-6.9-14.4-9.6-21.8-14.1c-4.3-2.6-5-5.5-3.4-9.9c1.5-4.1,4.1-7.5,6.4-11.1c-1.2-0.7-1.1-1.9-1.1-3c-6,2.5-8.7,7.7-9.7,13.4    c-0.7,3.7-1.4,6.3-4.3,6.3c-1,0-2-0.2-3-0.6c4.9,1.4,4.7,6.7,7.3,9.9c0.1,0.1-0.8,1.2-1.3,1.8c0.3-0.1,0.5-0.1,0.8-0.1    c3-0.4,3.7,1.3,3.2,4.3l1.9,1c0.1-0.8,0.2-1.6,0.2-2.5C220.4,475.3,220.8,475.3,225.8,476.8z"
   id="path40" />
		<path
   class="st1"
   d="M457.1,508.9c1.7,2.5,3.8,4.6,6.3,6.2c11.5,7.5,22.9,15.2,34.6,22.4c8.3,5.1,16,10.3,20.9,19.2    c2.4,4.5,7.1,7.3,12.3,7.3c1.6,0,3.3-0.1,2.8-2.3c-1.3-5.3-2.8-10.7-7.7-13.9c-22.4-14.7-44.8-29.3-67.2-43.9    C456,504.5,457.5,507.1,457.1,508.9z"
   id="path42" />
		<path
   class="st2"
   d="M175.2,352.9c-4.6-6.4-7.8-13.5-11.3-20.5c-0.3-0.5-0.2-1.3,0.4-1.6c0,0,0.1,0,0.1-0.1    c-1.4-1.6-3-2.5-5.2-1.6c-6.1,2.5-12.3,5-18.4,7.6c0.7,0.4,1.8,0.6,2,1.1c3.4,7.5,7.4,14.8,11.4,22.1c1.5,2.8,4.3,5.2,4,8.9    C165.2,365.1,171.1,359.6,175.2,352.9z"
   id="path44" />
		<path
   class="st4"
   d="M549.9,282.7c0.5,4.7-2.9,7.8-4.7,11.4c-2.4,4.9-5.5,9.5-7,14.8c9.8-5.4,18.9-11.8,28.1-18.1    c4-2.8,8.2-5.4,11-9.7c-0.1-1.8,1-3.1,1.7-4.6c2.9-6.6,7.4-12.5,9.2-19.6c-2.2,1.2-4.3,2.4-6.3,3.9    C571.8,269,562.5,278.2,549.9,282.7z"
   id="path46" />
		<path
   class="st6"
   d="M187.9,400.4l8.6-7.3c-4.3-6.6-9.4-12.8-8.4-21.5c0.2-1.6,0.4-3.3-0.9-4.7c1,13.9-2.1,27.9-8.9,40.1l3.9,6.2    l0,0C183.3,408.5,184,403.7,187.9,400.4z"
   id="path48" />
		<path
   class="st7"
   d="M369.1,84.7c9.8-7.9,20.3-14.9,31.4-20.7c-3.1-0.7-6.3,0.7-9.3-0.9c-10.8,5.3-20.1,12.7-29,20.8    C364.5,84.2,367,83,369.1,84.7z"
   id="path50" />
		<path
   class="st7"
   d="M288,83.9c-5.8-6.4-10.7-13.5-14.7-21.2c-1.3,1.9-3.3,1-5,1.2c2.9,8,7.6,15.2,13.8,21.1    C283.8,83,286,84.2,288,83.9z"
   id="path52" />
		<path
   class="st8"
   d="M196,508.2c0.2,0.4,0.5,0.8,0.7,1.2l9.5-5.4c-0.4-0.3-0.7-0.6-1.1-0.9C202.2,504.8,198,504.9,196,508.2z"
   id="path54" />
		<path
   class="st9"
   d="M134.3,313.9c-2-2.5-3.1-5-6.2-5c0,1.5,1.9,3.7-1.4,4.1l0,0C129,314.2,131.4,314.1,134.3,313.9z"
   id="path56" />
		<path
   class="st10"
   d="M301.3,589.5c0.1,0.5,0.2,0.9,0.3,1.4C301.5,590.4,301.4,590,301.3,589.5z"
   id="path58" />
		<path
   class="st11"
   d="M519.7,252.8c9.7-42.1,19.1-83.4,28.8-125.4l-119.7,47.3L519.7,252.8z M537.1,161.6    c-6.2,27-12.5,54-18.6,81.1c-0.7,3.1-1,4.4-4,1.6c-6.7-6.2-13.7-12.1-20.6-18.1l-5.1-4.3c-0.9-0.2-1.6-0.8-1.9-1.6l0,0    c-1.9-1.2-3.6-2.7-5-4.4l-47.2-40l108.9-43C541.4,143,539.3,152.3,537.1,161.6L537.1,161.6z"
   id="path60" />
		<path
   class="st4"
   d="M118.1,292.7c11.1,5,20.7,12.5,31,18.7c3.4,2,6.9,3.4,11.6,1.2L117.1,288    C117.4,289.6,117.8,291.1,118.1,292.7z"
   id="path62" />
		<path
   class="st12"
   d="M110,255.2c0,1.9-0.4,3.4,0.1,3.7c7.6,5.8,15.3,11.4,23,17l0.8-2L110,255.2z"
   id="path64" />
		<path
   class="st13"
   d="M267.1,515.1c-0.1,0.6-0.2,1.2-0.3,1.8c-0.9,6-0.4,12-0.5,17.9C268.2,528.3,266.7,521.7,267.1,515.1z"
   id="path66" />
		<path
   class="st14"
   d="M401,525.9c-0.4-1.6-0.7-3.2-1.1-4.8l-1,0.9l0,0c0.3,2-0.2,4.2,1,6.1L401,525.9z"
   id="path68" />
		<path
   class="st15"
   d="M400,521c0.3-1.3-0.4-2.7-1.6-3.3c-0.4,1.7-0.6,3,0.6,4.2l0,0L400,521z"
   id="path70" />
		<path
   class="st13"
   d="M270,528.8c0.1-2.6,0.5-5.2-0.7-7.6l0,0C269.3,523.8,268.4,526.4,270,528.8z"
   id="path72" />
		<path
   class="st16"
   d="M475.1,281l-1.2,1c1.2,1.2,3,1.6,4.6,1.1C477.6,281.4,476.2,281.5,475.1,281z"
   id="path74" />
		<path
   class="st17"
   d="M195.3,289c1.7-0.5,3-1,4-2.1l-1.1-1C196.8,286.4,195.6,286.9,195.3,289z"
   id="path76" />
		<path
   class="st6"
   d="M429,514.6c-4.8,7.6-7.3,16.5-13.3,23.5c2,4.6,2.2,9.7,3.8,15.8c7.5-15.3,12.4-30,13.5-46    C431.7,510.1,430.4,512.4,429,514.6z"
   id="path78" />
		<path
   class="st18"
   d="M300,591.9c0.5,4.9-1.4,10.3,3.1,15.9c0-5.7-0.5-11.3-1.6-16.9c-0.1-0.5-0.2-0.9-0.3-1.4L300,591.9z"
   id="path80" />
		<path
   class="st19"
   d="M408.9,554c0.1,2.2,0.3,4.4,0.4,6.6c2.1-3.6,2.5-8,1-12C409.6,550.3,410.9,552.6,408.9,554z"
   id="path82" />
		<path
   class="st20"
   d="M258.3,555.9c-0.4,4-0.4,8,0,11.9C259.5,563.9,259.5,559.7,258.3,555.9z"
   id="path84" />
		<path
   class="st21"
   d="M359.3,599.8c-0.3,1.7,0.4,3.5,1.7,4.6c0.2-3,0.5-5.4-0.7-7.8L359.3,599.8z"
   id="path86" />
		<path
   class="st22"
   d="M142.8,437c-5.4-2.6-9.6-7-14.7-10.2l-1.1,1.1c0.3,2.3,2.7,4,1.5,6.7c-0.3-1.3-1.4-1.9-2-2.8    c-3.2-4.4-10.5-6.8-7.1-14.5c0.1-0.2-0.1-0.7-0.2-1c-0.8-1.5-1.3-4.3-3.4-3.2s0.6,2.3,1.1,3.6c0.4,1,1.4,2.2,0.1,3.1    c-0.9,0.6-1.8-0.1-2.7-0.8c-2.3-1.9-4.7-3.8-7.2-5.7c6.4-5.1,6.4-5.5,0.6-9.5c-0.7-0.5-1.4-0.9-2.1-1.3c-2.5-1.2-5.2-2.3-7.4,0.1    s-0.5,4.8,0.8,6.8c4,6,8.9,11.1,16,13.5c-0.6,1.5-2.4,1.8-2.4,2.7c8.6,7.6,16.6,15.9,23.8,24.9c2.8-3.1,5.2-6.1-0.5-9    c-1.6-0.8-2.6-2.5-2.5-4.2c2.4,1.7,4.3,3.1,6.2,4.5c2.4,1.8,2.7-0.6,3.6-1.8S144.9,438.1,142.8,437z"
   id="path88" />
		<path
   class="st23"
   d="M116.2,437.7c-3-1.1-6-2.2-8.1-5.4c4.3-0.8,6.2,4.1,10,3.4c-0.1-0.6-0.1-1.4-0.4-1.8    c-4.6-4.2-9.4-8.1-13-13.4c-3.1-4.5-8.9-6-13.5-8.9c-3.5-1.3-6.6-3.3-9.1-6c4.7,0.5,6.9,3.6,10.1,4.4c0.6-3.1-2.7-3.6-3.8-5.6    c-2.3-4.1-5.1-0.8-7.1,0.1c-2.5,1.1-1,3.5,0,5.1c1.7,2.9,4.1,5.3,7,7c4.7,2.8,9.6,5.3,14.3,8.1c1.5,0.9,3.8,1.4,3.7,4.1    c-4.1,0.4-6-4.6-10.8-3.9c4,3.7,8.1,6.5,10.6,10.3c3.7,5.4,8.7,9.6,14.6,12.4c3.7,1.8,7.8,2.9,10.7,6.1l0.1,0.1    c0.5,0.6,1.1,1.2,1.6,1.8c1.1-3.9-1.1-6.6-3.3-9.3C126.1,442.1,120.8,440.4,116.2,437.7z"
   id="path90" />
		<path
   class="st22"
   d="M155.8,418.2c-5.3-5-11.1-9.6-14.6-16.2l0,0l1.1-1.3c0.5-3.5-1.3-6.2-3.3-8.9c-1.8-1.1-3.3-2.6-5.5-3.3    c-3.1-1-6.2-1-8.2,1.6c-2.3,2.8,0.2,5.2,1.6,7.6c2.6,4.4,8.1,5.4,11,9.7c2.3,3.4,5.5,6.1,8.3,9.2c2.3,2.5,6.1,3.8,5.9,8.1v1.1    c1.9-2.4,4-4.8,4.9-7.9C156.5,418.1,156,418.4,155.8,418.2z M128,389.9c5,2.8,8.6,7.1,11.8,11.8    C134.3,399.5,131.2,394.6,128,389.9z"
   id="path92" />
		<path
   class="st24"
   d="M119.9,413.1c3.3,4.5,5.2,3.3,8.1,0.7c0.1-3.2-4.8-2.4-4.6-5.9c3.2-0.5,4.5,3.8,7.7,3.2l0,0l3.7-3    c-6.2-3-10.5-7.3-15.6-10.3l0,0l-1.1,1.1l0,0c-0.1,1.2,0.7,2.5-0.3,3.6c-0.2,0-0.5,0-0.6-0.1c-1.8-1.9-3.6-3.9-5.4-5.8    c-4.1-4.3-4.1-4.3-9-1.1C109.3,400.6,115,406.5,119.9,413.1z"
   id="path94" />
		<path
   class="st22"
   d="M145,417.9c-1.4-1.4-2.9-2.7-4.2-4.1c-3.9-4-3.9-4.1-7.7,1c6,2.6,9,8.5,13.5,12.7c0.4,0.4,0.5,1.1,0.1,1.5    c-0.1,0.1-0.1,0.1-0.2,0.2c-0.9,0.8-1.6-0.1-2.1-0.6c-3.8-4.1-7.6-8.3-11.4-12.4l0,0c-3.3-1.2-3.9,1.9-6.1,3.4    c2.6,0.6,3.9,2.2,5.3,3.6c3.2,3.4,6.4,6.8,9.7,10c1.5,1.5,3.9,2.9,5,0.5c1.3-3,4.4-4.7,5.3-7.9v-1.1    C149,423.2,147.1,420.5,145,417.9z"
   id="path96" />
		<path
   class="st22"
   d="M157.7,409c-2.5-1.8-4.3-4.7-6.6-6.7c-3.4-2.9-4.8-5.4,0.1-7.7c-3.3-3.5-6.8-6.6-9.7-10.2s-5.7-4.1-9.1-1    c3.3,1.8,5.5,4.7,7.8,7.5c1.1,1,2.1,2,3.2,2.9c3.7,3,2.9,5.3-1.1,7l-1.1,1.3l0,0c0.7,0,1.6-0.3,1.9,0c5.2,4.8,10.9,9,14,15.7    C160.4,415,162.6,412.5,157.7,409z"
   id="path98" />
		<path
   class="st25"
   d="M169,379.3c-2.8-0.6-3.6-3.4-5.8-4.5c-0.8-0.3-1.2-1.1-1.1-1.9c-2.5-2.6-4.7-0.6-6.9,0.4    c2.2,3.9,7.3,5.5,7.9,10.5h1L169,379.3z"
   id="path100" />
		<path
   class="st26"
   d="M169.8,390.2c-0.9-0.7-1.7-1.6-2.4-2.4c-1-0.2-1.8-0.9-2.3-1.8l0.1-0.3l-2.1,1.1c-1.1,1.4-2.9,2.3-0.1,4.2    s4.7,4.9,7,7.4C173.6,395.6,173.6,392.9,169.8,390.2z"
   id="path102" />
		<path
   class="st27"
   d="M159.5,380.7c-2.5-3.4-5.5-4.4-9.4-2.9c0.2,1.7,2.5,2.1,2.5,4l0,0c0.1,0.2,0.3,0.3,0.4,0.4    c2.1,1.3,4.5,2.3,4,5.4c0,0.4,0.1,0.8,0.1,1.3c1.2-1.7,3.1-2.3,4.8-3.2l1.1-1.9C161.8,382.9,160.6,381.9,159.5,380.7z"
   id="path104" />
		<path
   class="st27"
   d="M162.7,403c0-1-1.5-2-2.4-3c-2-1.4-2.7-4.6-6-4.1c-1.6,5.2,1.8,8,5.3,10.5c1.5,1.1,3.8,1.4,5-0.2    S162.8,404.7,162.7,403z"
   id="path106" />
		<path
   class="st28"
   d="M163.3,374.8c1.2-2.3,1.4-2.5,3.4,0c2.8,3.5,5.1,3.7,7.4-0.3c-6.6-5.7-6.6-5.7-11.9-1.5    C162,373.7,162.5,374.5,163.3,374.8z"
   id="path108" />
		<path
   class="st29"
   d="M144.4,428.6c0.5,0.5,1.1,1.4,2.1,0.6c0.5-0.3,0.7-1,0.4-1.5c-0.1-0.1-0.1-0.2-0.2-0.2    c-4.5-4.2-7.5-10-13.5-12.7c0,0.5-0.1,0.9-0.1,1.4l0,0C136.8,420.4,140.6,424.5,144.4,428.6z"
   id="path110" />
		<path
   class="st30"
   d="M174.4,379.7c-1-0.3-1.2-1-1.3-1.9c-1.5,1.2-3.8,2.3-2.7,4.6c1.3,2.6,4.9,1.9,7,3.7c0.2,0.2,2.1-2.3,1.9-4    C179,378.9,176.4,379.9,174.4,379.7z"
   id="path112" />
		<path
   class="st20"
   d="M153.1,382.3c-0.2-0.1-0.3-0.2-0.4-0.4l0,0l-2.6,1.9c-1.9,2.4-1.5,4.6,0.9,6.3s4.6,1.7,6.2-1.1    c0-0.4-0.1-0.8-0.1-1.3C154.1,387.1,152.4,385.6,153.1,382.3z"
   id="path114" />
		<path
   class="st31"
   d="M160.4,399.9c1-1.9,5.1-3,2.4-5.9c-2.1-2.3-5-2-7.4,0.2c-0.4,0.5-0.7,1-1,1.6    C157.7,395.3,158.4,398.5,160.4,399.9z"
   id="path116" />
		<path
   class="st32"
   d="M131.3,453.8c-0.1,1.8-1,1.8-2.3,1c-1.7-1-3.3-2.1-5.1-3.1c-1-0.5-2.6-0.1-1.8,0.9c2.2,2.6,4.7,5.3,7.6,6.9    c1.6,0.8,2-2.5,3.2-3.8c-0.5-0.6-1.1-1.2-1.6-1.8L131.3,453.8z"
   id="path118" />
		<path
   class="st33"
   d="M142.3,400.8c4-1.8,4.8-4.1,1.1-7c-1.1-0.9-2.1-1.9-3.2-2.9l-1.1,1C141,394.5,142.8,397.2,142.3,400.8z"
   id="path120" />
		<path
   class="st34"
   d="M108.1,432.3c2.1,3.2,5.1,4.3,8.1,5.4l1.9-2C114.3,436.4,112.4,431.6,108.1,432.3z"
   id="path122" />
		<path
   class="st13"
   d="M148.1,378.8c-1.6,1.3-4.5,2.1-3.2,4.7s3,0.5,4.5-0.5C149.1,381.5,149.8,379.8,148.1,378.8z"
   id="path124" />
		<path
   class="st35"
   d="M152.1,424.7c0.2-4.3-3.6-5.6-5.9-8.1l-1.2,1.3C147.1,420.5,149,423.2,152.1,424.7z"
   id="path126" />
		<path
   class="st36"
   d="M91.2,411.6l1-1.6c-3.2-0.8-5.4-3.9-10.1-4.4C84.6,408.3,87.7,410.4,91.2,411.6z"
   id="path128" />
		<path
   class="st37"
   d="M119.2,397.8c-1.2-1.5-0.8-3.1,0-5c-2.4,0.3-4,0.9-5.4,2.8c2.6-0.1,3.4,1.6,4.4,3.3l0,0L119.2,397.8    L119.2,397.8z"
   id="path130" />
		<path
   class="st38"
   d="M123.4,407.9c-0.3,3.5,4.6,2.6,4.6,5.9l3.1-2.7l0,0C127.9,411.7,126.6,407.4,123.4,407.9z"
   id="path132" />
		<path
   class="st39"
   d="M152.7,381.9L152.7,381.9c0-1.9-2.3-2.3-2.5-4c-0.8-0.2-1.6,0.2-2,0.9c1.6,1,1,2.7,1.2,4.2l0.7,0.8    L152.7,381.9z"
   id="path134" />
		<path
   class="st40"
   d="M167.3,387.8c0.8-1.1,3.3-1.9,1.5-3.6c-2.3-2.2-2.4,1.5-3.7,1.9C165.5,386.9,166.4,387.6,167.3,387.8z"
   id="path136" />
		<path
   class="st6"
   d="M126.3,423.6L126.3,423.6c0.1-0.9,1.1-2.1-0.1-2.5c-1.6-0.5-2.7,1.1-3.2,2.3c-0.9,1.9,1.1,1.2,1.9,1.6l0,0    L126.3,423.6z"
   id="path138" />
		<path
   class="st41"
   d="M165.6,398.2c-1.7,2.1,1.5,3.3,1,5.3c0.9-1.8,1.3-3.6,0.2-5.3C166.4,398,165.9,398,165.6,398.2z"
   id="path140" />
		<path
   class="st40"
   d="M174.4,379.7c-0.2-1,2.2-1.5,0.6-2.7c-0.5-0.4-1.3-0.3-1.7,0.3c-0.1,0.2-0.2,0.4-0.2,0.6    C173.2,378.7,173.4,379.5,174.4,379.7z"
   id="path142" />
		<path
   class="st42"
   d="M126.3,423.6L126.3,423.6l-1.3,1.3l0,0l2,3l1.1-1.1L126.3,423.6z"
   id="path144" />
		<path
   class="st43"
   d="M164.1,383.8h-1v0.1l-1.1,1.9l1.1,1l2.1-1.1L164.1,383.8z"
   id="path146" />
		<path
   class="st1"
   d="M485.6,394.5c-9.8-3.3-14.3-11.3-17.6-20.2c-0.5-1.2-0.9-3.1-1.8-3.3c-3.1-0.9-6.4,0.4-9.2,1.3    c-2,0.6-0.8,3.5-0.3,5.4c1.5,6.1,4.3,12.2,4.2,18.3c-0.3,13.9-4.4,26.5-18,33.7c-2.7,1.5-6.1,3.3-5.4,7c0.7,4,4.7,4.8,8,5.8    c0.9,0.3,2,0.2,3,0.4c5.3,1.5,11.2,1.7,14.7,7.1c2.2,0.8,0.7,5.5,4.6,4.6c11.4-2.5,21.1-12,22.3-23.1c1.1-11.2,0.9-22.5-0.8-33.6    C488.2,396.5,487.3,395.1,485.6,394.5z"
   id="path148" />
		<path
   class="st44"
   d="M346.1,425.6c-3.9-4.1-5.2-9.1-6-14.4c-0.7-4.2-1.6-8.4-2.5-12.5l-1.5-0.2c-0.6,16.7-7.9,31.7-12.3,47.5    c6.2-6,9.3-14,13.8-22.6c1.4,6.9,0.2,12.8,5.3,17c2.1,1.8,2.9,7,5.5,6c4-1.3,1.1-5.7,0.5-8.4C347.9,433.9,349.4,429.1,346.1,425.6    z"
   id="path150" />
		<path
   class="st45"
   d="M482,215.9c2.7,0.3,4.1,2,5,4.4l0,0c0.3,0.8,1.1,1.4,1.9,1.6c2.8,0.1,4.1,1.9,5.1,4.3    c6.9,6,13.9,12,20.6,18.1c3,2.8,3.3,1.5,4-1.6c6.1-27.1,12.4-54.1,18.6-81.1c2.1-9.3,4.3-18.7,6.6-28.8l-108.9,43L482,215.9z     M479.4,198.4c-0.6,1.1-1.8-0.1-2.6,0.3l0,0c-1.4,3.1-2,0.2-2.9-0.4c-1.4-0.4-1.8,1.2-2.9,1.4c-0.5,0.1-0.9,0-1.3-0.3    c-0.2-0.2-0.1-0.9,0-1.2c1.9-4.5,5.6-5.2,8.7-1.8C479,196.9,479.9,197.6,479.4,198.4L479.4,198.4z M479.9,207.4    c0.7-3.1,3-5,2.1-7.9l5.4,4.5C484.5,204.1,482.6,205.7,479.9,207.4L479.9,207.4z M485.9,208.6c2.8-0.6,3.3,1.3,4.1,3    C488.1,211.6,486.4,210.4,485.9,208.6L485.9,208.6z M509.9,226.8c-0.5,0.8-0.9,1.7-1.9,1.9c-2.4,0.5-4.6,0.6-6.1-1.8    c-2.6-0.8-2.1-2.3-0.9-4l2.1-2.2l-2-1.6c-3-1.3-3.4,3.2-6,2.8c-1.6-1.4-1.2-2.4,0.7-3c2.1-1.5,2.2-3.2,0.3-5    c-2.4-0.7-2.8,1.8-4.2,2.7c-0.9,0.6-1.9,1.7-2.9,0.3c-0.9-1.2,0.7-1.4,1.2-2c0.8-1,1.7-1.9,2.6-2.9c2.4-2.8,2.7-0.3,3.3,1.3    c3.5-0.2,4.8,3.2,7.2,4.6c1.3,0,2.4,0.9,2.8,2.1c1.3,2.3,5.7,2.8,4,6.8L509.9,226.8L509.9,226.8z M467.8,180.9    c0.4-2,1.9-3.6,4.4-2.7c5.3,2.1,10.6,4.4,15.9,6.6l3.9,0.8c0.1-0.3,0.1-0.5,0.1-0.8c-0.1-0.3-0.1-0.6,0-0.8    c-2.9-0.5-3.7-3.1-5-5.2c-2.9-2.3-4-6.6-8.2-7.6c-1.1-0.3-1.2-1.4-1.2-2.5c0.1-0.8,0.8-1.1,1.4-1.1c1.3-0.1,2.6-0.3,3.4,1.2    c1.8,3,3.7,5.8,5.6,8.7c1.3,1.7,2.7,3.5,4,5.2l1-1.2c-1.6-2.8-1-5.4,1-7.8l0,0l0.9-3.1c0.4-0.9,1.2-0.9,2-0.9    c0.3-0.8,0.2-1.7-0.3-2.4c-2.2-2.6-2.4-4.3,1.5-5.6c1.6-0.5,2.8-2.7,4-4.2c5-6,13.4-6.4,20-1.1c6.5,5.2,7.9,14,3.1,19.9    c-1.8,2.3-4.1,4.2-4.6,7.4c-0.4,2.2-2.3,1.1-3.7,1c-2.7,0.1-4.8,2.6-7.8,1.9c0.2,2.7-2.3,2.8-3.9,3.9L504,192    c2.2,0.4,4.2,1.4,5.9,2.8c2.5,0.7,5,1.4,7.5,2.2c1.8,0.6,1.7,2.2,1.7,3.7c0,0.7,0.2,1.8-0.9,2c-1.6,0.3-2.3-0.8-2.8-2.1    c-1.2-3-4.7-2.7-6.6-4.7c-2.7-1-5.6-1.8-7.7-4l-1.2-0.1l0,0l-0.8,0.1c-0.8,1.9,1.6,2.5,1.7,4l0,0c2.7,4.3,5.5,8.6,8.2,12.9    c0.9,1.2,1.3,2.7,0.9,4.2c-0.3,0.9-1,1.9-2.1,1.7c-0.6-0.1-1.7-1.1-1.6-1.6c1-6.6-4.8-10.4-6.6-15.9l0,0l-4.9-7.3l-3-2    c-2.3,0.1-4.1-0.9-6-2c-5.2-0.9-9.7-4.9-15.5-3.1C469.8,183,467.4,182.8,467.8,180.9L467.8,180.9z M465.5,186    c2,0.4,0.4,3.2,0.6,4.9c0.8,0.1,1.6,0.1,2.4,0.2c1.2,0.2,2.8-1.2,3.6,0.4c0.8,1.7-0.9,2.5-1.9,3.4c-0.7,0.9-1.2,2.9-2.6,1.6    c-1.2-1.2,1-2,1.4-3l-1.8-0.6c-4.6,1.9-1.5-2.7-2.9-3.6c-1.4-0.3-1.7,2.8-4,0.9C462.1,188.8,462.5,185.3,465.5,186z M457.6,179    c1.5,0-1,3.1,0.3,4.8l0.3,0.1l0,0c0,0.1,0.1,0.1,0.1,0.2c1.7,0.7,3.5-2.4,4.6-0.5c1.1,2.1-1.9,3-2.9,4.6c-0.2,0.3-0.8,0.4-1.4,0.7    c-1.5-1.6,0.3-3.4-0.3-4.9c-0.1,0-0.1-0.1-0.2-0.1c-0.1-0.1-0.1-0.1-0.2-0.2c-2-0.6-4.8,2.4-5.4,0.3S455,179,457.6,179z"
   id="path152" />
		<path
   class="st45"
   d="M508,225.6L508,225.6L508,225.6L508,225.6z"
   id="path154" />
		<path
   class="st46"
   d="M482,215.9c1.4,1.7,3.1,3.2,5,4.4l0,0C486.2,217.9,484.7,216.2,482,215.9z"
   id="path156" />
		<path
   class="st46"
   d="M488.9,221.9l5.1,4.3C493.1,223.9,491.7,222.1,488.9,221.9z"
   id="path158" />
		<path
   class="st47"
   d="M143.1,402c-0.4-0.3-1.3,0-1.9,0l0,0c3.5,6.6,9.3,11.2,14.6,16.2c0.2,0.2,0.7-0.1,1.2-0.3l0.2-0.1l-0.1-0.2    C154.1,411.1,148.3,406.8,143.1,402z"
   id="path160" />
		<path
   class="st48"
   d="M128,389.9c3.3,4.7,6.3,9.6,11.8,11.8C136.6,397,133,392.7,128,389.9z"
   id="path162" />
		<path
   class="st49"
   d="M157.1,387.7c0.5-3.1-1.9-4.1-4-5.4C152.4,385.6,154.1,387.1,157.1,387.7z"
   id="path164" />
		<path
   class="st11"
   d="M498.1,170.9c-0.2,5.4,5.3,6.5,7.6,9.9c2.9,4.4,8.3,0.8,11.4,4.1c1.4,0.1,3.3,1.2,3.7-1    c0.5-3.2,2.8-5.1,4.6-7.4c4.8-5.9,3.4-14.7-3.1-19.9c-6.7-5.4-15-4.9-20,1.1c-1.3,1.5-2.4,3.7-4,4.2c-3.9,1.3-3.7,3-1.5,5.6    c0.5,0.7,0.7,1.6,0.3,2.4C497.5,170.2,498.1,170.5,498.1,170.9z M518.6,170.1c1,1,4.2-1.3,3.9,2.3c-0.2,1.5-0.2,4.3-2.8,3.9    c-2.4-0.2-4.4-2.2-4.6-4.6C514.8,169,517,170.3,518.6,170.1z M508.5,175.7c-0.4,0.2-2.1-1.1-2.1-1.7c0.1-2.9,2.5-3.4,5.1-4.2    C511.5,172.9,510.6,174.7,508.5,175.7L508.5,175.7z M508.8,157.7c0.8,4,3.3,6.8,0.8,8.8c-1.5,1.1-4.1-0.9-5-2.9    C502.6,159.4,507.4,160.7,508.8,157.7L508.8,157.7z"
   id="path166" />
		<path
   class="st50"
   d="M495.4,174.7c0,0.2-0.1,0.3-0.1,0.5c-1,4,3.1,4.5,4.8,6.4c1.1,1.2,2.1,3.7,4.6,3.1c0,4.1,3,1.6,4.6,2.1    c2.9,0.6,5-1.8,7.8-1.9c-3.1-3.3-8.5,0.3-11.4-4.1c-2.3-3.4-7.8-4.4-7.6-9.9c0-0.3-0.6-0.7-1-1c-0.8-0.1-1.6,0-2,0.9    C498.2,171.9,496,173.3,495.4,174.7z"
   id="path168" />
		<path
   class="st27"
   d="M501.1,189.1c1.6,0.3,3.2,0.4,4.4,1.6c1.5-1,4-1.1,3.9-3.9c-1.6-0.5-4.6,2-4.6-2.1c-2.6,0.6-3.6-1.9-4.6-3.1    c-1.7-1.9-5.9-2.4-4.8-6.4c-0.4-0.4-0.7-0.9-1.1-1.3l0,0c-2,2.4-2.5,4.9-1,7.8C495.5,184.4,498.2,186.9,501.1,189.1z"
   id="path170" />
		<path
   class="st27"
   d="M495.3,175.2c0.1-0.2,0.1-0.3,0.1-0.5C495.4,174.9,495.3,175,495.3,175.2z"
   id="path172" />
		<path
   class="st51"
   d="M470.6,182.7c5.8-1.8,10.4,2.2,15.5,3.1c0.8-0.1,1.6,0,2-1c-5.3-2.2-10.6-4.5-15.9-6.6    c-2.4-0.9-3.9,0.6-4.4,2.7S469.8,183,470.6,182.7z"
   id="path174" />
		<path
   class="st52"
   d="M500,197.1L500,197.1c1.8,5.4,7.5,9.3,6.6,15.9c-0.1,0.5,0.9,1.4,1.6,1.6c1.1,0.3,1.8-0.8,2.1-1.7    c0.4-1.5,0-3-0.9-4.2c-2.7-4.3-5.5-8.6-8.2-12.9l0,0C500.7,196.3,500.4,196.7,500,197.1z"
   id="path176" />
		<path
   class="st53"
   d="M506.1,220l-3,0.7l-2.1,2.1c-0.5,1.5,0.2,2.8,0.9,4c1.5,2.4,3.8,2.3,6.1,1.8v-3l0,0l-0.9,0.2    c-0.7,1-1.4,2.8-2.8,1.4c-0.9-0.9-2-2.9,0.8-3.5c1.9-2.3,2.2,0.3,3.1,1.1l1.7,1.9C511.7,222.8,507.3,222.3,506.1,220z"
   id="path178" />
		<path
   class="st4"
   d="M482.7,168.9c-0.9-1.5-2.2-1.3-3.4-1.2c-0.7,0-1.4,0.3-1.4,1.1c-0.1,1,0.1,2.2,1.2,2.5c4.2,1,5.3,5.3,8.2,7.6    l1.1-1.2C486.4,174.7,484.5,171.8,482.7,168.9z"
   id="path180" />
		<path
   class="st54"
   d="M515.5,200.6c0.5,1.3,1.2,2.4,2.8,2.1c1.1-0.2,0.8-1.2,0.9-2c0-1.5,0.2-3.1-1.7-3.7c-2.5-0.8-5-1.4-7.5-2.2    l-1.1,1C510.9,197.9,514.4,197.6,515.5,200.6z"
   id="path182" />
		<path
   class="st55"
   d="M503.3,217.8c-2.5-1.5-3.7-4.9-7.2-4.6c0.1,0.2,0.1,0.5,0,0.7c1.9,1.8,1.8,3.4-0.3,5c-0.3,1-1.3,1.8-0.7,3    c2.6,0.4,3-4,6-2.8C502,218.9,503.1,219.1,503.3,217.8z"
   id="path184" />
		<path
   class="st56"
   d="M478.5,196.3c-3.2-3.4-6.8-2.7-8.7,1.8c-0.1,0.4-0.2,1,0,1.2c0.4,0.3,0.8,0.4,1.3,0.3    c1.1-0.2,1.5-1.8,2.9-1.4c1.4-2.6,2-0.2,2.9,0.4l0,0c0.9-0.4,2,0.8,2.6-0.3C479.9,197.6,479,196.9,478.5,196.3z"
   id="path186" />
		<path
   class="st57"
   d="M496.1,188.9L496.1,188.9c1.3,0.8,3.4,0.6,3.2,3l0.8-0.1l0,0l1-2.7c-2.9-2.1-5.6-4.6-7.9-7.4l-1,1.2    l-0.1,1.2c-0.1,0.3-0.1,0.6,0,0.8C494.7,185,495,187.4,496.1,188.9z"
   id="path188" />
		<path
   class="st58"
   d="M482,199.6c0.9,2.9-1.4,4.7-2.1,7.9c2.7-1.8,4.6-3.3,7.5-3.4L482,199.6z"
   id="path190" />
		<path
   class="st59"
   d="M496.1,213.2c-0.6-1.6-0.9-4.1-3.3-1.3c-0.8,1-1.8,1.9-2.6,2.9c-0.5,0.6-2.1,0.8-1.2,2c1,1.4,2,0.3,2.9-0.3    c1.4-0.9,1.8-3.4,4.2-2.7C496.2,213.6,496.2,213.4,496.1,213.2z"
   id="path192" />
		<path
   class="st60"
   d="M460.2,190.1c2.3,2,2.5-1.1,4-0.9c1.5,0.8-1.7,5.4,2.9,3.6c-0.3-0.7-0.7-1.3-1-2c-0.3-1.7,1.3-4.4-0.6-4.9    C462.5,185.3,462.1,188.8,460.2,190.1z"
   id="path194" />
		<path
   class="st61"
   d="M452.6,184c0.6,2.1,3.3-0.9,5.4-0.3c-1.3-1.6,1.2-4.8-0.3-4.8C455,179,452,181.9,452.6,184z"
   id="path196" />
		<path
   class="st61"
   d="M458.2,183.8l-0.3-0.1C458,183.8,458,183.8,458.2,183.8L458.2,183.8z"
   id="path198" />
		<path
   class="st61"
   d="M458.2,183.8L458.2,183.8L458.2,183.8z"
   id="path200" />
		<path
   class="st62"
   d="M458.3,184c0-0.1-0.1-0.1-0.1-0.2l0,0l-0.1,0.1C458.2,183.9,458.2,184,458.3,184z"
   id="path202" />
		<path
   class="st62"
   d="M458.6,188.9c0.6-0.3,1.2-0.4,1.4-0.7c1-1.6,4-2.5,2.9-4.6c-1-2-2.9,1.2-4.6,0.5    C458.9,185.5,457.1,187.3,458.6,188.9z"
   id="path204" />
		<path
   class="st63"
   d="M496.1,188.9l-1,0.9l4.9,7.3l0,0c0.4-0.4,0.7-0.8,1.1-1.3l0,0c-0.1-1.5-2.5-2.1-1.7-4    C499.5,189.5,497.4,189.7,496.1,188.9z"
   id="path206" />
		<path
   class="st64"
   d="M469,193.4l1.2,1.5c1-0.9,2.8-1.7,1.9-3.4c-0.8-1.6-2.4-0.2-3.6-0.4c-0.8-0.1-1.6-0.1-2.4-0.2    c0.3,0.7,0.7,1.3,1,2L469,193.4z"
   id="path208" />
		<path
   class="st65"
   d="M501.3,191.9c2.1,2.2,5,3,7.7,4l1.1-1c-1.7-1.4-3.7-2.4-5.9-2.8C503.1,193.4,502.3,191.1,501.3,191.9z"
   id="path210" />
		<path
   class="st66"
   d="M495.1,189.8l1-0.9l0,0c-1.1-1.6-1.4-3.9-4-4.1c0,0.3,0,0.6-0.1,0.8l0.1,2.2L495.1,189.8z"
   id="path212" />
		<path
   class="st67"
   d="M488.3,177.6l-1.1,1.2c1.3,2.1,2.1,4.6,5,5.2l0.1-1.2C491,181.1,489.6,179.3,488.3,177.6z"
   id="path214" />
		<path
   class="st68"
   d="M486.2,185.8c1.8,1.1,3.7,2.1,6,2l-0.1-2.2l-3.9-0.8C487.8,185.8,486.9,185.7,486.2,185.8z"
   id="path216" />
		<path
   class="st69"
   d="M500.1,191.8L500.1,191.8l1.2,0.1c1.1-0.8,1.8,1.5,2.9,0.3l1.3-1.5c-1.2-1.2-2.9-1.3-4.4-1.6L500.1,191.8z"
   id="path218" />
		<path
   class="st59"
   d="M485.9,208.6c0.5,1.8,2.2,3.1,4.1,3C489.3,209.9,488.7,208,485.9,208.6z"
   id="path220" />
		<path
   class="st46"
   d="M503.3,217.8c-0.3,1.2-1.3,1-2.2,1.2l2,1.6l3-0.7C505.8,218.7,504.7,217.8,503.3,217.8z"
   id="path222" />
		<path
   class="st70"
   d="M467.6,196.4c1.4,1.4,1.9-0.7,2.6-1.6l-1.2-1.5C468.5,194.5,466.3,195.3,467.6,196.4z"
   id="path224" />
		<path
   class="st71"
   d="M474,198.3c0.9,0.6,1.5,3.5,2.9,0.4l0,0C475.9,198.1,475.3,195.7,474,198.3z"
   id="path226" />
		<path
   class="st5"
   d="M495.3,175.2c0-0.2,0.1-0.3,0.1-0.5c0.6-1.4,2.8-2.8-0.3-4l-0.9,3.1l0,0C494.6,174.3,494.9,174.8,495.3,175.2    z"
   id="path228" />
		<path
   class="st72"
   d="M508.1,225.6v3.1c1-0.2,1.4-1.1,1.9-1.9l-1.7-1.9C508,225,508,225.3,508.1,225.6z"
   id="path230" />
		<path
   class="st46"
   d="M501,222.9c-1.2,1.7-1.7,3.2,0.9,4C501.3,225.6,500.5,224.4,501,222.9z"
   id="path232" />
		<path
   class="st46"
   d="M495.8,218.8c-1.9,0.6-2.3,1.6-0.7,3C494.5,220.6,495.5,219.8,495.8,218.8z"
   id="path234" />
		<path
   class="st73"
   d="M519.6,176.2c2.6,0.4,2.7-2.4,2.8-3.9c0.4-3.5-2.9-1.3-3.9-2.3c-1.6,0.2-3.8-1-3.6,1.6    C515.2,174.1,517.2,176,519.6,176.2z"
   id="path236" />
		<path
   class="st74"
   d="M509.5,166.5c2.6-2,0-4.9-0.8-8.8c-1.4,3-6.1,1.8-4.3,5.9C505.4,165.7,508,167.7,509.5,166.5z"
   id="path238" />
		<path
   class="st75"
   d="M506.4,174c0,0.6,1.7,1.9,2.1,1.7c2.1-1,3-2.8,2.9-5.9C508.8,170.6,506.4,171.1,506.4,174z"
   id="path240" />
		<path
   class="st76"
   d="M505.1,223.7c-2.8,0.6-1.7,2.6-0.8,3.5c1.5,1.4,2.1-0.4,2.8-1.4C506.2,225.4,505.4,224.7,505.1,223.7z"
   id="path242" />
		<path
   class="st77"
   d="M508.2,224.8c-0.9-0.8-1.2-3.3-3.1-1.1c0.3,0.9,1.1,1.7,2,2.1l0.9-0.2h0.1C508,225.3,508,225,508.2,224.8z"
   id="path244" />
	</g>
</g>
</svg>
